<?xml version="1.0" encoding="utf-8"?>
<!-- Generator: Adobe Illustrator 16.0.0, SVG Export Plug-In . SVG Version: 6.00 Build 0)  -->
<!DOCTYPE svg PUBLIC "-//W3C//DTD SVG 1.1//EN" "http://www.w3.org/Graphics/SVG/1.1/DTD/svg11.dtd">
<svg version="1.1" id="Layer_1" xmlns="http://www.w3.org/2000/svg" xmlns:xlink="http://www.w3.org/1999/xlink" x="0px" y="0px"
	 width="527.082px" height="302.207px" viewBox="0 0 527.082 302.207" enable-background="new 0 0 527.082 302.207"
	 xml:space="preserve">
<g>
	
		<image overflow="visible" width="2235" height="1198" xlink:href="47B077DD.jpg"  transform="matrix(0.2358 0 0 -0.2351 0 281.5933)">
	</image>
	
		<line fill="none" stroke="#1D2858" stroke-width="1.9711" stroke-linecap="round" stroke-miterlimit="10" x1="11.04" y1="301.221" x2="479.297" y2="301.221"/>
	<path fill="#1D2858" d="M410.548,300.778H368.45c-6.05,0-10.957-4.887-10.957-10.911v-82.704c0-0.583,0.475-1.055,1.06-1.055
		c0.586,0,1.06,0.472,1.06,1.055v82.704c0,4.858,3.959,8.801,8.838,8.801h42.098c4.851,0,8.81-3.942,8.81-8.801v-82.704
		c0-0.583,0.474-1.055,1.06-1.055c0.585,0,1.06,0.472,1.06,1.055v82.704C421.477,295.891,416.569,300.778,410.548,300.778
		L410.548,300.778z"/>
	<path fill="#77CDD5" d="M412.834,300.944h-46.698c-3.066,0-5.994-1.249-8.224-3.554c-2.648-2.721-4.099-6.607-3.987-10.688
		l2.593-114.297c0.084-3.138,2.704-5.691,5.854-5.691h54.253c3.15,0,5.771,2.554,5.827,5.691l2.593,114.297
		c0.111,4.081-1.339,7.968-3.987,10.688C418.827,299.695,415.9,300.944,412.834,300.944L412.834,300.944z M362.372,169.517
		L362.372,169.517c-1.645,0-2.982,1.305-3.038,2.943l-2.593,114.297c-0.084,3.359,1.087,6.496,3.178,8.689
		c1.729,1.722,3.931,2.693,6.217,2.693h46.698c2.313,0,4.516-0.972,6.217-2.693c2.118-2.193,3.262-5.33,3.178-8.661l-2.593-114.325
		c-0.027-1.639-1.394-2.943-3.011-2.943H362.372z"/>
	<path fill="#77CDD5" d="M423.148,172.376c-0.056-3.525-3.011-6.385-6.523-6.385h-54.253c-3.54,0-6.468,2.859-6.552,6.385
		l-0.501,22.516h4.209l0.056-2.471c0.084-2.888,2.454-5.191,5.354-5.191h49.123c2.899,0,5.269,2.304,5.324,5.191l0.057,2.471h4.237
		L423.148,172.376z M411.355,178.874L411.355,178.874h-43.714c-1.422,0-2.565-1.139-2.565-2.555c0-1.388,1.144-2.526,2.565-2.526
		h43.714c1.395,0,2.537,1.139,2.537,2.526C413.893,177.735,412.75,178.874,411.355,178.874L411.355,178.874z"/>
	<rect x="356.741" y="223.154" fill="#77CDD5" width="65.487" height="5.497"/>
	<path fill="#1D2858" d="M218.098,300.778H176c-6.022,0-10.929-4.887-10.929-10.911v-82.704c0-0.583,0.474-1.055,1.06-1.055
		s1.06,0.472,1.06,1.055v82.704c0,4.858,3.958,8.801,8.81,8.801h42.098c4.879,0,8.837-3.942,8.837-8.801v-82.704
		c0-0.583,0.474-1.055,1.06-1.055s1.06,0.472,1.06,1.055v82.704C229.055,295.891,224.148,300.778,218.098,300.778L218.098,300.778z"
		/>
	<path fill="#77CDD5" d="M220.412,300.944h-46.698c-3.066,0-5.994-1.249-8.224-3.554c-2.648-2.721-4.098-6.607-3.987-10.688
		l2.593-114.297c0.056-3.138,2.676-5.691,5.827-5.691h54.253c3.15,0,5.771,2.554,5.854,5.691l2.593,114.297
		c0.111,4.081-1.338,7.968-3.987,10.688C226.406,299.695,223.479,300.944,220.412,300.944L220.412,300.944z M169.923,169.517
		L169.923,169.517c-1.617,0-2.983,1.305-3.011,2.943l-2.593,114.297c-0.084,3.359,1.059,6.496,3.178,8.689
		c1.701,1.722,3.903,2.693,6.217,2.693h46.698c2.286,0,4.488-0.972,6.217-2.693c2.091-2.193,3.262-5.33,3.178-8.661l-2.593-114.325
		c-0.056-1.639-1.394-2.943-3.039-2.943H169.923z"/>
	<path fill="#77CDD5" d="M230.727,172.376c-0.083-3.525-3.011-6.385-6.551-6.385h-54.253c-3.513,0-6.468,2.859-6.523,6.385
		l-0.53,22.516h4.237l0.056-2.471c0.056-2.888,2.425-5.191,5.353-5.191h49.095c2.899,0,5.269,2.304,5.353,5.191l0.056,2.471h4.209
		L230.727,172.376z M218.906,178.874L218.906,178.874h-43.714c-1.394,0-2.537-1.139-2.537-2.555c0-1.388,1.143-2.526,2.537-2.526
		h43.714c1.422,0,2.565,1.139,2.565,2.526C221.471,177.735,220.328,178.874,218.906,178.874L218.906,178.874z"/>
	<rect x="164.319" y="223.154" fill="#77CDD5" width="65.488" height="5.497"/>
	<path fill="#B6877A" d="M206.751,114.825c-0.362,2.582,0.335,4.803,1.534,4.998c1.227,0.167,2.509-1.805,2.872-4.387
		c0.39-2.582-0.307-4.831-1.534-4.997C208.396,110.272,207.114,112.244,206.751,114.825L206.751,114.825z"/>
	<polygon fill="#B6877A" points="207.002,121.293 207.002,126.153 197.049,133.288 187.068,126.153 187.068,121.293 	"/>
	<path fill="#B6877A" d="M187.319,114.825c0.391,2.582-0.307,4.803-1.533,4.998c-1.227,0.167-2.509-1.805-2.872-4.387
		c-0.362-2.582,0.334-4.831,1.533-4.997C185.675,110.272,186.957,112.244,187.319,114.825L187.319,114.825z"/>
	<path fill="#E8B08A" d="M208.229,115.297c0,7.301-5.019,13.215-11.18,13.215c-6.189,0-11.18-5.914-11.18-13.215
		c0-7.301,1.283-13.215,11.18-13.215C206.918,102.083,208.229,107.996,208.229,115.297L208.229,115.297z"/>
	<path fill="#0C6AA7" d="M207.95,118.212c1.561-2.027,0.892-4.914,1.003-9.633c0.083-2.86,0.585-6.024,0-8.329
		c-0.725-2.943-2.537-2.221-6.635-5.497c-4.126-3.249-8.475-3.776-13.438,0.222c-4.935,3.998-4.154,9.689-3.764,13.382
		c0.418,3.692-0.697,8.329,0.752,8.439l1.115-7.523c0.167-1.277,1.533-1.999,2.705-1.444c2.453,1.166,6.245,2.582,8.67,1.583
		c3.82-1.583,6.078-4.386,7.165-3.692C206.612,106.414,207.95,118.212,207.95,118.212L207.95,118.212z"/>
	<path fill="#1D2858" d="M203.238,115.742c-1.422,0.972-2.564,0-2.564,0H203.238z"/>
	<path fill="#1D2858" d="M205.19,114.27c-0.028,0-0.056,0-0.083,0c-2.091-0.472-5.604,0-5.632,0
		c-0.195,0.028-0.362-0.111-0.39-0.305s0.111-0.361,0.307-0.389c0.14-0.028,3.652-0.5,5.854,0c0.195,0.056,0.307,0.222,0.279,0.417
		C205.497,114.159,205.33,114.27,205.19,114.27L205.19,114.27z"/>
	<path fill="#1D2858" d="M190.888,115.742c1.394,0.972,2.565,0,2.565,0H190.888z"/>
	<path fill="#1D2858" d="M188.937,114.27c-0.167,0-0.307-0.111-0.334-0.277c-0.056-0.194,0.083-0.361,0.251-0.417
		c2.23-0.5,5.743-0.028,5.882,0c0.195,0.028,0.334,0.194,0.307,0.389s-0.223,0.333-0.39,0.305c-0.056,0-3.541-0.472-5.632,0
		C188.992,114.27,188.964,114.27,188.937,114.27L188.937,114.27z"/>
	<path fill="#B6877A" d="M199.614,119.073c0.083,0.277-0.083,0.583-0.279,0.777s-0.418,0.361-0.669,0.472
		c-0.502,0.222-1.06,0.305-1.617,0.332c-0.53-0.027-1.087-0.11-1.589-0.332c-0.25-0.111-0.501-0.278-0.697-0.472
		s-0.334-0.5-0.251-0.777c0.083,0.25,0.251,0.389,0.474,0.5c0.195,0.111,0.418,0.167,0.669,0.222
		c0.446,0.111,0.92,0.139,1.394,0.139c0.474,0.028,0.976-0.028,1.422-0.139c0.223-0.056,0.446-0.111,0.669-0.222
		C199.335,119.462,199.531,119.323,199.614,119.073L199.614,119.073z"/>
	<path fill="#1D2858" d="M198.359,124.264c0.418-0.083,0.809-0.25,1.171-0.416c0.39-0.166,0.725-0.361,1.031-0.611
		s0.474-0.582,0.669-0.859c0.195-0.307,0.307-0.639,0.474-1.084h0.083c0.223,0.389,0.251,0.916,0.084,1.389
		c-0.195,0.473-0.614,0.777-0.976,1c-0.809,0.471-1.673,0.639-2.537,0.666V124.264z"/>
	<path fill="#0C6AA7" d="M170.843,223.154h26.207v-19.128c0,0-12.741,0-21.132,0s-29.162,7.939-24.952,23.043L170.843,223.154z"/>
	<polygon fill="#0E5E88" points="173.687,217.046 197.049,217.046 197.049,223.154 170.843,223.154 	"/>
	<path fill="#0C6AA7" d="M163.176,281.539l-12.211-54.47c-1.729-7.746,4.182-15.104,12.155-15.104
		c7.053,0,12.936,5.414,13.465,12.438l4.405,57.136H163.176z"/>
	<path fill="#0E5E88" d="M180.991,281.539l0.223,2.637c0.056,0.639,0.307,1.25,0.753,1.722c0.418,0.472,0.697,1.083,0.752,1.721
		l0.53,5.581l-12.992-1.777l-1.672-9.883H180.991z"/>
	<path fill="#1D2858" d="M155.928,301.221c0,0-1.06-2.581,0.418-4.025c1.45-1.471,8.949-1.388,12.434-9.272
		c1.84-4.192,8.559-3.137,10.037,0c1.45,3.109,4.6,5.608,4.182,2.693c0,0,1.004-0.278,1.422,0.972
		c0.418,1.249,1.701,9.633,1.701,9.633H155.928z"/>
	<path fill="#0C6AA7" d="M223.256,223.154h-26.207v-19.128c0,0,12.713,0,21.132,0c8.392,0,28.242,7.052,24.952,23.043
		L223.256,223.154z"/>
	<polygon fill="#0E5E88" points="220.412,217.046 197.049,217.046 197.049,223.154 223.256,223.154 	"/>
	<path fill="#0C6AA7" d="M230.922,281.539l12.211-54.47c1.729-7.746-4.209-15.104-12.183-15.104
		c-7.053,0-12.908,5.414-13.465,12.438l-4.377,57.136H230.922z"/>
	<path fill="#0E5E88" d="M213.107,281.539l-0.223,2.637c-0.056,0.639-0.334,1.25-0.781,1.722c-0.418,0.472-0.669,1.083-0.753,1.721
		l-0.501,5.581l12.992-1.777l1.672-9.883H213.107z"/>
	<path fill="#1D2858" d="M238.171,301.221c0,0,1.032-2.581-0.418-4.025c-1.478-1.471-8.977-1.388-12.434-9.272
		c-1.84-4.192-8.587-3.137-10.037,0c-1.478,3.109-4.6,5.608-4.182,2.693c0,0-1.004-0.278-1.422,0.972
		c-0.418,1.249-1.729,9.633-1.729,9.633H238.171z"/>
	<path fill="#0C6AA7" stroke="#0C6AA7" stroke-width="0.2221" stroke-miterlimit="10" d="M166.076,206.108
		c1.645-0.556-0.056-1.832,2.509-4.054h56.929c2.537,2.222,0.836,3.498,2.481,4.054H166.076z"/>
	<path fill="#EDF5F7" d="M175.917,133.288c-6.412,0-11.932,4.553-13.075,10.855c-2.175,11.771-5.102,30.149-4.293,39.616h12.294
		l5.074-20.877V133.288z"/>
	<path fill="#D1C0C5" d="M172.042,150.167c0,5.025-10.176,19.768-11.542,23.626h12.769l2.648-10.91v-12.716H172.042z"/>
	<path fill="#EDF5F7" d="M218.182,133.288c6.412,0,11.904,4.553,13.075,10.855c2.147,11.771,2.147,28.678,1.338,38.145
		l-13.215,1.472C214.613,171.489,218.182,133.288,218.182,133.288L218.182,133.288z"/>
	<path fill="#D1C0C5" d="M222.029,151.055l-5.074,14.631c0.195,7.302,0.864,14.075,2.425,18.073l9.284-6.386
		C224.761,172.432,222.029,154.748,222.029,151.055L222.029,151.055z"/>
	<path fill="#EDF5F7" d="M225.514,202.054c0-4.47-0.976-8.884-2.815-12.992l-1.729-3.775c-1.84-4.109-2.788-8.551-2.788-12.993
		c0,0,8.726-27.124,0-39.006h-42.265c-8.754,11.882,0,39.006,0,39.006c0,4.442-0.948,8.884-2.816,12.993l-1.701,3.775
		c-1.868,4.108-2.815,8.522-2.815,12.992H225.514z"/>
	<path fill="#D1C0C5" d="M222.698,189.062l-1.729-3.775c-1.84-4.109-2.788-8.551-2.788-12.993c0,0,0.836-2.665,1.756-6.719
		c-1.645,6.357-8.643,5.941-21.857,5.941c-13.717,0-24.701-9.634-25.454-14.408l0,0c1.087,8.328,3.29,15.186,3.29,15.186
		c0,4.442-0.948,8.884-2.816,12.993l-1.701,3.775c-1.868,4.108-5.325,9.272-2.815,12.992h56.929
		C227.995,197.613,224.538,193.17,222.698,189.062L222.698,189.062z"/>
	<path fill="#D1C0C5" d="M220.078,164.936c0.028-0.027,0.028-0.055,0.028-0.11l0,0C220.105,164.881,220.105,164.909,220.078,164.936
		L220.078,164.936z"/>
	<polygon fill="#D1C0C5" points="197.049,133.288 190.358,144.698 180.74,133.288 	"/>
	<polygon fill="#EDF5F7" points="187.068,126.153 180.74,133.288 190.052,141.95 197.049,133.288 	"/>
	<polygon fill="#D1C0C5" points="197.049,133.288 203.712,144.698 213.358,133.288 	"/>
	<polygon fill="#EDF5F7" points="207.002,126.153 213.358,133.288 204.019,141.95 197.049,133.288 	"/>
	<path fill="#E8B08A" d="M200.2,141.588l-2.091-2.887c-0.223-0.307-0.585-0.5-0.976-0.5h-3.29l4.684-7.052
		c0.446-0.694,0.362-1.583-0.251-2.165c-0.669-0.639-1.756-0.611-2.425,0.082l-8.977,9.635c-0.53,0.582-0.836,1.359-0.836,2.165
		v8.079c0,0-1.366,1.776-3.457,4.219l7.974,6.497l1.087-2.332l1.534-1.277c1.003-0.86,1.589-2.138,1.589-3.47v-5.053l2.286-1.389
		l1.478,1.86c1.868,0.306,1.868-2.804,1.868-2.804C201.064,144.059,200.98,142.643,200.2,141.588L200.2,141.588z"/>
	<path fill="#EDF5F7" d="M167.916,166.713c-7.806,4.247-9.367,9.911-9.367,17.046c0,2.499,3.596,8.384,11.57,4.97
		c7.444-3.193,22.052-27.763,22.052-27.763l-1.617-1.305l-7.974-6.497C178.9,157.524,172.906,163.993,167.916,166.713
		L167.916,166.713z"/>
	<polygon fill="#F0EDEE" points="210.794,190.145 185.897,190.145 184.866,175.097 211.797,175.097 	"/>
	<path fill="#EDF5F7" d="M211.379,196.53c0.251,1.527,0.976,2.749,3.68,2.971c2.705,0.25,12.713-2.582,17.146-15.741
		c0,0,2.091-5.025-3.541-6.386c-5.631-1.388-9.228,2.499-9.869,3.942c-0.669,1.444-2.425,4.137-3.457,4.608
		C214.334,186.424,211.379,196.53,211.379,196.53L211.379,196.53z"/>
	<path fill="#E8B08A" d="M188.072,185.175l13.131,7.052c0,0,11.235,4.858,12.88,5.357c1.533,0.444,6.217-4.969,3.095-8.717
		c-0.363-0.444-0.614-0.972-0.697-1.555l-0.53-4.442c-0.056-0.527-0.307-1.027-0.725-1.36l-3.652-3.025l-0.223,3.358
		c-0.056,0.75,0.195,1.5,0.669,2.11l0.669,0.833h-4.293l-13.521-3.442c-0.92-0.223-1.896-0.084-2.704,0.389l-0.418,0.222
		l-2.007-0.416c-1.004-0.223-1.979,0.416-2.203,1.416l-0.139,0.777C187.264,184.315,187.542,184.898,188.072,185.175
		L188.072,185.175z"/>
	<path fill="#1D2858" d="M314.309,300.778h-42.069c-6.05,0-10.956-4.887-10.956-10.911v-82.704c0-0.583,0.474-1.055,1.059-1.055
		c0.586,0,1.06,0.472,1.06,1.055v82.704c0,4.858,3.959,8.801,8.838,8.801h42.069c4.879,0,8.838-3.942,8.838-8.801v-82.704
		c0-0.583,0.474-1.055,1.06-1.055c0.585,0,1.06,0.472,1.06,1.055v82.704C325.266,295.891,320.358,300.778,314.309,300.778
		L314.309,300.778z"/>
	<path fill="#77CDD5" d="M316.623,300.944h-46.697c-3.067,0-5.994-1.249-8.225-3.554c-2.648-2.721-4.099-6.607-3.987-10.688
		l2.593-114.297c0.084-3.138,2.705-5.691,5.854-5.691h54.226c3.15,0,5.771,2.554,5.854,5.691l2.593,114.297
		c0.111,4.081-1.338,7.968-3.987,10.688C322.617,299.695,319.689,300.944,316.623,300.944L316.623,300.944z M266.161,169.517
		L266.161,169.517c-1.645,0-3.011,1.305-3.038,2.943l-2.593,114.297c-0.084,3.359,1.06,6.496,3.178,8.689
		c1.701,1.722,3.903,2.693,6.218,2.693h46.697c2.313,0,4.516-0.972,6.217-2.693c2.119-2.193,3.262-5.33,3.178-8.661l-2.592-114.325
		c-0.028-1.639-1.395-2.943-3.039-2.943H266.161z"/>
	<path fill="#76CCD1" d="M326.938,172.376c-0.084-3.525-3.012-6.385-6.552-6.385h-54.226c-3.54,0-6.468,2.859-6.551,6.385
		l-0.502,22.516h4.21l0.056-2.471c0.083-2.888,2.453-5.191,5.353-5.191h49.095c2.899,0,5.27,2.304,5.354,5.191l0.056,2.471h4.209
		L326.938,172.376z M315.146,178.874L315.146,178.874h-43.743c-1.394,0-2.536-1.139-2.536-2.555c0-1.388,1.143-2.526,2.536-2.526
		h43.743c1.394,0,2.537,1.139,2.537,2.526C317.683,177.735,316.539,178.874,315.146,178.874L315.146,178.874z"/>
	<rect x="260.53" y="223.154" fill="#77CDD5" width="65.487" height="5.497"/>
	<path fill="#0C0C0C" d="M293.064,223.154h-5.408c-5.13,0-19.599,2.721-18.846,5.47c0,0-17.62,3.997-20.91-4.359
		c-2.816-7.218,1.505-16.99,17.146-16.99h28.046L293.064,223.154z"/>
	<path fill="#010101" d="M293.093,211.965c-13.438,0-23.613,9.051-26.708,9.106l-0.837,10.134c4.852,0.389,3.263-2.582,3.263-2.582
		c-0.837-3.138,13.716-5.47,18.846-5.47h5.408L293.093,211.965z"/>
	<path fill="#B6877A" d="M289.942,290.617l-2.007-10.661l-13.104,0.666l3.959,9.995c0,0,10.816,5.08,10.9,5.08
		C289.747,295.697,290.695,294.669,289.942,290.617L289.942,290.617z"/>
	<path fill="#010101" d="M262.872,301.221c0,0-1.06-2.581,0.418-4.025c1.45-1.471,8.949-1.388,12.435-9.272
		c1.84-4.192,8.559-3.137,10.036,0c1.449,3.109,4.6,5.608,4.182,2.693c0,0,1.004-0.278,1.422,0.972c0.418,1.249,1.7,9.633,1.7,9.633
		H262.872z"/>
	<path fill="#0C0C0C" d="M247.538,222.293c0,6.052,26.765,60.827,26.765,60.827h15.389c0,0-2.202-33.259-18.316-54.497l-1.255-4.609
		c-1.673-6.107-7.555-10.993-16.114-10.327c-3.568,0-6.468,2.888-6.468,6.44V222.293z"/>
	<polygon fill="#0C0C0C" points="289.691,283.121 271.264,283.121 267.89,276.263 289.691,275.625 	"/>
	<path fill="#010101" d="M269.479,272.988c0,0,17.424,2.721,16.979,2.721c-0.446,0.027-15.474,0.472-15.474,0.472L269.479,272.988z"
		/>
	<path fill="#0C0C0C" d="M293.093,223.154h5.408c5.158,0,19.6,2.721,18.847,5.47c0,0,17.647,3.997,20.909-4.359
		c2.844-7.218-1.505-16.99-17.118-16.99h-28.046V223.154z"/>
	<path fill="#010101" d="M293.093,211.965c13.438,0,23.613,9.051,26.681,9.106l0.836,10.134c-4.823,0.389-3.262-2.582-3.262-2.582
		c0.864-3.138-13.688-5.47-18.847-5.47h-5.408V211.965z"/>
	<path fill="#B6877A" d="M296.243,290.617l2.007-10.661l13.104,0.666l-3.959,9.995c0,0-10.845,5.08-10.9,5.08
		S295.49,294.669,296.243,290.617L296.243,290.617z"/>
	<path fill="#010101" d="M323.313,301.221c0,0,1.032-2.581-0.418-4.025c-1.478-1.471-8.977-1.388-12.434-9.272
		c-1.841-4.192-8.587-3.137-10.037,0c-1.478,3.109-4.6,5.608-4.182,2.693c0,0-1.004-0.278-1.422,0.972
		c-0.418,1.249-1.729,9.633-1.729,9.633H323.313z"/>
	<path fill="#0C0C0C" stroke="#010101" stroke-width="0.2221" stroke-miterlimit="10" d="M338.647,222.293
		c0,6.052-26.792,60.827-26.792,60.827h-15.361c0,0,2.175-33.259,18.289-54.497l1.282-4.609c1.645-6.107,7.527-10.993,16.114-10.327
		c3.568,0,6.468,2.888,6.468,6.44V222.293z"/>
	<polygon fill="#0C0C0C" points="296.494,283.121 314.895,283.121 318.268,276.263 296.494,275.625 	"/>
	<path fill="#010101" d="M316.679,272.988c0,0-17.425,2.721-16.95,2.721c0.445,0.027,15.444,0.472,15.444,0.472L316.679,272.988z"/>
	<path fill="#BBD532" d="M266.385,203.776l1.589-38.117l-2.313-27.264c14.329-9.688,39.588-8.439,54.085,0.028l-1.589,27.235
		l1.589,38.117H266.385z"/>
	<path fill="#A5B038" d="M318.156,165.659l0.613-3.554l-8.001,24.319c-0.837,2.555-3.206,4.275-5.911,4.275h-23.585
		c-2.677,0-5.074-1.721-5.911-4.275l-7.973-24.319c0.111,0.722,0.585,3.554,0.585,3.554l6.523,38.117h38.362L318.156,165.659z"/>
	<path fill="#CC3329" d="M293.064,133.288l4.879,6.052l-2.871,6.636l1.338,7.162c0.168,0.916,0.279,1.805,0.307,2.721l2.593,50.972
		c0.056,0.86-0.251,1.693-0.864,2.332l-5.381,5.719l-5.38-5.719c-0.586-0.639-0.893-1.472-0.864-2.332l2.593-50.972
		c0.056-0.916,0.139-1.805,0.307-2.721l1.338-7.162l-2.871-6.636L293.064,133.288z"/>
	<polygon fill="#0699A5" points="288.187,139.339 288.493,140.034 293.064,133.288 	"/>
	<polygon fill="#0699A5" points="297.943,139.339 297.637,140.034 293.064,133.288 	"/>
	<polygon fill="#F0EDEE" points="305.527,207.385 280.631,207.385 279.627,192.337 306.559,192.337 	"/>
	<path fill="#BBD532" d="M265.66,138.395l2.313,27.264l-8.001,21.737l9.479,13.409c0,0-7.861,1.472-6.133,9.745
		c0,0-13.494-6.219-16.421-16.658C246.897,193.892,248.291,145.558,265.66,138.395L265.66,138.395z"/>
	<path fill="#A5B038" d="M261.701,189.839c-4.35-6.33-5.354-4.581-5.354-4.581l11.041-23.153l0.585,3.554L261.701,189.839z"/>
	<path fill="#B6877A" d="M263.318,210.55l9.116,3.914c0.613,0.277,1.255,0.306,1.896,0.111l11.988-3.665
		c0.641-0.222,1.087-0.805,1.087-1.499v-2.471c0-0.944-0.809-1.693-1.756-1.555l-5.186,0.666l6.05-1.749
		c0.892-0.25,1.365-1.222,1.031-2.082l0,0c-0.251-0.639-0.893-1.027-1.589-0.972l-6.385,0.527l-1.087-0.86
		c-1.088-0.86-2.51-1.222-3.875-1l-5.158,0.889C269.451,200.805,261.395,202.277,263.318,210.55L263.318,210.55z"/>
	<path fill="#BBD532" d="M319.745,138.423l-1.589,27.235l4.042,26.374l-5.492,8.772c0,0,7.834,1.472,6.105,9.745
		c0,0,13.494-6.219,16.421-16.658C339.232,193.892,337.142,145.614,319.745,138.423L319.745,138.423z"/>
	<path fill="#A5B038" d="M322.198,192.033c4.35-6.33,7.583-6.774,7.583-6.774l-11.012-23.153l-0.613,3.554L322.198,192.033z"/>
	<path fill="#B6877A" d="M322.812,210.55l-9.116,3.914c-0.585,0.277-1.254,0.306-1.868,0.111l-11.987-3.665
		c-0.669-0.222-1.115-0.805-1.115-1.499v-2.471c0-0.944,0.836-1.693,1.756-1.555l5.186,0.666l-6.05-1.749
		c-0.892-0.25-1.366-1.222-1.031-2.082l0,0c0.251-0.639,0.893-1.027,1.589-0.972l6.385,0.527l1.087-0.86
		c1.115-0.86,2.509-1.222,3.875-1l5.186,0.889C316.706,200.805,324.735,202.277,322.812,210.55L322.812,210.55z"/>
	<path fill="#1D2858" d="M121.887,300.778H79.79c-6.022,0-10.929-4.887-10.929-10.911v-82.704c0-0.583,0.474-1.055,1.059-1.055
		s1.06,0.472,1.06,1.055v82.704c0,4.858,3.959,8.801,8.81,8.801h42.097c4.879,0,8.838-3.942,8.838-8.801v-82.704
		c0-0.583,0.474-1.055,1.059-1.055s1.06,0.472,1.06,1.055v82.704C132.844,295.891,127.937,300.778,121.887,300.778L121.887,300.778z
		"/>
	<path fill="#77CDD5" d="M124.201,300.944H77.504c-3.067,0-5.994-1.249-8.225-3.554c-2.648-2.721-4.098-6.607-3.987-10.688
		l2.593-114.297c0.056-3.138,2.677-5.691,5.827-5.691h54.253c3.15,0,5.771,2.554,5.854,5.691l2.593,114.297
		c0.112,4.081-1.338,7.968-3.986,10.688C130.195,299.695,127.268,300.944,124.201,300.944L124.201,300.944z M73.712,169.517
		L73.712,169.517c-1.617,0-2.983,1.305-3.011,2.943l-2.593,114.297c-0.083,3.359,1.06,6.496,3.178,8.689
		c1.701,1.722,3.903,2.693,6.217,2.693h46.697c2.314,0,4.517-0.972,6.217-2.693c2.119-2.193,3.262-5.33,3.178-8.661l-2.593-114.325
		c-0.056-1.639-1.394-2.943-3.039-2.943H73.712z"/>
	<path fill="#77CDD5" d="M134.517,172.376c-0.084-3.525-3.011-6.385-6.552-6.385H73.712c-3.513,0-6.468,2.859-6.523,6.385
		l-0.53,22.516h4.238l0.056-2.471c0.056-2.888,2.425-5.191,5.353-5.191H125.4c2.899,0,5.269,2.304,5.353,5.191l0.056,2.471h4.209
		L134.517,172.376z M122.696,178.874L122.696,178.874H78.981c-1.394,0-2.537-1.139-2.537-2.555c0-1.388,1.143-2.526,2.537-2.526
		h43.714c1.422,0,2.565,1.139,2.565,2.526C125.261,177.735,124.118,178.874,122.696,178.874L122.696,178.874z"/>
	<rect x="68.108" y="223.154" fill="#77CDD5" width="65.488" height="5.497"/>
	<path fill="#1D2858" d="M120.326,223.154c5.771,0,11.151-9.161,8.447-17.046c-3.011-8.856-10.566-13.909-11.709-21.599H84.111
		c-1.171,7.689-8.698,12.742-11.737,21.599c-2.676,7.885,2.704,17.046,8.447,17.046H120.326z"/>
	<path fill="#1D2858" d="M101.814,204.082c2.704,0,9.061-2.638,14.72-0.056c7.862,3.554,6.998,10.716,6.189,18.462
		c-1.087,10.272-4.293,19.489-4.293,19.489H79.985c0,0,0-16.63-3.262-20.378c-2.565-2.942-3.29-10.161,1.003-15.491
		c3.262-4.081,9.953-4.553,13.577-4.054C93.869,202.388,97.409,204.082,101.814,204.082L101.814,204.082z"/>
	<path fill="#1D2858" d="M89.938,289.089c-2.593,4.608-4.628,10.744-1.422,11.854c0,0,7.778,0,10.12,0
		c2.37,0,2.593-6.385,2.593-10.438c0-4.081-0.53-12.993-1.171-13.215C99.417,277.096,89.938,289.089,89.938,289.089L89.938,289.089z
		"/>
	<path fill="#EFB691" d="M85.477,241.977c0,8.911,6.58,32.814,6.58,37.979s-4.042,12.965-3.29,14.215
		c0.752,1.276,11.82,2.276,11.82,0v-15.353c0-1.749-0.25-3.498-0.725-5.192c-0.613-2.192-0.836-4.497-0.641-6.773
		c0.474-5.774,1.366-17.573,1.366-24.875H85.477z"/>
	<path fill="#1D2858" d="M113.328,289.089c2.593,4.608,4.656,10.744,1.422,11.854c0,0-7.75,0-10.12,0
		c-2.37,0-2.593-6.385-2.593-10.438c0-4.081,0.53-12.993,1.199-13.215C103.877,277.096,113.328,289.089,113.328,289.089
		L113.328,289.089z"/>
	<path fill="#EFB691" d="M118.43,241.977c-2.23,9.967-7.221,32.814-7.221,37.979s4.042,12.965,3.29,14.215
		c-0.752,1.276-11.792,2.276-11.792,0v-15.353c0-1.749,0.223-3.498,0.697-5.192c0.613-2.192,0.836-4.497,0.641-6.773
		c-0.474-5.774-1.338-17.573-1.338-24.875H118.43z"/>
	<path fill="#1D2858" d="M111.823,100.361c0.112,0.083,0.976,0.805,1.952,1.638c1.979,1.722,3.123,4.22,3.123,6.857v27.096h-14.358
		L111.823,100.361z"/>
	<path fill="#EDF5F7" d="M118.235,133.288c3.708,0,6.719,2.998,6.719,6.69v39.589h-10.092l-0.92-46.279H118.235z"/>
	<path fill="#D1C0C5" d="M114.192,145.475l3.262-0.583c0,5.303,1.171,7.495,1.979,11.549c0.836,4.025,0.39,20.072,3.262,20.961
		l-1.589,2.165h-6.245L114.192,145.475z"/>
	<path fill="#EDF5F7" d="M82.912,133.288c-3.708,0-6.691,2.998-6.691,6.69v39.589h10.064l0.92-46.279H82.912z"/>
	<path fill="#D1C0C5" d="M86.982,145.475l-3.262-0.583c0,5.303-1.199,7.495-2.007,11.549c-0.809,4.025-0.362,20.072-3.234,20.961
		l1.589,2.165h6.217L86.982,145.475z"/>
	<path fill="#EDF5F7" d="M113.942,133.288h4.293c0,0-1.84,15.936,0,23.126c1.84,7.19-2.174,14.853-2.843,17.379
		c-0.697,2.526,3.68,8.218,1.672,10.717c-2.704,3.358-16.477,3.525-16.477,3.525s-13.8-0.167-16.477-3.525
		c-2.007-2.499,2.342-8.19,1.673-10.717c-0.669-2.526-4.711-10.188-2.872-17.379c1.868-7.19,0-23.126,0-23.126h4.293H113.942z"/>
	<path fill="#D1C0C5" d="M84.111,184.509c2.677,3.358,16.477,3.525,16.477,3.525s13.772-0.167,16.477-3.525
		c1.311-1.639-0.139-4.692-1.059-7.302c-0.056,1.666-3.708,5.996-9.451,6.524c-9.674,0.888-17.313-2.999-20.77-9.939
		C86.453,176.319,82.104,182.01,84.111,184.509L84.111,184.509z"/>
	<path fill="#D1C0C5" d="M87.206,136.619c0.195,0.389,8.559,16.075,8.559,16.075l4.823-6.441L87.206,136.619z"/>
	<polygon fill="#EDF5F7" points="92.168,131.177 87.206,133.288 87.206,136.619 95.765,151.055 100.587,146.252 92.168,136.897 	"/>
	<path fill="#D1C0C5" d="M112.659,135.953c-0.195,0.389-7.276,16.741-7.276,16.741l-4.795-6.441L112.659,135.953z"/>
	<polygon fill="#EDF5F7" points="108.979,131.177 113.942,133.288 105.411,151.055 100.587,146.252 108.979,136.897 	"/>
	<polygon fill="#EFB691" points="108.979,127.291 108.979,136.897 100.587,146.252 92.168,136.897 92.168,121.96 	"/>
	<path fill="#B2896E" d="M92.447,121.877v14.908l8.392,9.383l1.979-2.192c0-9.161,6.161-10.8,6.161-10.8v-5.886L92.447,121.877z"/>
	<path fill="#EFB691" d="M108.896,129.29c5.632,0.583,6.161-5.108,5.019-11.244c-0.809-4.331,4.265-10.272-2.147-15.27
		c-6.384-4.969-17.536,1.722-19.069,12.993C91.165,127.069,108.896,129.29,108.896,129.29L108.896,129.29z"/>
	<path fill="#1D2858" d="M105.745,115.187c0.753-0.528,1.589-0.917,2.509-1.139c0.446-0.111,0.92-0.25,1.422-0.167
		c0.474,0.083,0.948,0.278,1.282,0.667l-0.028,0.056l-1.31,0.027c-0.418,0.028-0.836-0.027-1.255,0
		c-0.446,0.028-0.864,0.111-1.31,0.222c-0.418,0.111-0.864,0.222-1.283,0.389L105.745,115.187z"/>
	<path fill="#1D2858" d="M110.513,116.574c0,0.75-0.585,1.333-1.338,1.333c-0.752,0-1.366-0.583-1.366-1.333
		c0-0.75,0.614-1.36,1.366-1.36C109.927,115.214,110.513,115.825,110.513,116.574L110.513,116.574z"/>
	<path fill="#1D2858" d="M107.92,122.766c0.167-0.195,0.334-0.278,0.53-0.334c0.167-0.055,0.362,0.027,0.529,0.084
		c0.363,0.055,0.725,0.139,1.087,0.25v0.082c-0.362,0.111-0.725,0.195-1.087,0.25c-0.167,0.057-0.362,0.139-0.529,0.084
		c-0.195-0.056-0.363-0.139-0.53-0.334V122.766z"/>
	<path fill="#1D2858" d="M117.427,106.025c-1.255,8.912-14.637,7.273-14.637,14.437c0,6.662,0,26.624,0,26.624l0,0
		c-4.405,0-8.475-2.305-10.789-6.024c-2.537-4.109-6.134-7.773-9.228-7.773c0,0,0-4.553,4.182-10.883
		c1.729-2.582-1.923-12.438,5.297-21.294c3.958-4.858,12.239-3.692,12.239-3.692C110.513,93.92,118.291,99.75,117.427,106.025
		L117.427,106.025z"/>
	<path fill="#EFB691" d="M116.785,190.755c-2.899-1.443-5.241-0.639-6.579,0.556c-1.255,1.776-2.342,3.248-3.318,4.081
		c-1.756,1.471-3.317,2.415-4.321,2.942c-0.78,0.389-1.394,1.055-1.784,1.888l-3.29,7.219c-0.251,0.499,0.195,1.221,0.752,1.221
		c0.697,0,1.311-0.389,1.645-0.999l1.422-2.804l-0.892,2.721c-0.167,0.444,0.251,1.027,0.697,0.972h0.195
		c0.697-0.084,1.338-0.417,1.756-1l2.732-3.72l-1.059,3.72c-0.167,0.556,0.307,1.194,0.864,1.194h0.028
		c0.641,0,1.171-0.306,1.505-0.861l2.37-4.053l1.45,3.887c0.195,0.527,0.809,0.722,1.115,0.333c0.056-0.083,0.083-0.222,0.083-0.333
		l0.223-6.746c0,0,3.792-1.139,7.75-3.776C121.218,195.614,120.159,192.421,116.785,190.755L116.785,190.755z"/>
	<path fill="#EDF5F7" d="M124.954,179.567c0,0-2.956-5.774-9.005-0.693c-3.959,3.304-3.178,8.772-5.743,12.438
		c1.338-1.194,3.68-1.999,6.579-0.556c3.374,1.666,4.433,4.858,3.346,6.44C125.093,193.892,127.965,184.509,124.954,179.567
		L124.954,179.567z"/>
	<path fill="#EFB691" d="M84.362,190.755c2.927-1.443,5.241-0.639,6.607,0.556c1.227,1.776,2.314,3.248,3.318,4.081
		c1.756,1.471,3.317,2.415,4.293,2.942c0.781,0.389,1.394,1.055,1.785,1.888l3.317,7.219c0.223,0.499-0.223,1.221-0.781,1.221
		c-0.697,0-1.282-0.389-1.617-0.999l-1.45-2.804l0.92,2.721c0.139,0.444-0.279,1.027-0.725,0.972h-0.167
		c-0.725-0.084-1.338-0.417-1.784-1l-2.732-3.72l1.06,3.72c0.167,0.556-0.307,1.194-0.836,1.194h-0.056
		c-0.613,0-1.171-0.306-1.478-0.861l-2.398-4.053l-1.421,3.887c-0.223,0.527-0.836,0.722-1.115,0.333
		c-0.084-0.083-0.112-0.222-0.112-0.333l-0.223-6.746c0,0-3.764-1.139-7.75-3.776C79.929,195.614,80.989,192.421,84.362,190.755
		L84.362,190.755z"/>
	<path fill="#EDF5F7" d="M76.221,179.567c0,0,2.927-5.774,9.005-0.693c3.931,3.304,3.15,8.772,5.743,12.438
		c-1.366-1.194-3.68-1.999-6.607-0.556c-3.373,1.666-4.433,4.858-3.345,6.44C76.054,193.892,73.183,184.509,76.221,179.567
		L76.221,179.567z"/>
	<path fill="#1D2858" d="M457.412,300.75c-11.932,0-20.825-9.272-19.934-19.85l4.182-50.777c0.14-1.583,1.979-2.805,4.099-2.805
		h23.307c2.119,0,3.959,1.222,4.099,2.805l4.182,50.777C478.238,291.477,469.345,300.75,457.412,300.75L457.412,300.75z"/>
	<path fill="#0C6AA7" d="M476.648,272.405l-3.484-42.282c-0.14-1.583-1.979-2.805-4.099-2.805h-15.808v32.704
		c0,6.83,5.576,12.383,12.435,12.383H476.648z"/>
	<path fill="#E28625" d="M481.556,173.931c-0.753-0.777-2.453-0.777-4.517,0.028c-2.258,0.833-4.628,2.442-6.747,4.553
		c-3.094,3.082-4.153,6.857-4.851,9.384c-0.335,1.166-0.613,2.138-0.948,2.498l-0.418,0.417c-0.278,0.277-0.558,0.555-0.836,0.833
		c-0.697,0.666-1.395,1.388-2.008,2.109c-1.784,2.027-3.122,4.47-3.931,7.052c-0.056,0.167-0.084,0.361-0.14,0.527v-20.321
		c0-0.056,0-0.084,0-0.14c0.084-0.749,0.224-1.471,0.446-2.192c0.446-1.416,1.171-2.776,2.146-3.887
		c0.362-0.417,0.753-0.806,1.144-1.194c0.167-0.166,0.334-0.333,0.501-0.5l0.251-0.249c0.614-0.611,1.59-1.027,2.677-1.5
		c1.282-0.555,2.844-1.249,4.461-2.498c1.784-1.36,2.899-3.082,2.982-4.581c0.057-0.639-0.111-1.193-0.474-1.555
		c-0.558-0.555-1.673-0.61-2.983-0.222c-1.394,0.444-2.843,1.388-4.098,2.609c-1.84,1.86-2.342,4.22-2.677,5.803
		c-0.14,0.61-0.278,1.276-0.418,1.415l-0.251,0.25c-0.167,0.167-0.334,0.333-0.502,0.5c-0.39,0.389-0.809,0.805-1.171,1.222
		c-0.864,0.999-1.562,2.165-2.035,3.415v-6.524c0-1.638,0.586-3.359,1.227-5.33c0.781-2.332,1.673-4.998,2.063-8.468
		c0.529-4.858-0.642-8.079-1.896-9.467c-0.558-0.611-1.171-0.916-1.757-0.916c-2.23,0-4.712,4.857-4.712,11.41
		c0,4.441,1.924,7.968,3.206,10.271c0.613,1.083,1.115,1.999,1.115,2.499v9.661c-0.502-1.416-1.254-2.776-2.258-3.914
		c-0.391-0.473-0.809-0.861-1.199-1.277c-0.167-0.167-0.334-0.306-0.501-0.472l-0.251-0.25c-0.642-0.639-1.032-1.583-1.534-2.693
		c-0.529-1.249-1.227-2.832-2.48-4.441c-1.366-1.749-3.095-2.888-4.601-2.971c-0.641-0.056-1.198,0.139-1.561,0.472
		c-0.558,0.556-0.642,1.666-0.224,2.971c0.446,1.388,1.366,2.832,2.621,4.081c1.84,1.832,4.237,2.332,5.799,2.665
		c0.641,0.139,1.282,0.277,1.449,0.444l0.251,0.222c0.167,0.194,0.335,0.333,0.502,0.5c0.391,0.389,0.78,0.805,1.171,1.222
		c1.031,1.193,1.813,2.609,2.286,4.137c0.223,0.749,0.362,1.526,0.446,2.304c0.056,0.583,0.056,1.166,0.056,1.749
		c0,0.223,0,0.417,0,0.639h0.027v13.798c-0.056-0.222-0.111-0.472-0.194-0.666c-0.809-2.721-2.23-5.275-4.071-7.413
		c-0.669-0.777-1.394-1.471-2.063-2.138c-0.279-0.277-0.558-0.555-0.836-0.832l-0.446-0.444c-1.115-1.11-1.896-2.721-2.816-4.554
		c-1.06-2.165-2.286-4.608-4.433-7.301c-2.955-3.665-5.994-5.081-7.861-5.191c-0.837-0.056-1.506,0.166-1.952,0.583
		c-1.561,1.582,0.084,6.69,4.628,11.216c3.067,3.081,6.887,4.137,9.424,4.858c1.143,0.305,2.146,0.583,2.48,0.916l0,0l0.446,0.444
		c0.279,0.277,0.558,0.555,0.837,0.833c0.669,0.666,1.365,1.36,2.007,2.082c1.784,2.082,3.15,4.553,3.959,7.135
		c0.39,1.305,0.669,2.665,0.78,4.025c0.111,0.999,0.084,2.026,0.084,2.998c0,0.361,0,0.722,0,1.083h0.027v6.635
		c-0.585-1.721-1.505-3.358-2.676-4.719c-0.475-0.556-0.948-1.027-1.422-1.5c-0.195-0.194-0.391-0.36-0.586-0.555l-0.278-0.306
		c-0.753-0.722-1.144-1.915-1.617-3.304c-0.529-1.582-1.199-3.554-2.593-5.497c-1.366-1.888-3.206-3.081-5.019-3.22
		c-1.06-0.084-2.007,0.194-2.593,0.777c-0.752,0.749-1.003,2.165-0.669,3.803c0.362,1.777,1.366,3.554,2.844,4.997
		c2.146,2.166,5.214,2.443,7.249,2.638c0.78,0.083,1.673,0.167,1.867,0.333l0.279,0.306c0.195,0.194,0.391,0.361,0.585,0.556
		c0.446,0.472,0.921,0.943,1.366,1.443c1.227,1.416,2.146,3.109,2.704,4.886c0.279,0.861,0.446,1.805,0.53,2.749
		c0.027,0.056,0,0.11,0.027,0.194c-0.027,0.444-0.027,0.888-0.027,1.332c0,0.25,0,0.5,0,0.75h0.027v7.356h0.753v-6.856h0.028
		c0-0.25,0-0.5,0-0.75c0-0.5,0-1.055-0.028-1.61v-0.472c0-0.111,0-0.25,0.028-0.361c0.083-0.888,0.251-1.749,0.502-2.582
		c0.502-1.638,1.365-3.22,2.509-4.524c0.391-0.473,0.864-0.917,1.338-1.389c0.195-0.194,0.391-0.389,0.558-0.583l0.307-0.277
		c0.725-0.75,1.924-1.139,3.318-1.61c1.589-0.527,3.568-1.193,5.52-2.582c1.896-1.388,3.095-3.192,3.234-4.997
		c0.083-1.055-0.195-1.999-0.781-2.582c-1.561-1.526-5.743-0.916-8.838,2.166c-2.146,2.138-2.453,5.191-2.648,7.218
		c-0.083,0.777-0.167,1.666-0.334,1.86l-0.307,0.277c-0.195,0.194-0.362,0.389-0.558,0.583c-0.474,0.444-0.948,0.916-1.366,1.416
		c-1.087,1.249-1.924,2.721-2.481,4.303v-5.108h0.028c0-0.36,0-0.722,0-1.082c0-1,0-1.972,0.083-2.915
		c0.112-1.305,0.362-2.582,0.753-3.831c0.753-2.472,2.063-4.831,3.764-6.802c0.613-0.694,1.311-1.389,1.979-2.055
		c0.279-0.277,0.558-0.556,0.837-0.833l0.418-0.416l0,0c1.115-1.139,2.732-1.916,4.572-2.805c2.174-1.082,4.628-2.276,7.332-4.441
		c3.708-2.943,5.13-5.969,5.213-7.829C482.197,175.014,482.002,174.348,481.556,173.931L481.556,173.931z"/>
	<path fill="#1D2858" d="M32.925,300.75c11.933,0,20.826-9.272,19.961-19.85l-4.209-50.777c-0.14-1.583-1.979-2.805-4.098-2.805
		H21.271c-2.119,0-3.959,1.222-4.098,2.805L12.992,280.9C12.099,291.477,20.993,300.75,32.925,300.75L32.925,300.75z"/>
	<path fill="#0C6AA7" d="M13.688,272.405l3.485-42.282c0.139-1.583,1.979-2.805,4.098-2.805h15.808v32.704
		c0,6.83-5.576,12.383-12.434,12.383H13.688z"/>
	<path fill="#E28625" d="M8.782,173.931c0.781-0.777,2.453-0.777,4.544,0.028c2.23,0.833,4.6,2.442,6.719,4.553
		c3.095,3.082,4.154,6.857,4.851,9.384c0.334,1.166,0.613,2.138,0.948,2.498l0.446,0.417c0.25,0.277,0.529,0.555,0.808,0.833
		c0.697,0.666,1.394,1.388,2.035,2.109c1.756,2.027,3.095,4.47,3.903,7.052c0.056,0.167,0.083,0.361,0.139,0.527v-20.321
		c0-0.056,0-0.084,0-0.14c-0.083-0.749-0.223-1.471-0.446-2.192c-0.418-1.416-1.171-2.776-2.147-3.887
		c-0.362-0.417-0.725-0.806-1.143-1.194c-0.167-0.166-0.334-0.333-0.501-0.5l-0.223-0.249c-0.641-0.611-1.589-1.027-2.704-1.5
		c-1.255-0.555-2.844-1.249-4.461-2.498c-1.784-1.36-2.899-3.082-2.983-4.581c-0.056-0.639,0.111-1.193,0.474-1.555
		c0.558-0.555,1.673-0.61,2.983-0.222c1.394,0.444,2.844,1.388,4.098,2.609c1.84,1.86,2.342,4.22,2.676,5.803
		c0.14,0.61,0.279,1.276,0.446,1.415l0.251,0.25c0.139,0.167,0.307,0.333,0.474,0.5c0.391,0.389,0.809,0.805,1.171,1.222
		c0.864,0.999,1.562,2.165,2.035,3.415v-6.524c0-1.638-0.585-3.359-1.227-5.33c-0.781-2.332-1.673-4.998-2.063-8.468
		c-0.53-4.858,0.641-8.079,1.896-9.467c0.557-0.611,1.171-0.916,1.756-0.916c2.23,0,4.711,4.857,4.711,11.41
		c0,4.441-1.924,7.968-3.206,10.271c-0.613,1.083-1.115,1.999-1.115,2.499v9.661c0.502-1.416,1.282-2.776,2.258-3.914
		c0.39-0.473,0.809-0.861,1.199-1.277c0.167-0.167,0.334-0.306,0.502-0.472l0.25-0.25c0.642-0.639,1.06-1.583,1.534-2.693
		c0.558-1.249,1.227-2.832,2.481-4.441c1.366-1.749,3.095-2.888,4.6-2.971c0.641-0.056,1.199,0.139,1.562,0.472
		c0.558,0.556,0.641,1.666,0.223,2.971c-0.446,1.388-1.366,2.832-2.621,4.081c-1.84,1.832-4.237,2.332-5.799,2.665
		c-0.641,0.139-1.282,0.277-1.45,0.444l-0.251,0.222c-0.167,0.194-0.334,0.333-0.501,0.5c-0.391,0.389-0.781,0.805-1.171,1.222
		c-1.032,1.193-1.813,2.609-2.258,4.137c-0.251,0.749-0.391,1.526-0.474,2.304c-0.056,0.583-0.056,1.166-0.056,1.749
		c0,0.223,0,0.417,0,0.639h-0.028v13.798c0.056-0.222,0.111-0.472,0.195-0.666c0.808-2.721,2.23-5.275,4.07-7.413
		c0.669-0.777,1.394-1.471,2.063-2.138c0.279-0.277,0.558-0.555,0.836-0.832l0.446-0.444c1.115-1.11,1.896-2.721,2.816-4.554
		c1.06-2.165,2.286-4.608,4.433-7.301c2.956-3.665,5.994-5.081,7.862-5.191c0.836-0.056,1.506,0.166,1.952,0.583
		c1.562,1.582-0.083,6.69-4.6,11.216c-3.094,3.081-6.914,4.137-9.451,4.858c-1.143,0.305-2.147,0.583-2.481,0.916l0,0l-0.446,0.444
		c-0.279,0.277-0.558,0.555-0.836,0.833c-0.669,0.666-1.366,1.36-2.007,2.082c-1.784,2.082-3.15,4.553-3.959,7.135
		c-0.39,1.305-0.669,2.665-0.781,4.025c-0.083,0.999-0.083,2.026-0.083,2.998c0,0.361,0,0.722,0,1.083h-0.028v6.635
		c0.585-1.721,1.505-3.358,2.704-4.719c0.446-0.556,0.948-1.027,1.394-1.5c0.195-0.194,0.39-0.36,0.585-0.555l0.279-0.306
		c0.753-0.722,1.143-1.915,1.617-3.304c0.53-1.582,1.199-3.554,2.593-5.497c1.394-1.888,3.206-3.081,5.046-3.22
		c1.032-0.084,1.979,0.194,2.565,0.777c0.753,0.749,1.003,2.165,0.669,3.803c-0.362,1.777-1.366,3.554-2.844,4.997
		c-2.146,2.166-5.213,2.443-7.249,2.638c-0.78,0.083-1.672,0.167-1.868,0.333l-0.279,0.306c-0.195,0.194-0.39,0.361-0.585,0.556
		c-0.446,0.472-0.92,0.943-1.366,1.443c-1.227,1.416-2.146,3.109-2.704,4.886c-0.279,0.861-0.446,1.805-0.53,2.749
		c0,0.056,0,0.11-0.028,0.194c0.028,0.444,0.028,0.888,0.028,1.332c0,0.25,0,0.5,0,0.75h-0.028v7.356h-0.753v-6.856h-0.028
		c0-0.25,0-0.5,0-0.75c0-0.5,0-1.055,0.028-1.61v-0.472c0-0.111,0-0.25-0.028-0.361c-0.083-0.888-0.251-1.749-0.502-2.582
		c-0.501-1.638-1.366-3.22-2.509-4.524c-0.391-0.473-0.864-0.917-1.338-1.389c-0.195-0.194-0.362-0.389-0.558-0.583l-0.307-0.277
		c-0.725-0.75-1.923-1.139-3.317-1.61c-1.589-0.527-3.569-1.193-5.52-2.582c-1.896-1.388-3.095-3.192-3.234-4.997
		c-0.083-1.055,0.195-1.999,0.809-2.582c1.534-1.526,5.715-0.916,8.81,2.166c2.174,2.138,2.453,5.191,2.648,7.218
		c0.083,0.777,0.167,1.666,0.334,1.86l0.307,0.277c0.195,0.194,0.362,0.389,0.558,0.583c0.474,0.444,0.948,0.916,1.366,1.416
		c1.087,1.249,1.923,2.721,2.481,4.303v-5.108h-0.028c0-0.36,0-0.722,0-1.082c0-1,0-1.972-0.083-2.915
		c-0.111-1.305-0.362-2.582-0.753-3.831c-0.752-2.472-2.063-4.831-3.764-6.802c-0.613-0.694-1.31-1.389-1.979-2.055
		c-0.278-0.277-0.557-0.556-0.836-0.833l-0.418-0.416l0,0c-1.115-1.139-2.732-1.916-4.572-2.805
		c-2.174-1.082-4.628-2.276-7.332-4.441c-3.68-2.943-5.13-5.969-5.213-7.829C8.141,175.014,8.335,174.348,8.782,173.931
		L8.782,173.931z"/>
	<path fill="#E28625" d="M419.162,55.192c0,16.324-13.271,29.567-29.663,29.567c-16.394,0-29.691-13.243-29.691-29.567
		s13.298-29.539,29.691-29.539C405.892,25.653,419.162,38.868,419.162,55.192L419.162,55.192z"/>
	<path fill="#F0EDEE" d="M412.834,55.192c0,12.854-10.455,23.265-23.335,23.265c-12.908,0-23.363-10.411-23.363-23.265
		c0-12.826,10.455-23.237,23.363-23.237C402.379,31.955,412.834,42.366,412.834,55.192L412.834,55.192z"/>
	
		<image overflow="visible" width="151" height="151" xlink:href="47B077DF.jpg"  transform="matrix(0.242 0 0 -0.241 365.4951 67.6851)">
	</image>
	<path fill="#E28625" d="M389.359,56.885c-0.167-1.666-0.307-3.331-0.474-4.997c-0.14-1.666-0.251-3.332-0.335-4.997
		c-0.111-1.666-0.418-3.332-0.251-4.998c0.167-1.666,0.418-3.331,1.06-4.997h0.251c0.642,1.666,0.892,3.332,1.06,4.997
		c0.167,1.666-0.14,3.332-0.224,4.998c-0.111,1.666-0.223,3.332-0.362,4.997c-0.167,1.666-0.278,3.332-0.474,4.997H389.359z"/>
	<path fill="#E28625" d="M390.697,53.887c-0.669,1.138-1.394,2.249-2.091,3.359c-0.725,1.138-1.449,2.221-2.202,3.331
		c-0.725,1.083-1.311,2.305-2.286,3.221c-0.446,0.472-0.948,0.916-1.506,1.333c-0.529,0.417-1.115,0.777-1.784,1.083l-0.195-0.139
		c0.14-0.722,0.391-1.36,0.67-1.971c0.278-0.638,0.613-1.221,0.976-1.777c0.696-1.138,1.756-1.971,2.648-2.942
		c0.892-0.972,1.812-1.916,2.76-2.86c0.948-0.916,1.868-1.888,2.844-2.804L390.697,53.887z"/>
	<polygon fill-rule="evenodd" clip-rule="evenodd" fill="#D77F68" points="298.418,124.792 288.298,124.792 288.298,135.981 
		292.313,135.981 298.418,133.592 	"/>
	<path fill-rule="evenodd" clip-rule="evenodd" fill="#D77F68" d="M281.467,110.522c-0.083,0.027-0.167,0.027-0.25,0.055l0,0l0,0
		c-1.617,0.361-2.816,1.749-2.816,3.443c-0.027,1.971,1.533,3.581,3.513,3.609c1.979,0,3.597-1.555,3.624-3.526
		c0-1.138-0.501-2.166-1.338-2.832c0.084,1.055-0.056,2.36-1.422,2.499l0.028-2.055
		C282.833,110.883,282.053,110.522,281.467,110.522L281.467,110.522z"/>
	<path fill-rule="evenodd" clip-rule="evenodd" fill="#D77F68" d="M305.025,110.522c0.083,0.027,0.167,0.027,0.251,0.055l0,0l0,0
		c1.589,0.306,2.815,1.694,2.871,3.387c0.056,1.971-1.506,3.609-3.484,3.665c-1.979,0.028-3.625-1.499-3.681-3.47
		c-0.027-1.138,0.502-2.166,1.311-2.859c-0.084,1.055,0.111,2.359,1.449,2.471l-0.056-2.027
		C303.659,110.911,304.439,110.522,305.025,110.522L305.025,110.522z"/>
	<path fill-rule="evenodd" clip-rule="evenodd" fill="#E7AE83" d="M293.26,128.346c6.663,0,12.239-8.19,12.239-14.659v-8.606
		c0-6.691-5.492-12.16-12.239-12.16l0,0c-6.719,0-12.238,5.469-12.238,12.16v8.412C281.021,120.6,285.872,128.346,293.26,128.346
		L293.26,128.346z"/>
	<path fill-rule="evenodd" clip-rule="evenodd" fill="#D8776E" d="M286.709,116.103c0.947,0,1.672,0.777,1.672,1.693
		c-0.027,0.944-0.809,1.693-1.729,1.666c-0.947,0-1.672-0.777-1.672-1.722C285.008,116.824,285.761,116.075,286.709,116.103
		L286.709,116.103z"/>
	<path fill-rule="evenodd" clip-rule="evenodd" fill="#D8776E" d="M299.896,116.353c0.92,0.027,1.673,0.805,1.645,1.721
		c0,0.944-0.78,1.666-1.729,1.666c-0.92-0.028-1.673-0.777-1.645-1.721C298.167,117.074,298.947,116.353,299.896,116.353
		L299.896,116.353z"/>
	<path fill-rule="evenodd" clip-rule="evenodd" fill="#14171E" d="M297.33,107.246c-0.251,0.111-0.362,0.417-0.251,0.667
		c0.112,0.278,0.419,0.389,0.67,0.278c0,0,1.561-0.75,3.038,0.194c0.224,0.139,0.558,0.055,0.697-0.167
		c0.14-0.25,0.084-0.555-0.167-0.722C299.365,106.274,297.33,107.246,297.33,107.246L297.33,107.246z"/>
	<path fill-rule="evenodd" clip-rule="evenodd" fill="#14171E" d="M285.23,107.468c-0.25,0.139-0.334,0.444-0.194,0.694
		c0.139,0.25,0.445,0.333,0.696,0.194c0,0,1.478-0.833,3.039-0.028c0.251,0.111,0.558,0.028,0.669-0.222
		c0.14-0.25,0.056-0.555-0.195-0.694C287.183,106.358,285.23,107.468,285.23,107.468L285.23,107.468z"/>
	<path fill-rule="evenodd" clip-rule="evenodd" fill="#EBBF9E" d="M292.926,114.52c-0.224,0.611-0.613,1.721-0.586,1.916
		c0.056,0.25,1.395,0.5,1.757,0.139c0.251-0.222-0.056-1.221-0.307-1.888C293.428,113.743,293.232,113.687,292.926,114.52
		L292.926,114.52z"/>
	<path fill-rule="evenodd" clip-rule="evenodd" fill="#14171E" d="M290.695,119.018c0,1.417,1.143,2.554,2.564,2.554
		s2.565-1.138,2.565-2.554c0-0.25-0.195-0.472-0.475-0.472h-4.182C290.918,118.545,290.695,118.768,290.695,119.018L290.695,119.018
		z"/>
	<path fill-rule="evenodd" clip-rule="evenodd" fill="#FFFFFF" d="M295.1,118.545h-3.68v0.444c0,0.222,0.195,0.389,0.418,0.389
		h2.844c0.224,0,0.418-0.167,0.418-0.389V118.545z"/>
	<path fill-rule="evenodd" clip-rule="evenodd" fill="#D36171" d="M291.393,120.794c0.474,0.472,1.143,0.777,1.867,0.777
		c0.726,0,1.395-0.306,1.868-0.777c-0.474-0.5-1.143-0.805-1.868-0.805C292.535,119.989,291.866,120.294,291.393,120.794
		L291.393,120.794z"/>
	<path fill-rule="evenodd" clip-rule="evenodd" fill="#14171E" d="M299.254,114.076c0.809,0,1.478-0.638,1.478-1.471
		c0-0.805-0.669-1.444-1.478-1.444s-1.478,0.639-1.478,1.444C297.776,113.438,298.445,114.076,299.254,114.076L299.254,114.076z"/>
	<path fill-rule="evenodd" clip-rule="evenodd" fill="#14171E" d="M287.294,114.076c0.809,0,1.45-0.638,1.45-1.471
		c0-0.805-0.642-1.444-1.45-1.444c-0.836,0-1.478,0.639-1.478,1.444C285.816,113.438,286.458,114.076,287.294,114.076
		L287.294,114.076z"/>
	<path fill-rule="evenodd" clip-rule="evenodd" fill="#14171E" d="M281.021,113.326l1.198-4.775c0,0,3.792-2.776,2.454-6.663
		c-1.366-3.859-1.617-3.47-1.617-3.47s-5.074,2.276-2.816,12.521L281.021,113.326z"/>
	<path fill-rule="evenodd" clip-rule="evenodd" fill="#14171E" d="M305.499,113.326l-1.171-4.775c0,0-3.819-2.776-2.453-6.663
		c1.338-3.859,1.617-3.47,1.617-3.47s5.073,2.276,2.815,12.521L305.499,113.326z"/>
	<path fill-rule="evenodd" clip-rule="evenodd" fill="#14171E" d="M284.562,106.108c5.743,0.805,13.856-6.191,16.365-5.552
		c2.844,0.722,2.259,4.081,2.259,4.081l3.122-5.164c4.433-7.329-3.039-9.134-2.704-6.302c0,0-5.13-6.913-8.392-8.19
		c-3.234-1.305-3.597,3.109-3.597,3.109C274.553,85.758,274.358,104.692,284.562,106.108L284.562,106.108z"/>
	<polygon fill="#D1C0C5" points="293.064,134.12 288.994,141.088 283.112,134.12 	"/>
	<polygon fill="#EDF5F7" points="286.987,129.762 283.112,134.12 288.8,139.422 293.064,134.12 	"/>
	<polygon fill="#D1C0C5" points="293.064,134.12 297.135,141.088 303.046,134.12 	"/>
	<polygon fill="#EDF5F7" points="299.171,129.762 303.046,134.12 297.33,139.422 293.064,134.12 	"/>
</g>
</svg>
