<?xml version="1.0" encoding="utf-8"?>
<!-- Generator: Adobe Illustrator 16.0.0, SVG Export Plug-In . SVG Version: 6.00 Build 0)  -->
<!DOCTYPE svg PUBLIC "-//W3C//DTD SVG 1.1//EN" "http://www.w3.org/Graphics/SVG/1.1/DTD/svg11.dtd">
<svg version="1.1" id="Layer_1" xmlns="http://www.w3.org/2000/svg" xmlns:xlink="http://www.w3.org/1999/xlink" x="0px" y="0px"
	 width="227.577px" height="211.16px" viewBox="0 0 227.577 211.16" enable-background="new 0 0 227.577 211.16"
	 xml:space="preserve">
<g>
	<path fill="#F5F7FC" d="M203.88,39.145H25.398V27.624c0-5.747,4.711-10.438,10.51-10.438h160.166c4.321,0,7.806,3.47,7.806,7.773
		V39.145z"/>
	<path fill="#5A72B7" d="M172.07,39.145H57.236v-3.692c0-5.775,4.684-10.439,10.482-10.439h96.545c4.293,0,7.807,3.471,7.807,7.773
		V39.145z"/>
	<path fill="#7587C3" d="M121.357,0h-13.8C88.851,0,73.685,15.103,73.685,33.731c0,2.665,2.202,4.858,4.907,4.858h71.733
		c2.704,0,4.906-2.193,4.906-4.858C155.23,15.103,140.064,0,121.357,0L121.357,0z"/>
	<path fill="#F5F7FC" d="M116.479,7.773h-4.042c-16.867,0-30.528,13.604-30.528,30.4v0.417h65.098v-0.417
		C147.007,21.377,133.346,7.773,116.479,7.773L116.479,7.773z"/>
	<rect x="22.61" y="78.207" fill="#BDC4E4" width="182.357" height="120.434"/>
	<path fill="#5A72B7" d="M34.458,122.46H22.917c-0.362,0-0.641-0.307-0.641-0.639v-4.414c0-0.361,0.279-0.639,0.641-0.639h11.542
		c0.362,0,0.641,0.277,0.641,0.639v4.414C35.1,122.154,34.821,122.46,34.458,122.46L34.458,122.46z M23,121.738L23,121.738h11.375
		v-4.248H23V121.738z"/>
	<path fill="#5A72B7" d="M28.715,117.49h-5.91c-0.195,0-0.362-0.166-0.362-0.361c0-0.193,0.167-0.359,0.362-0.359h5.827v-4.221
		h-5.771c-0.195,0-0.362-0.166-0.362-0.389c0-0.193,0.167-0.361,0.362-0.361h5.854c0.363,0,0.642,0.307,0.642,0.639v4.414
		C29.357,117.212,29.078,117.49,28.715,117.49L28.715,117.49z M28.715,112.548L28.715,112.548h0.028H28.715z"/>
	<path fill="#5A72B7" d="M28.715,127.429h-5.91c-0.195,0-0.362-0.166-0.362-0.361c0-0.223,0.167-0.389,0.362-0.389h5.827v-4.219
		h-5.771c-0.195,0-0.362-0.168-0.362-0.361c0-0.195,0.167-0.361,0.362-0.361h5.854c0.363,0,0.642,0.277,0.642,0.639v4.414
		C29.357,127.152,29.078,127.429,28.715,127.429L28.715,127.429z M28.715,122.46L28.715,122.46h0.028H28.715z"/>
	<path fill="#5A72B7" d="M204.466,187.201h-11.515c-0.362,0-0.642-0.277-0.642-0.639v-4.385c0-0.361,0.279-0.668,0.642-0.668h11.515
		c0.362,0,0.669,0.307,0.669,0.668v4.385C205.135,186.923,204.828,187.201,204.466,187.201L204.466,187.201z M193.035,186.48
		L193.035,186.48h11.347v-4.221h-11.347V186.48z M204.466,182.259L204.466,182.259h0.027H204.466z"/>
	<path fill="#5A72B7" d="M204.549,192.171h-5.882c-0.335,0-0.642-0.277-0.642-0.639v-4.414c0-0.361,0.307-0.639,0.642-0.639h5.938
		c0.195,0,0.362,0.166,0.362,0.361c0,0.193-0.167,0.359-0.362,0.359h-5.826v4.248h5.771c0.195,0,0.362,0.166,0.362,0.361
		C204.911,192.003,204.744,192.171,204.549,192.171L204.549,192.171z"/>
	<path fill="#5A72B7" d="M204.549,182.232h-5.882c-0.335,0-0.642-0.277-0.642-0.611v-4.441c0-0.334,0.307-0.639,0.642-0.639h5.938
		c0.195,0,0.362,0.166,0.362,0.389c0,0.195-0.167,0.361-0.362,0.361h-5.826v4.219h5.771c0.195,0,0.362,0.168,0.362,0.361
		C204.911,182.093,204.744,182.232,204.549,182.232L204.549,182.232z"/>
	<path fill="#5A72B7" d="M132.147,188.728h-11.515c-0.362,0-0.642-0.305-0.642-0.666v-4.387c0-0.361,0.279-0.639,0.642-0.639h11.515
		c0.362,0,0.669,0.277,0.669,0.639v4.387C132.816,188.423,132.51,188.728,132.147,188.728L132.147,188.728z M120.717,187.978
		L120.717,187.978h11.347v-4.219h-11.347V187.978z M132.147,183.759L132.147,183.759h0.027H132.147z"/>
	<path fill="#5A72B7" d="M138.002,183.648h-11.515c-0.362,0-0.669-0.277-0.669-0.639v-4.387c0-0.361,0.307-0.666,0.669-0.666h11.515
		c0.362,0,0.641,0.305,0.641,0.666v4.387C138.643,183.371,138.364,183.648,138.002,183.648L138.002,183.648z M126.571,182.925
		L126.571,182.925h11.347v-4.219h-11.347V182.925z M138.002,178.707L138.002,178.707L138.002,178.707L138.002,178.707z"/>
	<path fill="#5A72B7" d="M137.89,193.669h-11.514c-0.362,0-0.669-0.277-0.669-0.639v-4.387c0-0.359,0.307-0.666,0.669-0.666h11.514
		c0.363,0,0.67,0.307,0.67,0.666v4.387C138.56,193.392,138.253,193.669,137.89,193.669L137.89,193.669z M126.46,192.949
		L126.46,192.949h11.347v-4.221H126.46V192.949z M137.89,188.728L137.89,188.728h0.028H137.89z"/>
	<path fill="#5A72B7" d="M197.105,96.113h-11.515c-0.362,0-0.641-0.277-0.641-0.639V91.06c0-0.333,0.278-0.639,0.641-0.639h11.515
		c0.362,0,0.669,0.306,0.669,0.639v4.414C197.774,95.835,197.468,96.113,197.105,96.113L197.105,96.113z M185.675,95.391
		L185.675,95.391h11.347v-4.247h-11.347V95.391z"/>
	<path fill="#5A72B7" d="M191.278,101.194h-11.542c-0.362,0-0.641-0.306-0.641-0.667v-4.386c0-0.361,0.278-0.639,0.641-0.639h11.542
		c0.335,0,0.642,0.277,0.642,0.639v4.386C191.92,100.888,191.613,101.194,191.278,101.194L191.278,101.194z M179.82,100.444
		L179.82,100.444h11.375v-4.22H179.82V100.444z"/>
	<path fill="#5A72B7" d="M191.362,91.144h-11.514c-0.363,0-0.642-0.277-0.642-0.639v-4.387c0-0.361,0.278-0.666,0.642-0.666h11.514
		c0.362,0,0.669,0.305,0.669,0.666v4.387C192.031,90.867,191.725,91.144,191.362,91.144L191.362,91.144z M179.932,90.421
		L179.932,90.421h11.375v-4.219h-11.375V90.421z"/>
	<path fill="#8296CC" d="M207.811,211.16H19.766c-1.561,0-2.843-1.277-2.843-2.832v-7.355c0-1.555,1.282-2.832,2.843-2.832h188.044
		c1.59,0,2.844,1.277,2.844,2.832v7.355C210.654,209.882,209.4,211.16,207.811,211.16L207.811,211.16z"/>
	<path fill="#5A72B7" d="M209.79,211.16H17.787c-0.474,0-0.864-0.389-0.864-0.859v-2.889c0-0.471,0.39-0.859,0.864-0.859H209.79
		c0.475,0,0.864,0.389,0.864,0.859v2.889C210.654,210.771,210.265,211.16,209.79,211.16L209.79,211.16z"/>
	<rect x="97.688" y="45.697" fill="#F5F7FC" width="32.507" height="34.176"/>
	<polygon fill="#5A72B7" points="97.688,79.873 65.209,79.873 68.833,45.697 97.688,45.697 	"/>
	<polygon fill="#F5F7FC" points="64.708,79.873 32.229,79.873 35.853,45.697 68.332,45.697 	"/>
	<polygon fill="#5A72B7" points="32.786,79.873 0.307,79.873 10.706,45.697 36.41,45.697 	"/>
	<path fill="#7587C3" d="M32.284,80.066c0,5.331-7.221,9.689-16.142,9.689S0,85.397,0,80.066H32.284z"/>
	<path fill="#FFFFFF" d="M64.624,80.066c0,5.331-7.221,9.689-16.142,9.689c-8.894,0-16.114-4.358-16.114-9.689H64.624z"/>
	<path fill="#7587C3" d="M97.131,80.066c0,5.331-7.221,9.689-16.142,9.689s-16.142-4.358-16.142-9.689H97.131z"/>
	<polygon fill="#5A72B7" points="129.889,79.873 162.396,79.873 158.771,45.697 129.889,45.697 	"/>
	<polygon fill="#F5F7FC" points="162.87,79.873 195.377,79.873 191.753,45.697 159.245,45.697 	"/>
	<polygon fill="#5A72B7" points="194.791,79.873 227.271,79.873 216.899,45.697 191.167,45.697 	"/>
	<path fill="#7587C3" d="M195.293,80.066c0,5.331,7.249,9.689,16.143,9.689c8.921,0,16.142-4.358,16.142-9.689H195.293z"/>
	<path fill="#FFFFFF" d="M162.953,80.066c0,5.331,7.221,9.689,16.143,9.689c8.921,0,16.142-4.358,16.142-9.689H162.953z"/>
	<path fill="#7587C3" d="M130.475,80.066c0,5.331,7.221,9.689,16.142,9.689c8.894,0,16.142-4.358,16.142-9.689H130.475z"/>
	<path fill="#FFFFFF" d="M129.471,80.066c0,5.331-7.221,9.689-16.142,9.689c-8.894,0-16.142-4.358-16.142-9.689H129.471z"/>
	<path fill="#9EAAD6" d="M214.78,47.418H13.828c-2.704,0-4.879-2.193-4.879-4.858v-0.583c0-2.693,2.175-4.858,4.879-4.858H214.78
		c2.705,0,4.879,2.166,4.879,4.858v0.583C219.659,45.225,217.485,47.418,214.78,47.418L214.78,47.418z"/>
	<path fill="#7587C3" d="M105.048,187.978H42.432c-1.004,0-1.84-0.805-1.84-1.832V96.751c0-1.027,0.836-1.859,1.84-1.859h62.616
		c1.032,0,1.868,0.832,1.868,1.859v89.395C106.917,187.173,106.08,187.978,105.048,187.978L105.048,187.978z"/>
	<rect x="47.534" y="100.694" fill="#F5F7FC" width="53.026" height="30.179"/>
	
		<image overflow="visible" width="166" height="130" xlink:href="7DF0CCC5.jpg"  transform="matrix(0.2434 0 0 -0.2407 61.1387 131.1206)">
	</image>
	
		<image overflow="visible" width="158" height="130" xlink:href="7DF0CCC7.jpg"  transform="matrix(0.2394 0 0 -0.2407 46.3906 131.1206)">
	</image>
	<rect x="47.534" y="139.839" fill="#F5F7FC" width="53.026" height="42.197"/>
	
		<image overflow="visible" width="166" height="179" xlink:href="7DF0CCC2.jpg"  transform="matrix(0.2434 0 0 -0.239 61.1387 181.5659)">
	</image>
	
		<image overflow="visible" width="158" height="179" xlink:href="7DF0CCC3.jpg"  transform="matrix(0.2394 0 0 -0.239 46.3906 181.5659)">
	</image>
	<path fill="#5A72B7" d="M112.548,197.89h-77.56c-1.087,0-1.979-0.889-1.979-1.971v-6.109c0-1.082,0.892-1.943,1.979-1.943h77.56
		c1.088,0,1.951,0.861,1.951,1.943v6.109C114.499,197.001,113.636,197.89,112.548,197.89L112.548,197.89z"/>
	<path fill="#BDC4E4" d="M86.955,120.349H60.804c-0.446,0-0.836-0.361-0.836-0.832v-6.996c0-0.473,0.391-0.861,0.836-0.861h26.151
		c0.474,0,0.864,0.389,0.864,0.861v6.996C87.819,119.988,87.429,120.349,86.955,120.349L86.955,120.349z"/>
	<path fill="#7587C3" d="M189.16,169.683h-66.854c-1.338,0-2.426-1.082-2.426-2.416v-60.743c0-1.333,1.088-2.415,2.426-2.415h66.854
		c1.365,0,2.425,1.082,2.425,2.415v60.743C191.585,168.601,190.525,169.683,189.16,169.683L189.16,169.683z"/>
	<path fill="#5A72B7" d="M194.206,173.458h-75.469c-0.864,0-1.533-0.693-1.533-1.555v-4.303c0-0.861,0.669-1.527,1.533-1.527h75.469
		c0.864,0,1.533,0.666,1.533,1.527v4.303C195.739,172.765,195.07,173.458,194.206,173.458L194.206,173.458z"/>
	<rect x="124.787" y="110.855" fill="#F5F7FC" width="61.892" height="49.611"/>
	
		<image overflow="visible" width="72" height="214" xlink:href="7DF0CCCD.jpg"  transform="matrix(0.2494 0 0 -0.2417 132.3145 161.1323)">
	</image>
	
		<image overflow="visible" width="71" height="214" xlink:href="7DF0CCCF.jpg"  transform="matrix(0.2438 0 0 -0.2417 143.8564 161.1323)">
	</image>
</g>
</svg>
