<?xml version="1.0" encoding="utf-8"?>
<!-- Generator: Adobe Illustrator 16.0.0, SVG Export Plug-In . SVG Version: 6.00 Build 0)  -->
<!DOCTYPE svg PUBLIC "-//W3C//DTD SVG 1.1//EN" "http://www.w3.org/Graphics/SVG/1.1/DTD/svg11.dtd">
<svg version="1.1" id="Layer_1" xmlns="http://www.w3.org/2000/svg" xmlns:xlink="http://www.w3.org/1999/xlink" x="0px" y="0px"
	 width="100.648px" height="352.248px" viewBox="0 0 100.648 352.248" enable-background="new 0 0 100.648 352.248"
	 xml:space="preserve">
<g>
	<path fill-rule="evenodd" clip-rule="evenodd" fill="#BBD532" d="M30.333,68.6c0,0-7.89,3.915-10.26,10.966
		c-2.342,7.024-9.897,49.778-9.897,49.778s-1.31,9.134,1.812,19.017c3.15,9.883,10.594,30.206,10.594,30.206
		s0.836,1.526,3.095,0.166c2.258-1.332,8.921-5.774,8.921-5.774l0.223-9.05l-1.031-4.525l-9.646-27.818l10.232-25.819
		C34.375,105.746,38.529,82.953,30.333,68.6L30.333,68.6z"/>
	<path fill-rule="evenodd" clip-rule="evenodd" fill="#A7C639" d="M14.859,156.912c1.422,4.165,3.011,8.606,4.377,12.382
		l8.726-26.707l-0.753-2.221l-4.07-3.442L14.859,156.912z M25.621,135.813l-1.478-4.248l4.879-12.298l2.76-40.561l-3.039-3.22
		l-9.228,46.113l-3.68,2.582l3.736-0.25L25.621,135.813z"/>
	<path fill-rule="evenodd" clip-rule="evenodd" fill="#B46E3D" d="M2.119,129.594h47.199c1.171,0,2.119,0.944,2.119,2.11v37.09
		c0,1.166-0.948,2.11-2.119,2.11H2.119c-1.171,0-2.119-0.944-2.119-2.11v-37.09C0,130.538,0.948,129.594,2.119,129.594
		L2.119,129.594z"/>
	<polygon fill-rule="evenodd" clip-rule="evenodd" fill="#884E34" points="22.833,129.594 30.193,129.594 28.437,170.904 
		9.813,170.904 	"/>
	<path fill-rule="evenodd" clip-rule="evenodd" fill="#010101" d="M75.33,154.524l1.227,4.026c0,0,3.875,2.554,4.126,3.831
		c0.251,1.305,1.366,4.109,1.729,5.969c0.362,1.888,1.924,10.66,2.537,12.077c0.613,1.388,0.391,65.88,0.391,74.042
		s0.223,7.801,0.613,14.075l0,0l-1.646,70.738c0,0,0.418,2.332-2.258,2.943c-2.648,0.61-8.782,0.166-10.622-0.223
		c-1.311-0.472-2.342-0.972-2.732-1.332c-1.227-1.027-0.864-18.573-1.087-21.238c-0.251-2.693-5.632-56.913-7.109-66.02
		c-1.478-9.105-13.939-71.654-16.142-80.538c-2.202-8.884-7.332-12.938-7.332-12.938L75.33,154.524z"/>
	<path fill-rule="evenodd" clip-rule="evenodd" fill="#010101" d="M28.019,154.108l-2.705,5.525l-0.697,8.495
		c0,0-2.955,4.664-3.485,6.08c-0.502,1.388,0.836,12.049,0.641,14.159c-0.195,2.11,9.284,89.867,10.037,106.719
		c1.06,24.264,3.987,41.615,3.819,43.254c-0.167,1.638,1.45,4.386,3.736,4.553c2.314,0.194,4.711-0.944,7.527-1.61h0.056v-0.027
		c1.115-0.278,1.171-1.666,1.171-1.666l1.311-28.956c-0.083-4.414-0.083-16.713,0.111-21.821c0.167-5.386,2.732-98.834,2.732-98.834
		l-7.443-33.426L28.019,154.108z"/>
	<path fill-rule="evenodd" clip-rule="evenodd" fill="#E39B2F" d="M23.502,166.324c0,0,14.888,3.942,32.145,2.332
		c17.257-1.61-12.769-11.854-20.965-9.023C26.485,162.492,23.502,166.324,23.502,166.324L23.502,166.324z"/>
	<path fill-rule="evenodd" clip-rule="evenodd" fill="#FFFFFF" d="M66.018,63.464l20.128,6.746c0,0-5.408,8.106-2.787,31.26
		c0,0-5.688,27.318-5.688,30.955c0,3.665,3.066,19.406,3.066,21.738c0,2.36-32.145,17.768-58.825,4.748c0,0-0.53-0.528-0.641-2.193
		c-0.14-1.693,4.628-37.313,5.408-42.254c0.781-4.941-1.31-13.409-1.31-13.409l4.962-32.01l13.939-5.747L66.018,63.464z"/>
	<polygon fill-rule="evenodd" clip-rule="evenodd" fill="#D1D9E5" points="46.893,63.297 47.06,63.297 47.06,64.242 51.911,69.96 
		64.541,64.075 64.541,63.437 64.735,63.437 66.352,65.13 57.514,77.317 51.911,69.96 46.92,77.179 44.606,64.991 	"/>
	<path fill-rule="evenodd" clip-rule="evenodd" fill="#D1D9E5" d="M39.337,163.77c-5.799-0.611-11.737-2.083-17.424-4.858
		c0,0-0.53-0.528-0.641-2.193c-0.14-1.693,4.628-37.313,5.408-42.254c0.781-4.941-1.31-13.409-1.31-13.409l4.962-32.01l13.939-5.747
		l1.143,0.028l0.362,1.583l-7.555,32.871L39.337,163.77z M81.964,108.3c-1.7,8.356-4.293,21.655-4.293,24.125
		c0,3.665,3.066,19.406,3.066,21.738c0,1.666-16.059,9.855-34.876,9.911l12.517-60.827l19.906-10.966
		C78.285,92.281,79.762,98.611,81.964,108.3L81.964,108.3z"/>
	<polygon fill-rule="evenodd" clip-rule="evenodd" fill="#CC3329" points="48.147,76.096 39.895,135.285 44.105,147.39 
		53.667,134.036 52.246,76.096 49.82,74.819 	"/>
	<path fill-rule="evenodd" clip-rule="evenodd" fill="#9E272A" d="M47.199,71.459l0.948,4.637h4.099l4.07-5.803l-4.21-4.47
		c0,0-3.345,1.722-3.541,2.443C48.398,68.989,47.199,71.459,47.199,71.459L47.199,71.459z"/>
	<polygon fill-rule="evenodd" clip-rule="evenodd" fill="#D77F68" points="64.234,48.972 46.753,48.972 46.753,68.267 
		53.695,68.267 64.234,64.186 	"/>
	<polygon fill-rule="evenodd" clip-rule="evenodd" fill="#FFFFFF" points="51.604,68.267 46.753,62.576 46.753,61.521 
		44.272,63.297 46.614,75.485 51.604,68.267 57.18,75.652 66.018,63.464 64.234,61.548 64.234,62.409 	"/>
	<path fill-rule="evenodd" clip-rule="evenodd" fill="#D77F68" d="M38.445,35.896c-0.14,0-0.251,0.028-0.362,0.056l0,0
		c-2.23,0.472-3.903,2.416-3.931,4.775c-0.028,2.721,2.175,4.97,4.907,4.998c2.76,0.028,5.018-2.138,5.046-4.886
		c0-1.583-0.725-2.999-1.868-3.915c0.111,1.444-0.083,3.248-1.952,3.442l0.028-2.832C40.313,36.368,39.226,35.841,38.445,35.896
		L38.445,35.896z"/>
	<path fill-rule="evenodd" clip-rule="evenodd" fill="#D77F68" d="M71.175,35.868c0.14,0.028,0.251,0.056,0.362,0.056v0.028
		c2.23,0.444,3.931,2.36,3.987,4.72c0.083,2.721-2.092,4.997-4.852,5.053c-2.732,0.083-5.018-2.083-5.074-4.803
		c-0.056-1.582,0.67-3.026,1.813-3.97c-0.111,1.471,0.14,3.276,2.008,3.442l-0.084-2.859C69.307,36.396,70.395,35.841,71.175,35.868
		L71.175,35.868z"/>
	<path fill-rule="evenodd" clip-rule="evenodd" fill="#E7AE83" d="M54.838,60.66c9.283,0,17.006-11.41,17.006-20.405V28.317
		c0-9.328-7.639-16.935-17.006-16.935l0,0c-9.34,0-17.006,7.607-17.006,16.935v11.688C37.832,49.86,44.579,60.66,54.838,60.66
		L54.838,60.66z"/>
	<path fill-rule="evenodd" clip-rule="evenodd" fill="#D8776E" d="M45.722,43.614c1.311,0.027,2.342,1.083,2.314,2.387
		c-0.028,1.305-1.087,2.332-2.397,2.304c-1.311-0.027-2.342-1.11-2.314-2.387C43.352,44.613,44.439,43.586,45.722,43.614
		L45.722,43.614z"/>
	<path fill-rule="evenodd" clip-rule="evenodd" fill="#D8776E" d="M64.039,43.975c1.31,0.028,2.342,1.11,2.313,2.387
		c-0.027,1.305-1.087,2.332-2.397,2.305c-1.311-0.028-2.342-1.083-2.313-2.388C61.668,44.975,62.728,43.947,64.039,43.975
		L64.039,43.975z"/>
	<path fill-rule="evenodd" clip-rule="evenodd" fill="#14171E" d="M60.498,31.315c-0.362,0.167-0.529,0.583-0.362,0.944
		s0.585,0.5,0.948,0.333c0,0,2.146-1,4.209,0.278c0.335,0.222,0.781,0.111,0.977-0.222c0.223-0.333,0.111-0.777-0.224-0.972
		C63.341,29.983,60.498,31.315,60.498,31.315L60.498,31.315z"/>
	<path fill-rule="evenodd" clip-rule="evenodd" fill="#14171E" d="M43.659,31.621c-0.334,0.194-0.446,0.639-0.251,0.972
		c0.167,0.333,0.613,0.472,0.948,0.278c0,0,2.063-1.194,4.21-0.083c0.362,0.194,0.809,0.056,0.976-0.305
		c0.195-0.333,0.056-0.777-0.307-0.944C46.391,30.066,43.687,31.621,43.659,31.621L43.659,31.621z"/>
	<path fill-rule="evenodd" clip-rule="evenodd" fill="#EBBF9E" d="M54.392,41.393c-0.335,0.861-0.864,2.416-0.836,2.693
		c0.083,0.361,1.951,0.694,2.453,0.222c0.334-0.333-0.084-1.721-0.446-2.665C55.089,40.338,54.81,40.255,54.392,41.393
		L54.392,41.393z"/>
	<path fill-rule="evenodd" clip-rule="evenodd" fill="#FFFFFF" d="M51.27,47.667c0,1.971,1.589,3.553,3.568,3.553
		s3.568-1.582,3.568-3.553c0-0.361-0.278-0.639-0.642-0.639h-5.826C51.577,47.029,51.27,47.307,51.27,47.667L51.27,47.667z"/>
	<path fill-rule="evenodd" clip-rule="evenodd" fill="#14171E" d="M63.174,40.81c1.115,0,2.035-0.916,2.035-2.027
		c0-1.138-0.92-2.054-2.035-2.054c-1.144,0-2.063,0.916-2.063,2.054C61.111,39.894,62.031,40.81,63.174,40.81L63.174,40.81z"/>
	<path fill-rule="evenodd" clip-rule="evenodd" fill="#14171E" d="M46.53,40.81c1.115,0,2.035-0.916,2.035-2.027
		c0-1.138-0.92-2.054-2.035-2.054c-1.143,0-2.063,0.916-2.063,2.054C44.467,39.894,45.387,40.81,46.53,40.81L46.53,40.81z"/>
	<path fill-rule="evenodd" clip-rule="evenodd" fill="#BBD532" d="M47.45,169.35c0,4.47,2.481,5.441,2.481,5.441
		c2.843,2.221,35.127,12.244,35.992,11.744s1.311-3.082,1.311-3.082c-1.757-11.882-3.959-22.321-3.959-22.321
		c0.725-4.386,1.7-7.163,1.7-7.163l-4.153-19.156c1.311-1.777-0.362-2.693-0.362-2.693c0-1.111,3.15-29.678,3.15-29.678
		c-3.401-19.794,2.536-32.232,2.536-32.232S71.342,64.02,70.59,63.964c-0.753-0.056-1.45,0.555-1.45,0.555
		s-10.26,36.258-10.762,38.729c-0.501,2.471-0.445,17.962-0.696,20.683S47.45,169.35,47.45,169.35L47.45,169.35z"/>
	<path fill-rule="evenodd" clip-rule="evenodd" fill="#A7C639" d="M69.698,182.009c8.169,2.582,15.808,4.775,16.226,4.525
		c0.864-0.5,1.311-3.082,1.311-3.082c-1.757-11.882-3.959-22.321-3.959-22.321c0.725-4.386,1.7-7.163,1.7-7.163l-1.505-6.968
		L69.698,182.009z"/>
	<path fill-rule="evenodd" clip-rule="evenodd" fill="#97B33C" d="M63.871,83.203c-2.593,9.3-5.241,18.823-5.492,20.044
		c-0.307,1.527-0.418,7.968-0.501,13.354l9.563-15.575l0.251-17.435L63.871,83.203z"/>
	<path fill-rule="evenodd" clip-rule="evenodd" fill="#87A13C" d="M75.525,65.824c-2.565-1.027-4.656-1.832-4.935-1.86
		c-0.753-0.056-1.45,0.555-1.45,0.555s-4.461,15.797-7.667,27.235l15.278-10.633L75.525,65.824z"/>
	<path fill-rule="evenodd" clip-rule="evenodd" fill="#A7C639" d="M80.459,132.121c0-1.139,3.15-29.678,3.15-29.678
		c-0.67-3.887-0.977-7.496-1.032-10.772l-5.882,25.653L80.459,132.121z"/>
	<path fill-rule="evenodd" clip-rule="evenodd" fill="#BBD532" d="M43.491,63.631c0,0-0.641-0.111-1.003-0.056
		S30.75,68.35,30.472,68.517c-0.279,0.139-0.53,0.25-1.031,2.776c-0.502,2.526-4.182,26.458-4.321,27.374
		c-0.112,0.888-0.195,2.082,0.362,5.802c0.558,3.692,1.115,7.163,0.976,8.023c-0.111,0.861-5.938,43.809-6.189,45.669
		c-0.251,1.832-2.983,19.267-2.983,20.877s3.345,3.442,4.209,4.137c0.864,0.666,1.311,0.666,3.178-0.111
		c1.868-0.805,11.291-9.661,11.291-9.661s1.868-2.082,1.729-5.414c-0.111-3.359-0.362-51.777-0.362-54.248
		s-1.366-9.828-1.561-11.299c-0.167-1.499,6.802-38.423,6.802-38.423L43.491,63.631z"/>
	<path fill-rule="evenodd" clip-rule="evenodd" fill="#97B33C" d="M37.33,114.13v-0.389c0-2.471-1.366-9.828-1.561-11.299
		c-0.084-0.805,1.868-11.744,3.708-21.738l-2.928-0.306L29.97,95.474L37.33,114.13z"/>
	<path fill-rule="evenodd" clip-rule="evenodd" fill="#87A13C" d="M43.491,63.631c0,0-0.641-0.111-1.003-0.056
		c-0.111,0.028-1.394,0.527-3.067,1.222L33.315,80.01l4.6,9.273c1.979-11.133,4.656-25.264,4.656-25.264L43.491,63.631z"/>
	<path fill-rule="evenodd" clip-rule="evenodd" fill="#E39B2F" d="M70.116,340.171c0,0,0.279-3.748,2.537-3.748h4.377
		c1.478,0,2.928,2.305,3.346,3.998c0,0,1.449,0.389,1.757,1.832c0.307,1.472,1.003,6.913,1.087,7.44
		c0.111,0.555,0.502,2.554-1.757,2.554H65.46c-1.395,0-1.227-1.055-1.227-1.638c0-0.61,0.307-2.804,1.059-3.97
		C66.045,345.501,70.116,340.171,70.116,340.171L70.116,340.171z"/>
	<path fill-rule="evenodd" clip-rule="evenodd" fill="#D8732A" d="M70.116,340.171c0,0,0.279-3.748,2.537-3.748h4.377
		c1.478,0,2.928,2.305,3.346,3.998l-1.813,3.775c0,0-0.809,0.86-2.369,0.86h-5.046c0,0-1.339-0.25-1.283-1.471
		C69.949,342.336,70.116,340.171,70.116,340.171L70.116,340.171z"/>
	<path fill-rule="evenodd" clip-rule="evenodd" fill="#FFFFFF" d="M83.164,349.167c0.027,0.277,0.056,0.444,0.056,0.527
		c0.111,0.555,0.502,2.554-1.757,2.554H65.46c-1.395,0-1.227-1.055-1.227-1.638c0-0.25,0.056-0.805,0.167-1.443H83.164z"/>
	<path fill-rule="evenodd" clip-rule="evenodd" fill="#E39B2F" d="M34.626,337.006c0,0-7.193,6.302-9.813,6.829
		c-2.593,0.5-8.308,1-9.535,1.694c-1.199,0.693-2.342,3.664-2.454,4.191c-0.139,0.556-0.474,2.526,1.283,2.526h32.228
		c1.338,0,1.617-0.749,1.617-1.859c0-1.111-0.809-2.222-0.809-2.222v-6.135c0-1.36-0.725-2.472-2.286-2.555
		c-2.732-0.194-5.688,1.36-7.444-1.499C36.633,336.729,36.298,335.757,34.626,337.006L34.626,337.006z"/>
	<path fill-rule="evenodd" clip-rule="evenodd" fill="#D8732A" d="M34.626,337.006c0,0-6.886,6.052-9.646,6.774
		c1.004,1.11,2.732,1.638,3.485,1.582c1.004-0.083,8.448-3.471,9.117-4.387s-0.028-2.776-0.028-2.776l0,0
		c-0.056-0.055-0.112-0.139-0.14-0.222C36.633,336.729,36.298,335.757,34.626,337.006L34.626,337.006z"/>
	<path fill-rule="evenodd" clip-rule="evenodd" fill="#FFFFFF" d="M13.41,348.195c-0.334,0.693-0.558,1.305-0.585,1.526
		c-0.139,0.556-0.474,2.526,1.283,2.526h32.228c1.338,0,1.617-0.749,1.617-1.859c0-1.111-0.809-2.193-0.809-2.193H13.41z"/>
	<path fill-rule="evenodd" clip-rule="evenodd" fill="#14171E" d="M37.832,39.755l1.645-6.635c0,0,5.297-3.859,3.401-9.245
		c-1.868-5.386-2.23-4.858-2.23-4.858s-7.054,3.165-3.931,17.435L37.832,39.755z"/>
	<path fill-rule="evenodd" clip-rule="evenodd" fill="#14171E" d="M71.844,39.755L70.2,33.12c0,0-5.297-3.859-3.401-9.245
		c1.868-5.386,2.258-4.858,2.258-4.858s7.054,3.165,3.903,17.435L71.844,39.755z"/>
	<path fill-rule="evenodd" clip-rule="evenodd" fill="#14171E" d="M42.739,29.733c8.001,1.11,19.265-8.606,22.749-7.746
		c3.987,1,3.15,5.691,3.15,5.691l4.35-7.163c6.161-10.188-4.238-12.715-3.764-8.772c0,0-7.138-9.606-11.653-11.411
		c-4.517-1.805-5.019,4.331-5.019,4.331C28.827,1.416,28.548,27.762,42.739,29.733L42.739,29.733z"/>
	<path fill-rule="evenodd" clip-rule="evenodd" fill="#E7AE83" d="M86.09,176.124c-1.7-0.111-3.764,3.026-4.015,4.248
		c0,0-1.031,1.888-0.725,4.137c0.279,2.248-1.422,3.47-1.673,4.58c-0.558,2.582,0.613,3.221,1.979,2.082
		c0.893-0.749,1.562-2.471,1.979-2.581c0.418-0.14,0.391,1.499,0.391,1.804c0,0.306-1.924,3.721-1.924,4.275
		c-0.028,0.583,1.031,1.194,2.202-0.499c0,0-0.92,2.388-1.143,3.081c0,0-1.199,1.722-1.339,2.276
		c-0.167,0.556,0.251,1.389,0.558,1.61c0.279,0.194,0.613-0.083,1.59-1.582c0,0-0.307,1.472-0.084,2.055
		c0.195,0.583,0.725,0.693,1.004,0.638c0.251-0.11,0.474-0.222,0.613-0.499c0.14-0.25,1.254-2.805,1.561-3.388
		c0.335-0.583,1.339-2.526,1.868-5.33c0,0,0.224-0.889,0.084-1.166c0,0,0.78-1.721,0.78-2.554c0-0.861,0.558-6.33,0.613-6.996
		c0.028-0.639,1.59-2.222,1.59-2.222l-0.419-1.832L86.09,176.124z"/>
	<path fill-rule="evenodd" clip-rule="evenodd" fill="#D77F68" d="M83.917,177.317c-0.921,0.973-1.673,2.36-1.841,3.055
		c0,0-0.027,0.083-0.083,0.194l8.252,3.581c0.084-0.889,0.14-1.61,0.167-1.832c0.028-0.639,1.59-2.222,1.59-2.222l-0.419-1.832
		l-2.369-0.916C87.541,177.317,85.617,177.317,83.917,177.317L83.917,177.317z"/>
	<path fill-rule="evenodd" clip-rule="evenodd" fill="#DE9275" d="M83.247,195.168c0.307-0.139,0.67-0.444,1.06-0.999
		c0,0-0.92,2.388-1.143,3.081c0,0-1.199,1.722-1.339,2.276c-0.167,0.556,0.251,1.389,0.558,1.61c0.279,0.223,0.613-0.083,1.59-1.61
		l0.752-6.856L83.247,195.168z"/>
	<path fill-rule="evenodd" clip-rule="evenodd" fill="#D77F68" d="M83.833,188.672c0.223,0.333,0.195,1.472,0.195,1.721
		c0,0.306-1.924,3.721-1.924,4.275c-0.028,0.583,1.031,1.194,2.202-0.499c0,0,0.391-1.083,0.418-1.499
		c0.028-0.417-0.223-2.86-0.334-3.249C84.306,189.144,84,188.811,83.833,188.672L83.833,188.672z M83.749,188.589L83.749,188.589
		L83.749,188.589L83.749,188.589z"/>
	<path fill-rule="evenodd" clip-rule="evenodd" fill="#BBD532" d="M86.146,70.21c0,0,9.284,2.665,11.459,18.934
		c2.146,16.241,2.844,36.036,3.039,43.865c0.194,7.829-6.385,47.279-6.385,47.279s-0.529,1.139-1.422,1.25
		c-0.893,0.083-11.375-1.971-12.295-2.277c-0.947-0.277-1.143-0.582-0.892-2.248s5.659-42.837,5.659-42.837
		s-0.893-1.555,0.195-2.749l-2.537-23.098C82.968,108.328,77.922,84.619,86.146,70.21L86.146,70.21z"/>
</g>
</svg>
