<?xml version="1.0" encoding="utf-8"?>
<!-- Generator: Adobe Illustrator 16.0.0, SVG Export Plug-In . SVG Version: 6.00 Build 0)  -->
<!DOCTYPE svg PUBLIC "-//W3C//DTD SVG 1.1//EN" "http://www.w3.org/Graphics/SVG/1.1/DTD/svg11.dtd">
<svg version="1.1" id="Layer_1" xmlns="http://www.w3.org/2000/svg" xmlns:xlink="http://www.w3.org/1999/xlink" x="0px" y="0px"
	 width="215.988px" height="468.124px" viewBox="0 0 215.988 468.124" enable-background="new 0 0 215.988 468.124"
	 xml:space="preserve">
<g>
	<polygon fill-rule="evenodd" clip-rule="evenodd" fill="#E7AE83" points="165.658,162.765 187.598,118.04 183.166,107.629 
		152.471,148.246 	"/>
	<path fill-rule="evenodd" clip-rule="evenodd" fill="#E7AE83" d="M183.166,107.629c0,0,1.813-2.193,3.4-2.693
		c0,0,2.371-1.638,5.381-1.555c3.012,0.083,6.385-5.414,7.807-5.886c1.422-0.472,1.84-0.556,2.398-0.028
		c0.529,0.5,0.641,2.332-0.225,3.637c-0.863,1.305-4.152,4.165-4.236,4.748c-0.111,0.555,2.201,0.611,2.592,0.555
		c0.418-0.028,4.518-3.359,5.27-3.47c0.752-0.111,1.701,1.194-0.363,2.971c0,0,3.039-1.527,3.932-1.916c0,0,2.092-1.804,2.816-2.082
		c0.725-0.305,1.895,0.139,2.23,0.5c0.307,0.361,0,0.833-1.896,2.304c0,0,1.896-0.583,2.705-0.389
		c0.836,0.194,1.059,0.86,1.004,1.221c-0.084,0.361-0.225,0.694-0.559,0.917c-0.334,0.194-3.541,2.026-4.266,2.526
		c-0.725,0.5-3.178,2.082-6.83,3.165c0,0-1.143,0.472-1.533,0.278c0,0-2.176,1.305-3.289,1.416c-1.115,0.111-8.309,1.61-9.174,1.777
		c-0.891,0.139-2.732,2.415-2.732,2.415l-2.508-0.277L183.166,107.629z"/>
	<path fill-rule="evenodd" clip-rule="evenodd" fill="#D77F68" d="M198.221,105.075c-0.307,0.361-0.502,0.639-0.529,0.777
		c-0.111,0.555,2.201,0.611,2.592,0.555c0.027,0,0.057,0,0.111-0.028l-3.373,2.749l-7.275,1.527
		C189.746,110.655,196.129,106.935,198.221,105.075L198.221,105.075z"/>
	<path fill-rule="evenodd" clip-rule="evenodd" fill="#D77F68" d="M182.525,117.374c0.668-0.222,1.504-0.444,2.369-0.639
		c0.668-0.167,1.338-0.306,1.951-0.444c1.785-0.361,3.289-0.639,3.457-0.666c-0.863,0.167-2.676,2.415-2.676,2.415l-0.029,0.028
		l-2.229,4.498C186.205,117.318,182.525,117.374,182.525,117.374L182.525,117.374z"/>
	<path fill-rule="evenodd" clip-rule="evenodd" fill="#E4C2D1" d="M135.074,88.307c0,0,4.35-0.555,8.252,5.386
		c3.932,5.914,22.359,61.049,22.359,61.049s1.729,5.941-0.445,8.69c-2.176,2.748-8.42,5.774-13.494-1.472
		c-5.074-7.218-14.191-34.064-14.191-34.064L135.074,88.307z"/>
	<path fill-rule="evenodd" clip-rule="evenodd" fill="#BBD532" d="M135.074,88.307c0,0,4.488-0.833,8.336,4.081
		s14.805,36.924,14.805,36.924l2.342,5.914L176,115.042c0,0,0.307-0.694,1.061-0.278c0.752,0.417,10.203,7.496,10.203,7.496
		s0.195,0.056,0.334,1.111c0.141,1.027-20.322,44.253-20.322,44.253s-2.873,3.498-9.285,2.582
		c-6.383-0.917-10.064-7.94-11.486-12.215c-1.449-4.303-5.24-18.351-5.24-18.351l0.781-2.221c-0.754,0.444-1.506,0.944-2.287,1.472
		L135.074,88.307z"/>
	<path fill-rule="evenodd" clip-rule="evenodd" fill="#8C9638" d="M147.426,160.35c-0.363-0.833-0.67-1.638-0.922-2.359
		c-1.449-4.303-5.24-18.351-5.24-18.351l0.781-2.221c-0.754,0.444-1.506,0.944-2.287,1.472l-0.893-9.606
		c0.057-2.026,0.195-4.109,0.447-6.302l3.623-6.802l7.082,25.791c0,0,1.449,2.138,3.4,0.777c1.98-1.36,7.139-7.523,7.139-7.523
		L147.426,160.35z"/>
	<path fill-rule="evenodd" clip-rule="evenodd" fill="#010101" d="M141.402,204.797l3.568,7.357l0.949,11.271
		c0,0,3.93,6.219,4.627,8.079c0.67,1.86-1.115,16.046-0.863,18.822c0.25,2.805-12.322,119.434-13.326,141.838
		c-1.422,32.26-5.326,55.303-5.074,57.469c0.223,2.193-1.924,5.857-4.99,6.08c-3.039,0.25-6.246-1.277-9.98-2.139l-0.057-0.027l0,0
		c-1.477-0.389-1.59-2.221-1.59-2.221l-1.729-38.506l0,0c0.113-5.83,0.113-22.182-0.139-28.984
		c-0.25-7.135-3.652-131.371-3.652-131.371l9.926-44.392L141.402,204.797z"/>
	<path fill-rule="evenodd" clip-rule="evenodd" fill="#010101" d="M78.508,205.38l-1.617,5.303c0,0-5.158,3.442-5.492,5.136
		c-0.307,1.721-1.812,5.441-2.314,7.94c-0.474,2.471-2.537,14.16-3.345,16.019c-0.809,1.859-0.502,87.563-0.502,98.391
		c0,10.854-0.334,10.383-0.809,18.738l0,0l2.146,94.031c0,0-0.529,3.055,3.011,3.887c3.541,0.834,11.653,0.223,14.107-0.305
		c1.756-0.639,3.122-1.305,3.652-1.75c1.617-1.387,1.115-24.68,1.45-28.262c0.334-3.553,7.472-75.625,9.423-87.729
		c1.952-12.105,18.54-95.225,21.467-107.024s9.758-17.185,9.758-17.185L78.508,205.38z"/>
	<path fill-rule="evenodd" clip-rule="evenodd" fill="#E39B2F" d="M147.396,221.038c0,0-19.793,5.247-42.71,3.109
		c-22.917-2.138,16.978-15.769,27.851-11.993C143.438,215.93,147.396,221.038,147.396,221.038L147.396,221.038z"/>
	<path fill-rule="evenodd" clip-rule="evenodd" fill="#FFFFFF" d="M90.886,84.336l-26.764,8.967c0,0,7.221,10.772,3.736,41.561
		c0,0,7.555,36.285,7.555,41.144c0,4.831-4.07,25.764-4.07,28.9c0,3.082,41.901,23.182,77.142,6.774l-4.879-17.907l-1.395-21.905
		c0,0,0.643-16.99,0.643-17.768c0-0.333,0.111-1.444,0.25-2.61c-0.809-6.635,1.813-17.185,1.813-17.185l-6.607-42.56l-18.512-7.607
		L90.886,84.336z"/>
	<polygon fill-rule="evenodd" clip-rule="evenodd" fill="#D1D9E5" points="116.283,84.114 116.088,84.114 116.088,85.364 
		109.621,92.943 92.837,85.169 92.837,84.309 92.586,84.309 90.468,86.558 102.205,102.743 109.621,92.943 116.256,102.549 
		119.35,86.363 	"/>
	<path fill-rule="evenodd" clip-rule="evenodd" fill="#D1D9E5" d="M126.348,217.651c7.389-0.75,14.889-2.582,22.137-5.969
		l-4.879-17.879l-1.395-21.933c0,0,0.643-16.99,0.643-17.768c0-0.333,0.111-1.416,0.25-2.61c-0.809-6.635,1.813-17.185,1.813-17.185
		l-6.607-42.56l-18.512-7.607h-1.533l-0.475,2.11l10.064,43.698L126.348,217.651z M69.726,143.942
		c2.23,11.077,5.688,28.79,5.688,32.065c0,4.831-4.07,25.764-4.07,28.9c0,2.193,21.328,13.076,46.362,13.16l-16.643-80.844
		l-26.485-14.603C74.577,122.621,72.625,131.061,69.726,143.942L69.726,143.942z"/>
	<polygon fill-rule="evenodd" clip-rule="evenodd" fill="#CC3329" points="114.666,101.105 125.623,179.784 120.02,195.858 
		107.307,178.146 109.203,101.105 112.438,99.439 	"/>
	<path fill-rule="evenodd" clip-rule="evenodd" fill="#9E272A" d="M115.895,94.97l-1.229,6.135h-5.463l-5.437-7.718l5.603-5.886
		c0,0,4.461,2.276,4.713,3.22C114.332,91.666,115.895,94.97,115.895,94.97L115.895,94.97z"/>
	<polygon fill-rule="evenodd" clip-rule="evenodd" fill="#D77F68" points="93.284,65.069 116.508,65.069 116.508,90.722 
		107.279,90.722 93.284,85.308 	"/>
	<polygon fill-rule="evenodd" clip-rule="evenodd" fill="#FFFFFF" points="110.066,90.722 116.508,83.143 116.508,81.755 
		119.797,84.142 116.674,100.328 110.066,90.722 102.623,100.522 90.886,84.336 93.284,81.782 93.284,82.948 	"/>
	<path fill-rule="evenodd" clip-rule="evenodd" fill="#D77F68" d="M127.547,47.69c0.168,0.028,0.334,0.056,0.475,0.083h0.027l0,0
		c2.928,0.639,5.158,3.221,5.186,6.33c0.057,3.637-2.871,6.635-6.523,6.663c-3.652,0.055-6.635-2.86-6.691-6.497
		c-0.027-2.11,0.947-3.998,2.51-5.219c-0.195,1.943,0.084,4.358,2.592,4.608l-0.055-3.803
		C125.037,48.329,126.488,47.635,127.547,47.69L127.547,47.69z"/>
	<path fill-rule="evenodd" clip-rule="evenodd" fill="#D77F68" d="M84.028,47.663c-0.167,0.028-0.307,0.056-0.474,0.083l0,0l0,0
		c-2.955,0.61-5.213,3.165-5.297,6.274c-0.083,3.637,2.788,6.663,6.44,6.747c3.625,0.111,6.663-2.776,6.774-6.386
		c0.056-2.11-0.92-4.025-2.425-5.274c0.167,1.943-0.167,4.358-2.676,4.581l0.111-3.803C86.509,48.356,85.087,47.635,84.028,47.663
		L84.028,47.663z"/>
	<path fill-rule="evenodd" clip-rule="evenodd" fill="#E7AE83" d="M105.746,80.616c-12.323,0-22.61-15.158-22.61-27.096V37.613
		c0-12.382,10.176-22.516,22.61-22.516l0,0c12.434,0,22.61,10.133,22.61,22.516V53.16C128.355,66.291,119.379,80.616,105.746,80.616
		L105.746,80.616z"/>
	<path fill-rule="evenodd" clip-rule="evenodd" fill="#BBD532" d="M115.559,225.092c0,5.913-3.289,7.218-3.289,7.218
		c-3.792,2.943-46.67,16.242-47.813,15.603c-1.171-0.666-1.756-4.109-1.756-4.109c3.29-22.376,3.764-42.67,8.503-64.63
		c-1.729-2.388,0.502-3.609,0.502-3.609c0-1.471-4.209-39.422-4.209-39.422c2.453-26.041,0.334-49.806,0.334-49.806
		s6.468,1.805,10.538,1.11c3.569-0.611,6.105-2.415,6.44-2.443c1.004-0.083,1.924,0.722,1.924,0.722s13.661,48.223,14.33,51.499
		c0.641,3.304,0.585,23.876,0.92,27.485C102.289,168.317,115.559,225.092,115.559,225.092L115.559,225.092z"/>
	<path fill-rule="evenodd" clip-rule="evenodd" fill="#ACB837" d="M70.729,165.708c-0.781-7.246-1.84-16.852-2.509-23.126
		l14.72-16.019L70.729,165.708z"/>
	<path fill-rule="evenodd" clip-rule="evenodd" fill="#ACB837" d="M93.729,110.572c3.485,12.382,6.998,25.042,7.333,26.651
		c0.39,2.027,0.529,10.578,0.641,17.712l-12.685-20.683L88.684,111.1L93.729,110.572z"/>
	<path fill-rule="evenodd" clip-rule="evenodd" fill="#A5B038" d="M78.285,87.501c3.401-1.388,6.189-2.471,6.523-2.499
		c1.004-0.083,1.924,0.722,1.924,0.722s5.938,20.988,10.176,36.23L76.64,107.824L78.285,87.501z"/>
	<path fill-rule="evenodd" clip-rule="evenodd" fill="#304C8D" d="M120.828,84.559c0,0,0.836-0.167,1.338-0.083
		c0.502,0.083,15.613,6.357,15.975,6.58c0.363,0.194,0.697,0.333,1.367,3.692c0.641,3.359,5.547,35.175,5.715,36.369
		s0.307,2.804-0.447,7.718c-0.557,3.748-1.113,7.274-1.281,9.272c0,0-0.641,5.22-0.641,5.997s-0.643,17.768-0.643,17.768
		l1.395,21.933l12.043,44.142c0,2.109-4.432,4.58-5.604,5.496c-1.143,0.889-1.729,0.889-4.209-0.166
		c-2.453-1.082-15-12.798-15-12.798s-2.48-2.804-2.313-7.246c0.166-4.414,0.502-68.795,0.502-72.071
		c0-3.304,1.811-13.076,2.063-15.02c0.25-1.971-9.033-51.083-9.033-51.083L120.828,84.559z"/>
	
		<path fill-rule="evenodd" clip-rule="evenodd" fill="#BBD532" stroke="#A5B038" stroke-width="0.1943" stroke-linecap="round" stroke-linejoin="round" stroke-miterlimit="10" d="
		M120.828,84.559c0,0,0.836-0.167,1.338-0.083c0.502,0.083,15.613,6.357,15.975,6.58c0.363,0.194,0.697,0.333,1.367,3.692
		c0.641,3.359,5.547,35.175,5.715,36.369s0.307,2.804-0.447,7.718c-0.557,3.748-1.113,7.274-1.281,9.272c0,0-0.641,5.22-0.641,5.997
		s-0.643,17.768-0.643,17.768l1.395,21.933l12.043,44.142c0,2.109-4.432,4.58-5.604,5.496c-1.143,0.889-1.729,0.889-4.209-0.166
		c-2.453-1.082-15-12.798-15-12.798s-2.48-2.804-2.313-7.246c0.166-4.414,0.502-68.795,0.502-72.071
		c0-3.304,1.811-13.076,2.063-15.02c0.25-1.971-9.033-51.083-9.033-51.083L120.828,84.559z"/>
	<path fill-rule="evenodd" clip-rule="evenodd" fill="#ACB837" d="M129.025,151.66v-0.5c0-3.304,1.811-13.076,2.063-15.02
		c0.139-1.055-2.453-15.603-4.906-28.9l3.902-0.389l8.727,20.017L129.025,151.66z"/>
	<path fill-rule="evenodd" clip-rule="evenodd" fill="#A5B038" d="M120.828,84.559c0,0,0.836-0.167,1.338-0.083
		c0.168,0.027,1.84,0.722,4.098,1.61l8.086,20.267l-6.105,12.299c-2.648-14.797-6.189-33.592-6.189-33.592L120.828,84.559z"/>
	<path fill-rule="evenodd" clip-rule="evenodd" fill="#E39B2F" d="M85.422,452.104c0,0-0.363-4.998-3.346-4.998h-5.799
		c-1.979,0-3.903,3.055-4.46,5.303c0,0-1.924,0.5-2.342,2.443c-0.418,1.943-1.31,9.189-1.45,9.912
		c-0.139,0.721-0.641,3.359,2.314,3.359h21.272c1.896,0,1.645-1.389,1.645-2.166s-0.391-3.721-1.422-5.246
		C90.83,459.184,85.422,452.104,85.422,452.104L85.422,452.104z"/>
	<path fill-rule="evenodd" clip-rule="evenodd" fill="#D8732A" d="M85.422,452.104c0,0-0.363-4.998-3.346-4.998h-5.799
		c-1.979,0-3.903,3.055-4.46,5.303l2.397,5.053c0,0,1.06,1.111,3.15,1.111h6.719c0,0,1.784-0.334,1.673-1.971
		C85.672,454.991,85.422,452.104,85.422,452.104L85.422,452.104z"/>
	<path fill-rule="evenodd" clip-rule="evenodd" fill="#FFFFFF" d="M68.109,464.042c-0.028,0.361-0.084,0.611-0.084,0.723
		c-0.139,0.721-0.641,3.359,2.314,3.359h21.272c1.896,0,1.645-1.361,1.645-2.166c0-0.334-0.056-1.055-0.223-1.916H68.109z"/>
	<path fill-rule="evenodd" clip-rule="evenodd" fill="#E39B2F" d="M132.594,447.885c0,0,9.563,8.383,13.047,9.049
		c3.457,0.668,11.068,1.334,12.686,2.277c1.617,0.916,3.094,4.857,3.289,5.58c0.168,0.75,0.586,3.332-1.756,3.332h-42.822
		c-1.785,0-2.146-1-2.146-2.471c0-1.443,1.086-2.916,1.086-2.916v-8.189c0-1.805,0.949-3.275,3.039-3.387
		c3.625-0.25,7.555,1.832,9.898-1.971C129.945,447.524,130.391,446.219,132.594,447.885L132.594,447.885z"/>
	<path fill-rule="evenodd" clip-rule="evenodd" fill="#D8732A" d="M132.594,447.885c0,0,9.172,8.051,12.824,8.994
		c-1.338,1.471-3.625,2.193-4.629,2.109c-1.311-0.111-11.207-4.637-12.1-5.83c-0.891-1.193,0.057-3.691,0.057-3.691l0,0
		c0.055-0.084,0.111-0.168,0.168-0.277C129.945,447.524,130.391,446.219,132.594,447.885L132.594,447.885z"/>
	<path fill-rule="evenodd" clip-rule="evenodd" fill="#FFFFFF" d="M160.807,462.737c0.445,0.943,0.725,1.777,0.809,2.055
		c0.168,0.75,0.586,3.332-1.756,3.332h-42.822c-1.785,0-2.146-1-2.146-2.471c0-1.443,1.086-2.916,1.086-2.916H160.807z"/>
	<path fill-rule="evenodd" clip-rule="evenodd" fill="#14171E" d="M128.355,52.826l-2.174-8.828c0,0-7.055-5.136-4.545-12.271
		c2.48-7.163,2.982-6.469,2.982-6.469s9.367,4.22,5.215,23.182L128.355,52.826z"/>
	<path fill-rule="evenodd" clip-rule="evenodd" fill="#14171E" d="M83.136,52.826l2.174-8.828c0,0,7.054-5.136,4.544-12.271
		c-2.509-7.163-2.983-6.469-2.983-6.469s-9.368,4.22-5.213,23.182L83.136,52.826z"/>
	<path fill-rule="evenodd" clip-rule="evenodd" fill="#E4C2D1" d="M67.83,86.335c0,0-9.563-0.389-12.602,7.718
		c-3.066,8.079-9.869,60.688-10.176,64.575c-0.279,3.915,5.52,9.412,11.18,9.106c5.659-0.277,9.284-15.88,12.49-26.707
		C71.928,130.172,67.83,86.335,67.83,86.335L67.83,86.335z"/>
	<path fill-rule="evenodd" clip-rule="evenodd" fill="#BBD532" d="M67.83,86.335c0,0-9.2-1.25-13.326,7.135
		c0,0-1.004,3.249-1.952,7.718c-0.948,4.498-4.935,28.345-4.935,28.345s0.111,0.722,1.115,0.972c1.031,0.25,15.64-0.555,21.077,1.61
		C69.81,132.116,72.653,112.182,67.83,86.335L67.83,86.335z"/>
	<path fill-rule="evenodd" clip-rule="evenodd" fill="#8C9638" d="M59.438,130.644c1.115,0.056,2.23,0.111,3.317,0.194l7.806-9.189
		c0.084-2.638,0.112-5.719,0.028-9.134l-3.094-1.222L59.438,130.644z"/>
	<polygon fill-rule="evenodd" clip-rule="evenodd" fill="#E7AE83" points="61.111,163.376 85.561,115.431 74.66,112.987 
		46.224,155.603 	"/>
	<path fill-rule="evenodd" clip-rule="evenodd" fill="#E7AE83" d="M85.561,115.431c0.976-2.027-1.952-6.052-3.374-6.969
		c0,0-1.84-2.165-4.767-2.887c-2.927-0.722-4.768-6.885-5.994-7.718c-1.254-0.805-1.645-1-2.314-0.639
		c-0.669,0.333-1.254,2.083-0.752,3.582c0.501,1.471,2.927,5.081,2.871,5.664c-0.056,0.583-2.286,0.028-2.676-0.111
		c-0.362-0.139-3.457-4.414-4.182-4.719c-0.697-0.306-1.952,0.694-0.418,2.942c0,0-2.537-2.249-3.29-2.859
		c0,0-1.533-2.276-2.175-2.749c-0.613-0.472-1.868-0.361-2.258-0.083c-0.418,0.25-0.223,0.805,1.199,2.721
		c0,0-1.673-1.083-2.509-1.083c-0.836-0.028-1.254,0.555-1.282,0.917c0,0.361,0.028,0.722,0.307,1.027
		c0.251,0.278,2.899,2.86,3.457,3.554c0.585,0.667,2.509,2.832,5.771,4.831c0,0,0.976,0.722,1.394,0.639
		c0,0,1.757,1.832,2.816,2.221c1.06,0.417,7.611,3.72,8.392,4.109c0.809,0.361,2.007,3.026,2.007,3.026l2.481,0.389L85.561,115.431z
		"/>
	<path fill-rule="evenodd" clip-rule="evenodd" fill="#D77F68" d="M71.175,106.602c-0.39,0.333-2.286-0.139-2.621-0.25
		c-0.028-0.028-0.083-0.083-0.167-0.139l5.186,6.802l-2.23-6.274L71.175,106.602z"/>
	<path fill-rule="evenodd" clip-rule="evenodd" fill="#D77F68" d="M57.431,101.605L57.431,101.605
		c-0.056-0.056-1.701-1.083-2.509-1.083c-0.836-0.028-1.254,0.555-1.282,0.917c0,0.361,0.028,0.722,0.307,1.027
		c0.251,0.278,2.899,2.86,3.457,3.554c0.585,0.667,2.509,2.832,5.771,4.831c0,0,0.976,0.722,1.394,0.639
		c0,0,0.112,0.111,0.279,0.305L57.431,101.605z"/>
	<path fill-rule="evenodd" clip-rule="evenodd" fill="#D77F68" d="M75.915,117.874l-5.464,1.444l2.091-3.109
		c0,0,3.123,0.944,6.663,0.777L75.915,117.874z"/>
	<path fill-rule="evenodd" clip-rule="evenodd" fill="#BBD532" d="M49.987,128.534l-2.37,1l-3.178,29.373
		c0,0-0.334,2.276,0.641,3.775c0.976,1.5,2.37,4.054,7.778,5.803c5.437,1.749,7.639-2.61,9.479-5.803
		c1.84-3.165,21.16-37.146,21.16-37.146s0.474-1.222-0.056-1.833c-0.53-0.583-11.514-6.607-11.514-6.607s-0.809-0.583-1.282,0
		c-0.474,0.555-7.89,13.742-7.89,13.742L49.987,128.534z"/>
	<polygon fill-rule="evenodd" clip-rule="evenodd" fill="#8C9638" points="62.756,130.838 59.605,130.283 59.438,130.644 
		53.723,144.359 	"/>
	<path fill-rule="evenodd" clip-rule="evenodd" fill="#A5B038" d="M135.074,88.307c0,0-2.09,0.25-6.635-1.305l3.484,4.941
		l4.629-1.583L135.074,88.307z"/>
	<path fill-rule="evenodd" clip-rule="evenodd" fill="#14171E" d="M87.596,39.5c10.65,1.471,25.621-11.41,30.25-10.272
		c5.297,1.333,4.182,7.523,4.182,7.523l5.771-9.495c8.223-13.548-5.605-16.907-4.992-11.66c0,0-9.479-12.771-15.5-15.158
		c-5.994-2.388-6.663,5.747-6.663,5.747C69.112,1.882,68.778,36.891,87.596,39.5L87.596,39.5z"/>
	<path fill-rule="evenodd" clip-rule="evenodd" fill="#D8776E" d="M93.953,57.879c1.729,0.028,3.095,1.444,3.067,3.165
		s-1.45,3.109-3.178,3.082c-1.729-0.055-3.123-1.471-3.095-3.192S92.224,57.852,93.953,57.879L93.953,57.879z"/>
	<path fill-rule="evenodd" clip-rule="evenodd" fill="#D8776E" d="M118.291,58.379c1.729,0.028,3.094,1.443,3.066,3.165
		c-0.027,1.721-1.449,3.109-3.178,3.054c-1.729-0.028-3.123-1.444-3.066-3.165C115.141,59.711,116.563,58.351,118.291,58.379
		L118.291,58.379z"/>
	<path fill-rule="evenodd" clip-rule="evenodd" fill="#14171E" d="M113.58,41.527c-0.475,0.222-0.697,0.777-0.475,1.249
		c0.195,0.472,0.781,0.694,1.254,0.472c0,0,2.844-1.333,5.576,0.361c0.447,0.277,1.031,0.139,1.311-0.306
		c0.279-0.444,0.139-1.027-0.307-1.305C117.344,39.75,113.58,41.527,113.58,41.527L113.58,41.527z"/>
	<path fill-rule="evenodd" clip-rule="evenodd" fill="#14171E" d="M91.221,41.638c-0.474,0.25-0.642,0.833-0.391,1.277
		c0.279,0.444,0.836,0.611,1.311,0.361c0,0,2.732-1.583,5.604-0.083c0.446,0.222,1.032,0.056,1.283-0.417
		c0.223-0.472,0.056-1.027-0.418-1.277C94.845,39.556,91.221,41.638,91.221,41.638L91.221,41.638z"/>
	<path fill-rule="evenodd" clip-rule="evenodd" fill="#EBBF9E" d="M105.467,54.937c-0.446,1.138-1.171,3.22-1.115,3.553
		c0.083,0.5,2.593,0.944,3.262,0.306c0.418-0.417-0.111-2.277-0.586-3.554C106.387,53.548,106.024,53.409,105.467,54.937
		L105.467,54.937z"/>
	<path fill-rule="evenodd" clip-rule="evenodd" fill="#14171E" d="M101.313,63.293c0,2.609,2.119,4.719,4.739,4.719
		s4.768-2.11,4.768-4.719c0-0.5-0.391-0.889-0.893-0.889h-7.75C101.703,62.404,101.313,62.793,101.313,63.293L101.313,63.293z"/>
	<path fill-rule="evenodd" clip-rule="evenodd" fill="#FFFFFF" d="M109.453,62.404h-6.802v0.805c0,0.417,0.362,0.75,0.781,0.75h5.27
		c0.418,0,0.752-0.333,0.752-0.75V62.404z"/>
	<path fill-rule="evenodd" clip-rule="evenodd" fill="#D36171" d="M102.623,66.541c0.864,0.916,2.091,1.471,3.429,1.471
		c1.366,0,2.592-0.555,3.458-1.471c-0.865-0.916-2.092-1.472-3.458-1.472C104.714,65.069,103.487,65.625,102.623,66.541
		L102.623,66.541z"/>
	<path fill-rule="evenodd" clip-rule="evenodd" fill="#14171E" d="M113.244,51.799c0,0.389,0.336,0.722,0.754,0.722
		c0.391,0,0.725-0.333,0.725-0.722c0-0.667,0.279-1.277,0.697-1.694l0,0c0.445-0.444,1.031-0.694,1.701-0.694
		c0.668,0,1.254,0.25,1.699,0.694l0,0c0.418,0.417,0.697,1.027,0.697,1.694c0,0.389,0.334,0.722,0.725,0.722
		c0.418,0,0.754-0.333,0.754-0.722c0-1.083-0.447-2.027-1.145-2.721v-0.028c-0.695-0.694-1.672-1.11-2.73-1.11
		c-1.061,0-2.035,0.416-2.732,1.11l0,0C113.664,49.772,113.244,50.716,113.244,51.799L113.244,51.799z"/>
	<path fill-rule="evenodd" clip-rule="evenodd" fill="#14171E" d="M91.053,51.799c0,0.389,0.334,0.722,0.725,0.722
		c0.418,0,0.752-0.333,0.752-0.722c0-0.667,0.279-1.277,0.697-1.694l0,0c0.446-0.444,1.031-0.694,1.7-0.694
		c0.669,0,1.255,0.25,1.673,0.694h0.028c0.418,0.417,0.697,1.027,0.697,1.694c0,0.389,0.334,0.722,0.725,0.722
		c0.418,0,0.753-0.333,0.753-0.722c0-1.083-0.446-2.027-1.143-2.721v-0.028c-0.697-0.694-1.673-1.11-2.732-1.11
		c-1.059,0-2.035,0.416-2.732,1.11l0,0C91.471,49.772,91.053,50.716,91.053,51.799L91.053,51.799z"/>
	<path fill-rule="evenodd" clip-rule="evenodd" fill="#EBEB90" d="M42.098,71.261L42.098,71.261
		c0.474,0.083,0.809,0.555,0.725,1.027l-0.864,4.775l4.795,0.86c0.474,0.083,0.809,0.528,0.725,1l0,0
		c-0.083,0.472-0.558,0.805-1.031,0.722l-4.795-0.86l-0.864,4.803c-0.083,0.472-0.53,0.777-1.003,0.694l0,0
		c-0.474-0.083-0.809-0.528-0.725-1l0.864-4.803l-4.823-0.86c-0.474-0.083-0.781-0.527-0.697-1l0,0
		c0.083-0.472,0.53-0.805,1.004-0.722l4.823,0.86l0.864-4.775C41.178,71.51,41.624,71.177,42.098,71.261L42.098,71.261z"/>
	<path fill-rule="evenodd" clip-rule="evenodd" fill="#EBEB90" d="M178.873,32.504c1.422,0,2.592,1.166,2.592,2.582
		c0,1.416-1.17,2.554-2.592,2.554s-2.566-1.139-2.566-2.554C176.307,33.67,177.451,32.504,178.873,32.504L178.873,32.504z"/>
	<path fill-rule="evenodd" clip-rule="evenodd" fill="#EBEB90" d="M177.953,58.046c1.422,0,2.592,1.138,2.592,2.554
		c0,1.416-1.17,2.582-2.592,2.582s-2.566-1.166-2.566-2.582C175.387,59.184,176.531,58.046,177.953,58.046L177.953,58.046z"/>
	<path fill-rule="evenodd" clip-rule="evenodd" fill="#EBEB90" d="M165.797,37.835c2.119,0,3.848,1.721,3.848,3.859
		s-1.729,3.859-3.848,3.859c-2.146,0-3.875-1.721-3.875-3.859S163.65,37.835,165.797,37.835L165.797,37.835z"/>
	<path fill-rule="evenodd" clip-rule="evenodd" fill="#EBEB90" d="M208.76,54.354c3.262,0,5.881,2.637,5.881,5.885
		c0,3.249-2.619,5.886-5.881,5.886c-3.264,0-5.912-2.637-5.912-5.886C202.848,56.991,205.496,54.354,208.76,54.354L208.76,54.354z"
		/>
	<path fill-rule="evenodd" clip-rule="evenodd" fill="#EBEB90" d="M32.451,36.918c1.422,0,2.593,1.138,2.593,2.554
		c0,1.444-1.171,2.582-2.593,2.582c-1.421,0-2.564-1.138-2.564-2.582C29.887,38.057,31.03,36.918,32.451,36.918L32.451,36.918z"/>
	<path fill-rule="evenodd" clip-rule="evenodd" fill="#EBEB90" d="M52.748,50.328c1.422,0,2.564,1.138,2.564,2.554
		s-1.143,2.582-2.564,2.582s-2.593-1.166-2.593-2.582S51.326,50.328,52.748,50.328L52.748,50.328z"/>
	<path fill-rule="evenodd" clip-rule="evenodd" fill="#EBEB90" d="M32.814,107.99c2.146,0,3.875,1.721,3.875,3.859
		c0,2.11-1.729,3.859-3.875,3.859c-2.119,0-3.848-1.749-3.848-3.859C28.966,109.711,30.695,107.99,32.814,107.99L32.814,107.99z"/>
	<path fill-rule="evenodd" clip-rule="evenodd" fill="#EBEB90" d="M6.273,92.554c3.262,0,5.91,2.637,5.91,5.886
		c0,3.248-2.648,5.858-5.91,5.858s-5.911-2.61-5.911-5.858C0.362,95.191,3.011,92.554,6.273,92.554L6.273,92.554z"/>
	<path fill-rule="evenodd" clip-rule="evenodd" fill="#EBEB90" d="M16.979,176.479c1.422,0,2.565,1.139,2.565,2.582
		c0,1.416-1.143,2.554-2.565,2.554s-2.593-1.138-2.593-2.554C14.386,177.618,15.557,176.479,16.979,176.479L16.979,176.479z"/>
	<path fill-rule="evenodd" clip-rule="evenodd" fill="#EBEB90" d="M16.059,201.993c1.422,0,2.565,1.166,2.565,2.582
		s-1.143,2.582-2.565,2.582c-1.45,0-2.593-1.166-2.593-2.582S14.609,201.993,16.059,201.993L16.059,201.993z"/>
	<path fill-rule="evenodd" clip-rule="evenodd" fill="#EBEB90" d="M3.875,181.81c2.146,0,3.875,1.721,3.875,3.859
		c0,2.11-1.729,3.859-3.875,3.859c-2.147,0-3.875-1.749-3.875-3.859C0,183.531,1.729,181.81,3.875,181.81L3.875,181.81z"/>
	<path fill-rule="evenodd" clip-rule="evenodd" fill="#EBEB90" d="M46.837,198.329c3.262,0,5.911,2.638,5.911,5.886
		s-2.649,5.858-5.911,5.858s-5.882-2.61-5.882-5.858S43.575,198.329,46.837,198.329L46.837,198.329z"/>
	<path fill-rule="evenodd" clip-rule="evenodd" fill="#EBEB90" d="M170.732,78.007L170.732,78.007c0.473,0.083,0.779,0.527,0.697,1
		l-0.838,4.803l4.795,0.833c0.475,0.083,0.809,0.555,0.727,1.027l0,0c-0.084,0.472-0.559,0.777-1.033,0.694l-4.795-0.833
		l-0.863,4.775c-0.084,0.472-0.529,0.805-1.004,0.722V91c-0.475-0.083-0.809-0.527-0.725-1l0.863-4.775l-4.822-0.861
		c-0.475-0.083-0.781-0.555-0.697-1.027l0,0c0.084-0.472,0.529-0.777,1.004-0.694l4.822,0.861l0.865-4.803
		C169.813,78.229,170.258,77.923,170.732,78.007L170.732,78.007z"/>
	<path fill-rule="evenodd" clip-rule="evenodd" fill="#EBEB90" d="M35.016,163.209L35.016,163.209c0.474,0.083,0.781,0.527,0.697,1
		l-0.864,4.803l4.823,0.833c0.474,0.083,0.781,0.555,0.697,1.027l0,0c-0.083,0.472-0.53,0.777-1.004,0.694l-4.823-0.833
		l-0.836,4.775c-0.083,0.472-0.558,0.806-1.032,0.722l0,0c-0.474-0.083-0.78-0.555-0.697-1.027l0.864-4.775l-4.823-0.861
		c-0.474-0.083-0.781-0.527-0.697-1l0,0c0.083-0.472,0.53-0.805,1.003-0.722l4.823,0.86l0.836-4.803
		C34.068,163.432,34.542,163.126,35.016,163.209L35.016,163.209z"/>
	<path fill-rule="evenodd" clip-rule="evenodd" fill="#EBEB90" d="M198.443,175.952L198.443,175.952
		c0.475,0.083,0.809,0.527,0.725,1l-0.863,4.803l4.822,0.833c0.475,0.083,0.781,0.555,0.697,1.027l0,0
		c-0.084,0.472-0.529,0.777-1.004,0.694l-4.822-0.833l-0.836,4.775c-0.113,0.472-0.559,0.805-1.033,0.694l0,0
		c-0.473-0.083-0.779-0.528-0.695-1l0.836-4.775l-4.795-0.86c-0.475-0.083-0.809-0.555-0.727-1.027l0,0
		c0.084-0.472,0.559-0.777,1.033-0.694l4.795,0.86l0.863-4.803C197.523,176.174,197.969,175.869,198.443,175.952L198.443,175.952z"
		/>
	<path fill-rule="evenodd" clip-rule="evenodd" fill="#EBEB90" d="M167.441,184.003c1.422,0,2.594,1.166,2.594,2.582
		c0,1.416-1.172,2.554-2.594,2.554s-2.564-1.139-2.564-2.554C164.877,185.169,166.02,184.003,167.441,184.003L167.441,184.003z"/>
	<path fill-rule="evenodd" clip-rule="evenodd" fill="#EBEB90" d="M195.488,160.517c1.422,0,2.564,1.138,2.564,2.554
		c0,1.416-1.143,2.582-2.564,2.582c-1.449,0-2.592-1.166-2.592-2.582C192.896,161.655,194.039,160.517,195.488,160.517
		L195.488,160.517z"/>
	<path fill-rule="evenodd" clip-rule="evenodd" fill="#EBEB90" d="M184.588,195.774c2.146,0,3.875,1.722,3.875,3.832
		c0,2.138-1.729,3.859-3.875,3.859c-2.119,0-3.875-1.721-3.875-3.859C180.713,197.496,182.469,195.774,184.588,195.774
		L184.588,195.774z"/>
	<path fill-rule="evenodd" clip-rule="evenodd" fill="#EBEB90" d="M209.121,198.329c3.262,0,5.91,2.638,5.91,5.886
		s-2.648,5.858-5.91,5.858s-5.91-2.61-5.91-5.858S205.859,198.329,209.121,198.329L209.121,198.329z"/>
</g>
</svg>
