<?xml version="1.0" encoding="utf-8"?>
<!-- Generator: Adobe Illustrator 16.0.0, SVG Export Plug-In . SVG Version: 6.00 Build 0)  -->
<!DOCTYPE svg PUBLIC "-//W3C//DTD SVG 1.1//EN" "http://www.w3.org/Graphics/SVG/1.1/DTD/svg11.dtd">
<svg version="1.1" id="Layer_1" xmlns="http://www.w3.org/2000/svg" xmlns:xlink="http://www.w3.org/1999/xlink" x="0px" y="0px"
	 width="332.635px" height="803.245px" viewBox="0 0 332.635 803.245" enable-background="new 0 0 332.635 803.245"
	 xml:space="preserve">
<g>
	<polygon fill-rule="evenodd" clip-rule="evenodd" fill="#E7AE83" points="86.339,242.779 48.703,166.044 56.286,148.193 
		88.375,186.782 	"/>
	<path fill-rule="evenodd" clip-rule="evenodd" fill="#E7AE83" d="M56.286,148.193c0,0-3.095-3.776-5.827-4.636
		c0,0-4.042-2.804-9.228-2.666c-5.158,0.139-10.957-9.3-13.382-10.105c-2.425-0.805-3.178-0.916-4.098-0.055
		c-0.948,0.86-1.143,4.025,0.363,6.247c1.505,2.249,7.109,7.135,7.276,8.134c0.195,1-3.792,1.055-4.461,1
		c-0.697-0.083-7.722-5.775-9.033-5.969c-1.31-0.194-2.927,2.055,0.613,5.081c0,0-5.213-2.609-6.719-3.276
		c0,0-3.625-3.109-4.851-3.609c-1.254-0.472-3.234,0.25-3.792,0.888c-0.585,0.611,0,1.416,3.234,3.97c0,0-3.29-1.027-4.684-0.694
		s-1.812,1.499-1.673,2.11c0.112,0.611,0.363,1.166,0.92,1.555c0.558,0.361,6.106,3.47,7.36,4.331
		c1.227,0.861,5.409,3.609,11.709,5.469c0,0,1.952,0.777,2.593,0.472c0,0,3.736,2.221,5.688,2.416
		c1.924,0.167,14.246,2.776,15.724,3.026c1.506,0.25,4.684,4.164,4.684,4.164l4.293-0.5L56.286,148.193z"/>
	<path fill-rule="evenodd" clip-rule="evenodd" fill="#D77F68" d="M30.441,143.806c0.558,0.583,0.92,1.055,0.948,1.305
		c0.195,1-3.792,1.055-4.461,1c-0.056-0.028-0.111-0.028-0.195-0.083l5.799,4.692l12.49,2.637
		C45.022,153.356,34.038,146.971,30.441,143.806L30.441,143.806z"/>
	<path fill-rule="evenodd" clip-rule="evenodd" fill="#D77F68" d="M57.429,164.906c-1.143-0.361-2.593-0.75-4.098-1.11
		c-1.115-0.25-2.258-0.528-3.346-0.75c-3.039-0.639-5.66-1.111-5.938-1.166c1.505,0.277,4.6,4.164,4.6,4.164l0.056,0.028
		l3.819,7.746C51.072,164.822,57.429,164.906,57.429,164.906L57.429,164.906z"/>
	<path fill-rule="evenodd" clip-rule="evenodd" fill="#BBD532" d="M153.779,156.244c0,0-6.412,2.638-9.339,9.051
		c-2.956,6.413-45.833,65.686-45.833,65.686l20.212,31.427l40.731-32.538C167.216,212.962,171.677,174.067,153.779,156.244
		L153.779,156.244z"/>
	<path fill-rule="evenodd" clip-rule="evenodd" fill="#A5B038" d="M123.251,196.527c-9.172,12.993-18.707,26.235-22.693,31.76
		l7.332,8.079L123.251,196.527z"/>
	<path fill-rule="evenodd" clip-rule="evenodd" fill="#A5B038" d="M124.506,257.882l35.044-28.012
		c1.673-3.692,3.206-8.412,4.349-13.77c0.976-9.606,1.812-18.601,2.314-24.209c-0.056-2.138-0.195-4.275-0.418-6.385l-13.968-8.134
		L124.506,257.882z"/>
	<path fill-rule="evenodd" clip-rule="evenodd" fill="#BBD532" d="M104.739,216.877c0,0-14.581-32.926-17.759-38.257
		c-3.206-5.358-6.217-12.382-10.789-11.382c0,0-14.33,10.911-26.43,12.271c0,0-1.505,2.554-0.056,6.524
		c1.422,3.998,38.835,71.932,38.835,71.932s8.67,14.104,21.523,9.717c5.186-1.776,9.786-5.108,13.939-9.411L104.739,216.877z"/>
	<path fill-rule="evenodd" clip-rule="evenodd" fill="#010101" d="M148.147,351.413l-6.106,12.632l-1.645,19.35
		c0,0-6.747,10.661-7.918,13.854c-1.171,3.193,1.896,27.512,1.478,32.316c-0.446,4.803,21.132,204.912,22.861,243.363
		c2.454,55.33,9.117,94.893,8.727,98.611c-0.391,3.721,3.289,9.996,8.531,10.439c5.241,0.416,10.733-2.193,17.117-3.721l0.14-0.027
		l0,0c2.537-0.666,2.704-3.832,2.704-3.832l2.983-66.018c-0.195-10.051-0.195-38.117,0.223-49.777
		c0.418-12.244,6.245-225.402,6.245-225.402l-17.006-76.181L148.147,351.413z"/>
	<path fill-rule="evenodd" clip-rule="evenodd" fill="#010101" d="M256.067,352.413l2.788,9.134c0,0,8.865,5.858,9.423,8.772
		c0.558,2.943,3.122,9.356,3.959,13.604c0.836,4.275,4.349,24.32,5.743,27.514c1.394,3.191,0.892,150.221,0.892,168.85
		c0,18.602,0.53,17.795,1.395,32.121l0,0l-3.708,161.326c0,0,0.92,5.275-5.158,6.691c-6.077,1.416-20.017,0.361-24.198-0.527
		c-3.039-1.082-5.354-2.221-6.273-2.998c-2.76-2.389-1.951-42.365-2.481-48.473c-0.585-6.137-12.852-129.762-16.197-150.557
		c-3.346-20.766-31.782-163.381-36.801-183.619c-5.018-20.267-16.755-29.512-16.755-29.512L256.067,352.413z"/>
	<path fill-rule="evenodd" clip-rule="evenodd" fill="#E39B2F" d="M137.888,379.258c0,0,33.957,9.023,73.294,5.358
		c39.338-3.665-29.134-27.041-47.813-20.572C144.69,370.514,137.888,379.258,137.888,379.258L137.888,379.258z"/>
	<path fill-rule="evenodd" clip-rule="evenodd" fill="#FFFFFF" d="M234.852,144.723l45.917,15.38c0,0-12.379,18.49-6.413,71.321
		c0,0-12.964,62.271-12.964,70.572c0,8.329,6.998,44.253,6.998,49.583c0,5.303-71.9,39.812-132.37,11.632l8.392-30.677l2.37-37.618
		c0,0-1.115-29.15-1.115-30.511c0-0.555-0.195-2.443-0.391-4.442c1.338-11.382-3.122-29.511-3.122-29.511l11.319-73.015
		l31.782-13.076L234.852,144.723z"/>
	<polygon fill-rule="evenodd" clip-rule="evenodd" fill="#D1D9E5" points="191.248,144.362 191.61,144.362 191.61,146.5 
		202.679,159.492 231.478,146.138 231.478,144.639 231.924,144.639 235.576,148.554 215.42,176.288 202.679,159.492 
		191.304,175.983 185.979,148.193 	"/>
	<path fill-rule="evenodd" clip-rule="evenodd" fill="#D1D9E5" d="M174.019,373.457c-12.685-1.306-25.593-4.442-37.999-10.217
		l8.392-30.705l2.37-37.618c0,0-1.115-29.15-1.115-30.511c0-0.555-0.195-2.443-0.391-4.442c1.338-11.382-3.15-29.511-3.15-29.511
		l11.347-73.015l31.782-13.076l2.593,0.027l0.837,3.637l-17.257,74.93L174.019,373.457z M271.178,246.971
		c-3.848,19.017-9.786,49.417-9.786,55.025c0,8.329,6.998,44.253,6.998,49.583c0,3.776-36.605,22.433-79.539,22.599l28.548-138.701
		l45.415-25.042C262.813,210.436,266.188,224.9,271.178,246.971L271.178,246.971z"/>
	<polygon fill-rule="evenodd" clip-rule="evenodd" fill="#CC3329" points="194.064,173.512 175.246,308.465 184.864,336.088 
		206.665,305.661 203.403,173.512 197.884,170.625 	"/>
	<path fill-rule="evenodd" clip-rule="evenodd" fill="#9E272A" d="M191.945,162.935l2.119,10.578h9.339l9.34-13.243l-9.618-10.133
		c0,0-7.639,3.915-8.085,5.552C194.622,157.299,191.945,162.935,191.945,162.935L191.945,162.935z"/>
	<polygon fill-rule="evenodd" clip-rule="evenodd" fill="#D77F68" points="230.753,111.658 190.886,111.658 190.886,155.688 
		206.722,155.688 230.753,146.36 	"/>
	<polygon fill-rule="evenodd" clip-rule="evenodd" fill="#FFFFFF" points="201.954,155.688 190.886,142.668 190.886,140.253 
		185.254,144.362 190.579,172.152 201.954,155.688 214.694,172.485 234.852,144.723 230.753,140.336 230.753,142.307 	"/>
	<path fill-rule="evenodd" clip-rule="evenodd" fill="#D77F68" d="M171.956,81.813c-0.279,0.056-0.558,0.111-0.837,0.167l0,0
		c-5.074,1.083-8.865,5.525-8.921,10.883c-0.083,6.219,4.935,11.355,11.18,11.411c6.272,0.083,11.402-4.914,11.458-11.133
		c0.056-3.637-1.617-6.885-4.266-8.967c0.307,3.332-0.195,7.468-4.433,7.885l0.056-6.497
		C176.222,82.924,173.769,81.73,171.956,81.813L171.956,81.813z"/>
	<path fill-rule="evenodd" clip-rule="evenodd" fill="#D77F68" d="M246.616,81.813c0.278,0.028,0.558,0.083,0.836,0.139l0,0
		c5.047,1.027,8.922,5.414,9.062,10.771c0.167,6.219-4.768,11.41-11.04,11.549c-6.245,0.167-11.459-4.748-11.599-10.966
		c-0.111-3.637,1.534-6.885,4.127-9.022c-0.251,3.331,0.307,7.44,4.571,7.829l-0.167-6.496
		C242.351,82.979,244.804,81.758,246.616,81.813L246.616,81.813z"/>
	<path fill-rule="evenodd" clip-rule="evenodd" fill="#E7AE83" d="M209.342,138.337c21.16,0,38.808-26.014,38.808-46.53V64.573
		c0-21.266-17.452-38.645-38.779-38.645h-0.028c-21.327,0-38.78,17.379-38.78,38.645v26.652
		C170.562,113.74,185.951,138.337,209.342,138.337L209.342,138.337z"/>
	<path fill-rule="evenodd" clip-rule="evenodd" fill="#D8776E" d="M185.84,97.86c2.955,0.055,5.325,2.499,5.269,5.469
		c-0.056,2.942-2.509,5.302-5.464,5.247c-2.983-0.056-5.353-2.499-5.297-5.441C180.403,100.164,182.856,97.804,185.84,97.86
		L185.84,97.86z"/>
	<path fill-rule="evenodd" clip-rule="evenodd" fill="#D8776E" d="M227.603,98.72c2.955,0.056,5.325,2.499,5.27,5.469
		c-0.056,2.943-2.51,5.303-5.465,5.247c-2.982-0.056-5.324-2.499-5.269-5.469C222.166,101.024,224.619,98.665,227.603,98.72
		L227.603,98.72z"/>
	<path fill-rule="evenodd" clip-rule="evenodd" fill="#14171E" d="M219.49,69.848c-0.809,0.361-1.171,1.333-0.809,2.138
		c0.39,0.805,1.338,1.166,2.146,0.805c0.027,0,4.935-2.332,9.618,0.61c0.753,0.472,1.757,0.25,2.23-0.5
		c0.474-0.777,0.251-1.777-0.502-2.249C225.985,66.766,219.518,69.82,219.49,69.848L219.49,69.848z"/>
	<path fill-rule="evenodd" clip-rule="evenodd" fill="#14171E" d="M181.128,69.986c-0.78,0.444-1.06,1.444-0.613,2.221
		c0.418,0.777,1.422,1.055,2.203,0.61c0,0,4.711-2.693,9.618-0.139c0.78,0.389,1.784,0.083,2.202-0.694
		c0.391-0.805,0.084-1.777-0.697-2.193C187.373,66.433,181.156,69.986,181.128,69.986L181.128,69.986z"/>
	<path fill-rule="evenodd" clip-rule="evenodd" fill="#EBBF9E" d="M205.578,92.862c-0.725,1.943-1.979,5.469-1.868,6.08
		c0.14,0.833,4.433,1.61,5.576,0.5c0.725-0.722-0.195-3.915-1.004-6.052C207.167,90.447,206.554,90.225,205.578,92.862
		L205.578,92.862z"/>
	<path fill-rule="evenodd" clip-rule="evenodd" fill="#14171E" d="M198.469,107.16c0,4.47,3.652,8.106,8.141,8.106
		c4.517,0,8.169-3.637,8.169-8.106c0-0.833-0.669-1.499-1.506-1.499h-13.298C199.138,105.661,198.469,106.327,198.469,107.16
		L198.469,107.16z"/>
	<path fill-rule="evenodd" clip-rule="evenodd" fill="#FFFFFF" d="M212.437,105.661h-11.653v1.36c0,0.722,0.585,1.305,1.31,1.305
		h9.062c0.696,0,1.282-0.583,1.282-1.305V105.661z"/>
	<path fill-rule="evenodd" clip-rule="evenodd" fill="#D36171" d="M200.699,112.74c1.506,1.555,3.597,2.526,5.91,2.526
		c2.342,0,4.433-0.972,5.911-2.526c-1.479-1.555-3.569-2.526-5.911-2.526C204.296,110.214,202.205,111.186,200.699,112.74
		L200.699,112.74z"/>
	<path fill-rule="evenodd" clip-rule="evenodd" fill="#14171E" d="M218.933,87.421c0,0.722,0.585,1.277,1.282,1.277
		s1.282-0.555,1.282-1.277c0-1.11,0.446-2.138,1.199-2.887l0,0c0.725-0.722,1.756-1.194,2.899-1.194
		c1.143,0,2.146,0.472,2.899,1.194l0,0c0.752,0.75,1.198,1.777,1.198,2.887c0,0.722,0.558,1.277,1.282,1.277
		c0.697,0,1.255-0.555,1.255-1.277c0-1.804-0.725-3.47-1.924-4.664h-0.027c-1.199-1.193-2.844-1.943-4.684-1.943
		c-1.841,0-3.485,0.75-4.684,1.943h-0.028C219.685,83.951,218.933,85.617,218.933,87.421L218.933,87.421z"/>
	<path fill-rule="evenodd" clip-rule="evenodd" fill="#BBD532" d="M192.503,386.227c0,10.133,5.659,12.382,5.659,12.382
		c6.496,5.081,80.069,27.901,82.049,26.763s2.982-7.051,2.982-7.051c-5.604-38.368-6.412-73.21-14.581-110.855
		c2.983-4.081-0.863-6.219-0.863-6.219c0-2.526,7.221-67.657,7.221-67.657c-3.095-33.065-1.924-63.992-1.115-77.818
		c-4.852-2.582-10.65-4.72-17.369-5.636l0.028-0.028l-0.168-0.028c-6.161-1.055-10.482-4.164-11.067-4.22
		c-1.701-0.139-3.318,1.249-3.318,1.249s-23.418,82.732-24.562,88.368c-1.143,5.636-1.003,40.949-1.561,47.141
		C215.28,288.809,192.503,386.227,192.503,386.227L192.503,386.227z"/>
	<path fill-rule="evenodd" clip-rule="evenodd" fill="#A5B038" d="M279.82,391.141c-1.562-14.187-2.815-28.096-4.461-42.06
		l-43.52-2.665l-23.697,19.711L279.82,391.141z"/>
	<path fill-rule="evenodd" clip-rule="evenodd" fill="#A5B038" d="M229.944,189.753c-5.938,21.21-11.988,42.92-12.546,45.725
		c-0.696,3.47-0.92,18.157-1.114,30.4l21.773-35.508l0.585-39.728L229.944,189.753z"/>
	<path fill-rule="evenodd" clip-rule="evenodd" fill="#A5B038" d="M256.485,150.136c-5.854-2.36-10.622-4.22-11.235-4.275
		c-1.7-0.139-3.29,1.249-3.29,1.249s-10.203,36.008-17.452,62.132l34.766-24.236L256.485,150.136z"/>
	<path fill-rule="evenodd" clip-rule="evenodd" fill="#BBD532" d="M183.47,145.083c0,0-1.449-0.25-2.286-0.111
		c-0.836,0.139-26.764,10.911-27.405,11.271c-0.641,0.333-1.199,0.556-2.342,6.33s-9.563,60.355-9.841,62.41
		c-0.279,2.027-0.474,4.803,0.78,13.243c0.976,6.413,1.952,12.493,2.23,15.936c0,0,1.06,8.912,1.06,10.244
		c0,1.36,1.115,30.511,1.115,30.511l-2.37,37.618l-20.714,75.735c0,3.664,7.639,7.885,9.618,9.439s2.983,1.555,7.221-0.277
		c4.238-1.832,25.76-21.988,25.76-21.988s4.238-4.775,3.958-12.382c-0.278-7.606-0.836-118.073-0.836-123.709
		s-3.123-22.376-3.541-25.763c-0.446-3.387,15.5-87.646,15.5-87.646L183.47,145.083z"/>
	<path fill-rule="evenodd" clip-rule="evenodd" fill="#A5B038" d="M169.419,260.242v-0.889c0-5.636-3.123-22.376-3.541-25.763
		c-0.223-1.805,4.209-26.763,8.419-49.583l-6.691-0.694l-14.999,34.397L169.419,260.242z"/>
	<path fill-rule="evenodd" clip-rule="evenodd" fill="#A5B038" d="M183.47,145.083c0,0-1.449-0.25-2.286-0.111
		c-0.278,0.028-3.178,1.194-7.025,2.776l-13.912,34.731l10.483,21.127c4.544-25.402,10.649-57.663,10.649-57.663L183.47,145.083z"/>
	<path fill-rule="evenodd" clip-rule="evenodd" fill="#E39B2F" d="M244.219,775.76c0,0,0.613-8.578,5.743-8.578h9.98
		c3.373,0,6.691,5.246,7.611,9.105c0,0,3.317,0.861,4.015,4.191c0.725,3.332,2.286,15.77,2.536,16.992
		c0.224,1.221,1.088,5.773-4.014,5.773h-36.494c-3.234,0-2.844-2.359-2.844-3.721c0-1.359,0.725-6.385,2.453-9.021
		C234.935,787.893,244.219,775.76,244.219,775.76L244.219,775.76z"/>
	<path fill-rule="evenodd" clip-rule="evenodd" fill="#D8732A" d="M244.219,775.76c0,0,0.613-8.578,5.743-8.578h9.98
		c3.373,0,6.691,5.246,7.611,9.105l-4.099,8.635c0,0-1.813,1.943-5.408,1.943h-11.542c0,0-3.039-0.584-2.872-3.359
		C243.772,780.702,244.219,775.76,244.219,775.76L244.219,775.76z"/>
	<path fill-rule="evenodd" clip-rule="evenodd" fill="#FFFFFF" d="M273.91,796.276c0.083,0.584,0.139,1,0.194,1.195
		c0.224,1.221,1.088,5.773-4.014,5.773h-36.494c-3.234,0-2.844-2.359-2.844-3.721c0-0.582,0.14-1.803,0.418-3.248H273.91z"/>
	<path fill-rule="evenodd" clip-rule="evenodd" fill="#E39B2F" d="M163.286,768.514c0,0-16.421,14.408-22.387,15.547
		c-5.938,1.139-18.985,2.277-21.746,3.887c-2.788,1.582-5.353,8.328-5.659,9.605c-0.307,1.25-1.004,5.691,2.983,5.691h73.489
		c3.066,0,3.68-1.693,3.68-4.219c0-2.527-1.84-5.025-1.84-5.025v-14.049c0-3.08-1.645-5.607-5.241-5.83
		c-6.189-0.389-12.964,3.166-16.979-3.359C167.802,767.875,167.049,765.627,163.286,768.514L163.286,768.514z"/>
	<path fill-rule="evenodd" clip-rule="evenodd" fill="#D8732A" d="M163.286,768.514c0,0-15.752,13.799-21.997,15.463
		c2.258,2.5,6.189,3.721,7.917,3.582c2.258-0.193,19.237-7.912,20.77-9.994c1.533-2.055-0.084-6.33-0.084-6.33h0.028
		c-0.111-0.139-0.223-0.305-0.335-0.473C167.802,767.875,167.049,765.627,163.286,768.514L163.286,768.514z"/>
	<path fill-rule="evenodd" clip-rule="evenodd" fill="#FFFFFF" d="M114.859,794c-0.725,1.609-1.227,3.025-1.366,3.525
		c-0.307,1.277-1.032,5.719,2.983,5.719h73.489c3.066,0,3.68-1.693,3.68-4.219c0-2.527-1.84-5.025-1.84-5.025H114.859z"/>
	<path fill-rule="evenodd" clip-rule="evenodd" fill="#14171E" d="M170.562,90.642l3.736-15.13c0,0,12.1-8.801,7.806-21.072
		c-4.293-12.299-5.129-11.077-5.129-11.077s-16.087,7.218-8.922,39.756L170.562,90.642z"/>
	<path fill-rule="evenodd" clip-rule="evenodd" fill="#14171E" d="M248.149,90.642l-3.764-15.13c0,0-12.071-8.801-7.778-21.072
		c4.294-12.299,5.13-11.077,5.13-11.077s16.086,7.218,8.921,39.756L248.149,90.642z"/>
	<path fill-rule="evenodd" clip-rule="evenodd" fill="#14171E" d="M240.482,67.793c-18.232,2.526-43.965-19.6-51.883-17.629
		c-9.089,2.276-7.192,12.91-7.192,12.91l-9.897-16.297c-14.079-23.237,9.618-29.011,8.559-19.989c0,0,16.282-21.932,26.597-26.041
		c10.288-4.081,11.431,9.883,11.431,9.883C272.209,3.218,272.795,63.323,240.482,67.793L240.482,67.793z"/>
	<path fill-rule="evenodd" clip-rule="evenodd" fill="#14171E" d="M180.85,87.421c0,0.722,0.585,1.277,1.282,1.277
		s1.282-0.555,1.282-1.277c0-1.11,0.446-2.138,1.199-2.887l0,0c0.725-0.722,1.756-1.194,2.899-1.194
		c1.143,0,2.146,0.472,2.899,1.194l0,0c0.753,0.75,1.198,1.777,1.198,2.887c0,0.722,0.558,1.277,1.283,1.277
		c0.696,0,1.254-0.555,1.254-1.277c0-1.804-0.725-3.47-1.924-4.664h-0.027c-1.199-1.193-2.872-1.943-4.684-1.943
		c-1.84,0-3.485,0.75-4.684,1.943h-0.028C181.603,83.951,180.85,85.617,180.85,87.421L180.85,87.421z"/>
	<path fill-rule="evenodd" clip-rule="evenodd" fill="#B46E3D" d="M315.813,271.902h-107.67c-2.648,0-4.822,2.166-4.822,4.803v84.62
		c0,2.637,2.174,4.803,4.822,4.803h107.67c2.648,0,4.822-2.166,4.822-4.803v-84.62C320.635,274.067,318.461,271.902,315.813,271.902
		L315.813,271.902z"/>
	<polygon fill-rule="evenodd" clip-rule="evenodd" fill="#884E34" points="229.108,366.127 301.872,366.127 320.635,316.599 
		320.635,293.307 319.074,293.251 258.074,343.279 	"/>
	<path fill-rule="evenodd" clip-rule="evenodd" fill="#BBD532" d="M251.272,216.821c0,0-6.664,11.382-1.45,10.994
		c3.875-0.25,7.499,2.11,8.949,3.221c5.241,3.97,49.848,64.159,49.848,64.159l20.213-7.246c0,0,7.945-11.41-0.084-33.731
		l-29.524-67.435l0,0l-6.356-14.547c0,0-8.781-13.548-26.317-19.684c0.14,5.275,1.087,13.076,1.227,14.187
		c0.084,0.472,1.924,2.276,4.488,4.553C267.581,187.393,262.619,209.742,251.272,216.821L251.272,216.821z"/>
	<path fill-rule="evenodd" clip-rule="evenodd" fill="#E7AE83" d="M282.58,352.135l-6.328,4.803l-1.729,9.189
		c0,0,0.111,2.083-1.032,4.469c-1.171,2.416-6.802,4.026-7.861,4.248c-1.031,0.25-2.76-1.943-2.76-1.943s-4.601,1.943-6.803,1.943
		c-2.175,0-3.681-2.387-3.681-2.387s-3.931,1.471-5.659,1.609c-1.729,0.111-2.648-1.971-2.648-1.971s-3.457,0.693-5.771-0.111
		c-2.286-0.805-4.712-5.858-4.712-5.858h6.44l6.579-3.887c0,0,2.314-5.275,3.346-7.468c1.031-2.193,5.241-3.221,5.241-3.221
		l6.412-9.189L282.58,352.135z"/>
	<path fill-rule="evenodd" clip-rule="evenodd" fill="#D77F68" d="M247.258,373.984c-0.195,0.028-0.363,0.056-0.53,0.083
		c-1.729,0.111-2.648-1.971-2.648-1.971l4.879-2.082L247.258,373.984z M254.979,374.65c-1.589-0.556-2.593-2.192-2.593-2.192
		l2.899-4.359L254.979,374.65z M265.853,374.817l-0.223,0.027c-1.031,0.25-2.76-1.943-2.76-1.943l3.735-3.498L265.853,374.817z"/>
	<path fill-rule="evenodd" clip-rule="evenodd" fill="#D77F68" d="M235.046,368.681c-0.863-1.333-1.449-2.554-1.449-2.554h6.44
		l-3.29,2.526L235.046,368.681z"/>
	<path fill-rule="evenodd" clip-rule="evenodd" fill="#D77F68" d="M280.712,353.551l-4.46,3.387l-1.729,9.189
		c0,0,0,0.306-0.028,0.805l-18.149-17.046l3.457-4.942L280.712,353.551z"/>
	<path fill-rule="evenodd" clip-rule="evenodd" fill="#BBD532" d="M259.524,331.313c-6.97,13.215-7.639,12.354-4.739,15.825
		c0,0,18.79,9.134,25.313,19.045c0,0,2.788-0.139,5.521-3.609c2.704-3.471,43.045-74.265,43.045-74.265s9.117-18.767-0.278-27.624
		c-3.792-3.581-10.817-11.16-16.281-12.41l-6.803-11.716C293.342,256.549,266.494,318.126,259.524,331.313L259.524,331.313z"/>
	<path fill-rule="evenodd" clip-rule="evenodd" fill="#A5B038" d="M270.787,271.902c0.864-8.079,1.784-16.491,2.537-23.348
		c0,0-8.225-24.264-7.332-38.534l-9.897,61.882H270.787z"/>
</g>
</svg>
