<?xml version="1.0" encoding="utf-8"?>
<!-- Generator: Adobe Illustrator 16.0.0, SVG Export Plug-In . SVG Version: 6.00 Build 0)  -->
<!DOCTYPE svg PUBLIC "-//W3C//DTD SVG 1.1//EN" "http://www.w3.org/Graphics/SVG/1.1/DTD/svg11.dtd">
<svg version="1.1" id="Layer_1" xmlns="http://www.w3.org/2000/svg" xmlns:xlink="http://www.w3.org/1999/xlink" x="0px" y="0px"
	 width="313.428px" height="310.688px" viewBox="0 0 313.428 310.688" enable-background="new 0 0 313.428 310.688"
	 xml:space="preserve">
<g>
	<path fill="#907669" d="M46.251,23.515c0,0,30.388,9.134,34.264,9.134c3.903,0,10.733-4.525,12.88-6.94
		c2.147-2.416,6.58-3.748,9.674-6.552c3.066-2.804,6.691-12.16,9.116-12.687c2.397-0.528,4.015,3.998,1.338,11.354
		c-2.677,7.357-7.527,10.022-6.719,12.966c0.809,2.941,11.152,6.801,12.88,7.023c1.756,0.193,2.481,1.11,2.481,1.11
		s2.564,1.138,4.182,2.609c1.589,1.472,1.338,5.22-0.474,7.079c-1.812,1.889-4.628,1.611-4.628,1.611s0.53,3.608-1.282,5.607
		s-4.349,2.082-4.349,2.082s-0.558,3.332-2.955,4.941c-2.426,1.611-4.098,1.611-4.098,1.611s-0.056,1.971-2.203,2.887
		s-4.851,0.583-7.583,1.11c-2.76,0.527-19.989-3.942-28.046-10.161l-26.82-2.998l-0.139-32.399L46.251,23.515z"/>
	<path fill="none" stroke="#4C4545" stroke-width="0.9717" stroke-linecap="round" stroke-miterlimit="10" d="M111.042,6.441
		c0,0,1.143,2.832-0.362,5.247c-1.505,2.388-3.29,1.11-3.29,1.11"/>
	
		<line fill="none" stroke="#4C4545" stroke-width="0.9717" stroke-linecap="round" stroke-miterlimit="10" x1="104.491" y1="18.935" x2="106.861" y2="20.544"/>
	<path fill="none" stroke="#4C4545" stroke-width="0.9717" stroke-linecap="round" stroke-miterlimit="10" d="M119.239,40.7
		c0,0,0.53,4.054-2.007,5.414"/>
	
		<line fill="none" stroke="#4C4545" stroke-width="0.9717" stroke-linecap="round" stroke-miterlimit="10" x1="121.163" y1="50.056" x2="117.427" y2="48.612"/>
	<path fill="none" stroke="#4C4545" stroke-width="0.9717" stroke-linecap="round" stroke-miterlimit="10" d="M115.392,49.695
		c0,0,0.391,4.026-2.899,5.136"/>
	
		<line fill="none" stroke="#4C4545" stroke-width="0.9717" stroke-linecap="round" stroke-miterlimit="10" x1="115.81" y1="57.857" x2="112.074" y2="56.414"/>
	
		<line fill="none" stroke="#4C4545" stroke-width="0.9717" stroke-linecap="round" stroke-miterlimit="10" x1="108.505" y1="64.409" x2="104.798" y2="62.965"/>
	<path fill="none" stroke="#4C4545" stroke-width="0.9717" stroke-linecap="round" stroke-miterlimit="10" d="M109.537,56.858
		c0,0,0.418,3.998-2.899,5.136"/>
	<path fill="none" stroke="#4C4545" stroke-width="0.9717" stroke-linecap="round" stroke-miterlimit="10" d="M103.348,63.215
		c0,0,0.278,2.776-2.007,3.554"/>
	<path fill="#FDDBC9" d="M0,0c0,0,59.773,18.129,62.617,28.262l-4.768,28.596c0,0-3.875,3.859-15.947,5.136
		c-12.072,1.277-41.902,0-41.902,0V0z"/>
	<path fill="#FDDBC9" d="M59.55,26.264l13.688,3.332l-4.684,28.456l-10.706-1.193C57.849,56.858,54.587,36.286,59.55,26.264
		L59.55,26.264z"/>
	<path fill="#FFE1A1" d="M58.044,252.222c3.624-2.221,7.388-10.355,8.029-13.826c0.613-3.441,3.986-7.217,5.241-11.576
		c1.254-4.387-0.725-15.158,1.227-17.047c1.924-1.859,6.05,1.443,7.75,9.828c1.729,8.385-1.255,13.631,1.199,15.908
		c2.425,2.277,14.274,0,16.03-0.805c1.729-0.805,2.956-0.334,2.956-0.334s3.039-0.416,5.38,0.057
		c2.342,0.443,4.238,4.08,3.625,6.857c-0.613,2.775-3.401,4.135-3.401,4.135s2.565,3.055,2.035,5.941
		c-0.53,2.916-2.872,4.414-2.872,4.414s1.422,3.416,0.083,6.303c-1.338,2.859-2.899,3.803-2.899,3.803s1.087,1.889-0.39,3.971
		s-4.182,3.275-6.44,5.357c-2.258,2.055-20.881,7.691-31.95,6.498L0,310.688v-44.363C0,266.325,54.42,254.415,58.044,252.222
		L58.044,252.222z"/>
	<path fill="none" stroke="#AF88A6" stroke-width="0.9717" stroke-linecap="round" stroke-miterlimit="10" d="M72.291,210.134
		c0,0,1.868,2.248,1.84,5.357c-0.028,3.109-2.426,2.916-2.426,2.916"/>
	
		<line fill="none" stroke="#AF88A6" stroke-width="0.9717" stroke-linecap="round" stroke-miterlimit="10" x1="72.542" y1="225.792" x2="75.664" y2="225.931"/>
	<path fill="none" stroke="#AF88A6" stroke-width="0.9717" stroke-linecap="round" stroke-miterlimit="10" d="M98.748,237.675
		c0,0,2.843,3.471,1.227,6.189"/>
	
		<line fill="none" stroke="#AF88A6" stroke-width="0.9717" stroke-linecap="round" stroke-miterlimit="10" x1="105.913" y1="245.31" x2="101.62" y2="246.087"/>
	<path fill="none" stroke="#AF88A6" stroke-width="0.9717" stroke-linecap="round" stroke-miterlimit="10" d="M100.337,248.251
		c0,0,2.648,3.527,0.223,6.441"/>
	
		<line fill="none" stroke="#AF88A6" stroke-width="0.9717" stroke-linecap="round" stroke-miterlimit="10" x1="105.383" y1="255.608" x2="101.09" y2="256.386"/>
	
		<line fill="none" stroke="#AF88A6" stroke-width="0.9717" stroke-linecap="round" stroke-miterlimit="10" x1="102.344" y1="265.88" x2="98.051" y2="266.657"/>
	<path fill="none" stroke="#AF88A6" stroke-width="0.9717" stroke-linecap="round" stroke-miterlimit="10" d="M98.999,258.247
		c0,0,2.677,3.525,0.251,6.439"/>
	<path fill="none" stroke="#AF88A6" stroke-width="0.9717" stroke-linecap="round" stroke-miterlimit="10" d="M96.88,267.714
		c0,0,1.84,2.441,0.14,4.469"/>
	<path fill="#795692" d="M48.816,254.997c0,0,5.743,12.078,7.667,30.039l7.165-3.33c0,0,4.6-19.656-5.604-29.484L48.816,254.997z"/>
	<path fill="#FFFFFF" d="M63.815,267.685c0,2.639-2.007,4.775-4.489,4.775c-2.453,0-4.46-2.137-4.46-4.775
		c0-2.664,2.007-4.803,4.46-4.803C61.808,262.882,63.815,265.021,63.815,267.685L63.815,267.685z"/>
	<path fill="#FECF92" d="M0,138.285l69.531,2.971c0,0,5.687-8.023,10.706-12.132c5.018-4.082,6.802-18.074,6.886-22.571
		c0.084-4.497,4.489-2.888,6.05,0.083c1.589,2.971,3.875,11.299,1.338,18.823c-2.565,7.523-2.509,6.94-2.509,6.94
		s13.131-1.638,17.341-0.833c4.21,0.806,9.368,5.414,6.245,11.244c0,0,4.879,5.552-1.533,11.41c0,0,2.035,4.692-3.652,9.745
		c0,0,0.307,3.442-3.206,5.803c-3.541,2.332-9.2,3.191-12.016,0.166c0,0-6.523,1.666-13.633,0.166
		c-7.109-1.498-10.957-2.943-10.957-2.943L0,179.651V138.285z"/>
	<path fill="none" stroke="#AF88A6" stroke-width="0.9717" stroke-linecap="round" stroke-miterlimit="10" d="M107.362,133.426
		c0,0-1.951,2.138-4.99,2.971c-3.039,0.832-7.694,0.972-9.841,2.582c-2.146,1.609-1.924,5.08-0.307,6.052
		c1.589,0.999,7.583,2.86,10.957,2.11c3.346-0.723,11.319-3.748,11.319-3.748"/>
	<path fill="none" stroke="#AF88A6" stroke-width="0.9717" stroke-linecap="round" stroke-miterlimit="10" d="M112.827,154.665
		c0,0-4.265,2.332-9.005,2.637c-4.767,0.307-9.172-1.887-10.064-3.969c-0.892-2.083-0.028-4.055,0.613-4.554
		c1.283-1.027,4.042,0.25,4.042,0.25"/>
	
		<line fill="none" stroke="#AF88A6" stroke-width="0.9717" stroke-linecap="round" stroke-miterlimit="10" x1="98.413" y1="149.029" x2="101.982" y2="147.307"/>
	<path fill="none" stroke="#AF88A6" stroke-width="0.9717" stroke-linecap="round" stroke-miterlimit="10" d="M108.84,164.354
		c0,0-5.576,1.637-9.646,0.305c-4.07-1.359-6.329-3.859-6.217-5.469c0.139-1.61,0.558-2.249,1.338-2.859
		c0.781-0.611,2.983,0,2.983,0"/>
	<path fill="none" stroke="#AF88A6" stroke-width="0.9717" stroke-linecap="round" stroke-miterlimit="10" d="M94.315,169.185
		c0,0-3.123-2.055-3.317-4.553c-0.195-2.527,2.425-3.914,2.425-3.914"/>
	<path fill="none" stroke="#AF88A6" stroke-width="0.9717" stroke-linecap="round" stroke-miterlimit="10" d="M92.614,147.502
		c0,0-1.115,4.941-5.408,8.217c-4.321,3.248-11.235,2.027-11.235,2.027"/>
	<path fill="none" stroke="#AF88A6" stroke-width="0.9717" stroke-linecap="round" stroke-miterlimit="10" d="M94.984,123.848
		c0,0-3.15,8.023-3.848,10.938"/>
	<path fill="none" stroke="#AF88A6" stroke-width="0.9717" stroke-linecap="round" stroke-miterlimit="10" d="M89.213,161.272
		c0,0-1.143,1.471-3.625,2.248"/>
	<path fill="none" stroke="#AF88A6" stroke-width="0.9717" stroke-linecap="round" stroke-miterlimit="10" d="M111.21,134.204
		c0,0,1.561,2.082,1.199,4.887"/>
	<path fill="none" stroke="#AF88A6" stroke-width="0.9717" stroke-linecap="round" stroke-miterlimit="10" d="M100.867,158.829
		c0,0-0.53,3.109-1.896,4.164"/>
	<path fill="none" stroke="#AF88A6" stroke-width="0.9717" stroke-linecap="round" stroke-miterlimit="10" d="M99.361,150.444
		c0,0,0.697,3.388,0.501,4.721"/>
	<path fill="none" stroke="#AF88A6" stroke-width="0.9717" stroke-linecap="round" stroke-miterlimit="10" d="M97.131,138.729
		c0,0,2.175,4.664,1.478,6.802"/>
	<path fill="none" stroke="#B594A9" stroke-width="0.9717" stroke-linecap="round" stroke-miterlimit="10" d="M70.646,142.782
		c0,0-1.171,4.332-0.418,8.968c0.725,4.636,2.397,5.83,2.397,5.83"/>
	
		<line fill="none" stroke="#B594A9" stroke-width="0.9717" stroke-linecap="round" stroke-miterlimit="10" x1="94.956" y1="117.685" x2="90.105" y2="117.713"/>
	
		<line fill="none" stroke="#AF88A6" stroke-width="0.9717" stroke-linecap="round" stroke-miterlimit="10" x1="64.958" y1="159.522" x2="51.576" y2="160.299"/>
	<path fill="#AF88A6" d="M51.576,138.729c0,0,4.321,26.958,2.983,34.758L0,181.817v-44.754L51.576,138.729z"/>
	<path fill="#FFFFFF" d="M51.716,139.701l4.517,0.167c0,0,3.262,10.105,3.262,17.462s0,13.187,0,13.187l-4.684,0.834L51.716,139.701
		z"/>
	<path fill="#907669" d="M309.413,208.302l-64.763-16.02c0,0-3.373-9.189-7.137-14.408c-3.764-5.246-1.896-19.157-0.809-23.487
		c1.115-4.359-3.568-3.943-5.827-1.472c-2.286,2.442-6.635,9.856-6.161,17.74c0.502,7.912,0.613,7.33,0.613,7.33
		s-12.211-4.941-16.448-5.248c-4.266-0.305-10.427,2.805-8.922,9.219c0,0-6.161,4.08-1.505,11.381c0,0-3.15,3.971,1.003,10.301
		c0,0-1.198,3.248,1.59,6.412c2.76,3.139,8.029,5.414,11.485,3.25c0,0,5.855,3.248,13.076,3.637c7.248,0.416,11.318,0,11.318,0
		l37.748,14.797l34.292-0.166L309.413,208.302z"/>
	<path fill="none" stroke="#4C4545" stroke-width="0.9717" stroke-linecap="round" stroke-miterlimit="10" d="M210.304,175.042
		c0,0,1.31,2.555,4.015,4.137c2.704,1.582,7.137,2.887,8.781,4.998c1.673,2.109,0.53,5.414-1.254,5.941s-8.058,0.777-11.097-0.807
		c-3.038-1.582-9.896-6.523-9.896-6.523"/>
	<path fill="none" stroke="#4C4545" stroke-width="0.9717" stroke-linecap="round" stroke-miterlimit="10" d="M199.514,194.06
		c0,0,3.514,3.359,8.002,4.859c4.488,1.525,9.312,0.527,10.705-1.25c1.395-1.777,1.088-3.887,0.586-4.525
		c-0.976-1.305-3.959-0.805-3.959-0.805"/>
	
		<line fill="none" stroke="#4C4545" stroke-width="0.9717" stroke-linecap="round" stroke-miterlimit="10" x1="214.848" y1="192.339" x2="211.864" y2="189.784"/>
	<path fill="none" stroke="#4C4545" stroke-width="0.9717" stroke-linecap="round" stroke-miterlimit="10" d="M200.853,204.415
		c0,0,4.935,2.998,9.2,2.775c4.266-0.25,7.081-2.082,7.388-3.664s0.056-2.332-0.529-3.109c-0.614-0.777-2.899-0.75-2.899-0.75"/>
	<path fill="none" stroke="#4C4545" stroke-width="0.9717" stroke-linecap="round" stroke-miterlimit="10" d="M213.565,212.8
		c0,0,3.54-1.195,4.377-3.555c0.836-2.359-1.311-4.387-1.311-4.387"/>
	<path fill="none" stroke="#4C4545" stroke-width="0.9717" stroke-linecap="round" stroke-miterlimit="10" d="M220.813,192.366
		c0,0-0.195,5.053,3.095,9.273c3.29,4.246,10.287,4.857,10.287,4.857"/>
	<path fill="none" stroke="#4C4545" stroke-width="0.9717" stroke-linecap="round" stroke-miterlimit="10" d="M224.688,168.991
		c0,0,0.921,8.551,0.864,11.52"/>
	<path fill="none" stroke="#4C4545" stroke-width="0.9717" stroke-linecap="round" stroke-miterlimit="10" d="M220.535,206.497
		c0,0,0.725,1.693,2.899,3.082"/>
	<path fill="none" stroke="#4C4545" stroke-width="0.9717" stroke-linecap="round" stroke-miterlimit="10" d="M203.528,175.653
		c0,0-2.063,1.666-2.453,4.525"/>
	<path fill="none" stroke="#4C4545" stroke-width="0.9717" stroke-linecap="round" stroke-miterlimit="10" d="M199.514,185.509
		c0,0-1.003,2.527-0.501,5.525"/>
	<path fill="none" stroke="#4C4545" stroke-width="0.9717" stroke-linecap="round" stroke-miterlimit="10" d="M209.969,201.167
		c0,0-0.307,3.109,0.725,4.469"/>
	<path fill="none" stroke="#4C4545" stroke-width="0.9717" stroke-linecap="round" stroke-miterlimit="10" d="M213.565,193.448
		c0,0-1.562,3.109-1.701,4.414"/>
	<path fill="none" stroke="#4C4545" stroke-width="0.9717" stroke-linecap="round" stroke-miterlimit="10" d="M218.751,182.788
		c0,0-3.318,3.887-3.179,6.135"/>
	<path fill="none" stroke="#4C4545" stroke-width="0.9717" stroke-linecap="round" stroke-miterlimit="10" d="M243.2,193.448
		c0,0,0,4.498-1.923,8.773c-1.924,4.275-3.819,4.969-3.819,4.969"/>
	
		<line fill="none" stroke="#4C4545" stroke-width="0.9717" stroke-linecap="round" stroke-miterlimit="10" x1="226.306" y1="163.077" x2="230.962" y2="164.354"/>
	
		<line fill="none" stroke="#4C4545" stroke-width="0.9717" stroke-linecap="round" stroke-miterlimit="10" x1="244.315" y1="211.022" x2="257.001" y2="215.243"/>
	<path fill="#907669" d="M270.188,79.79l-43.296,4.719c0,0-6.58-7.135-12.044-10.466c-5.437-3.358-9.061-16.823-9.729-21.21
		c-0.67-4.387-4.768-2.277-5.911,0.86c-1.143,3.138-2.286,11.55,1.171,18.601c3.485,7.023,3.346,6.469,3.346,6.469
		s-13.047,0.111-17.062,1.443c-4.015,1.361-8.447,6.524-4.628,11.827c0,0-4.07,6.079,2.982,10.993c0,0-1.365,4.831,4.852,9.051
		c0,0,0.167,3.415,3.931,5.275c3.736,1.832,9.423,1.916,11.765-1.389c0,0,6.607,0.75,13.383-1.638
		c6.774-2.388,10.343-4.304,10.343-4.304l60.609,7.773l7.192-5.969L270.188,79.79z"/>
	<path fill="none" stroke="#4C4545" stroke-width="0.9717" stroke-linecap="round" stroke-miterlimit="10" d="M188.837,81.788
		c0,0,2.202,1.833,5.297,2.25c3.066,0.416,7.639-0.057,9.952,1.248c2.314,1.306,2.537,4.748,1.115,5.887
		c-1.422,1.166-7.081,3.803-10.454,3.498c-3.401-0.277-11.598-2.221-11.598-2.221"/>
	<path fill="none" stroke="#4C4545" stroke-width="0.9717" stroke-linecap="round" stroke-miterlimit="10" d="M186.271,103.276
		c0,0,4.488,1.75,9.172,1.416c4.712-0.305,8.755-3.054,9.34-5.191c0.586-2.166-0.502-3.97-1.198-4.387
		c-1.395-0.832-3.932,0.777-3.932,0.777"/>
	
		<line fill="none" stroke="#4C4545" stroke-width="0.9717" stroke-linecap="round" stroke-miterlimit="10" x1="199.653" y1="95.891" x2="195.945" y2="94.67"/>
	<path fill="none" stroke="#4C4545" stroke-width="0.9717" stroke-linecap="round" stroke-miterlimit="10" d="M191.457,112.272
		c0,0,5.688,0.859,9.479-0.973c3.82-1.859,5.716-4.608,5.381-6.163c-0.334-1.555-0.864-2.138-1.7-2.638
		c-0.837-0.5-2.928,0.417-2.928,0.417"/>
	<path fill="none" stroke="#4C4545" stroke-width="0.9717" stroke-linecap="round" stroke-miterlimit="10" d="M206.316,115.103
		c0,0,2.788-2.415,2.648-4.914c-0.139-2.471-2.899-3.498-2.899-3.498"/>
	<path fill="none" stroke="#4C4545" stroke-width="0.9717" stroke-linecap="round" stroke-miterlimit="10" d="M205.118,93.643
		c0,0,1.756,4.691,6.384,7.329c4.656,2.638,11.264,0.527,11.264,0.527"/>
	<path fill="none" stroke="#4C4545" stroke-width="0.9717" stroke-linecap="round" stroke-miterlimit="10" d="M199.709,70.766
		c0,0,4.126,7.469,5.214,10.217"/>
	<path fill="none" stroke="#4C4545" stroke-width="0.9717" stroke-linecap="round" stroke-miterlimit="10" d="M210.275,106.691
		c0,0,1.311,1.277,3.848,1.722"/>
	<path fill="none" stroke="#4C4545" stroke-width="0.9717" stroke-linecap="round" stroke-miterlimit="10" d="M182.898,84.925
		c0,0-1.282,2.276-0.53,5.053"/>
	<path fill="none" stroke="#4C4545" stroke-width="0.9717" stroke-linecap="round" stroke-miterlimit="10" d="M198.538,105.831
		c0,0,0.92,2.943,2.397,3.803"/>
	<path fill="none" stroke="#4C4545" stroke-width="0.9717" stroke-linecap="round" stroke-miterlimit="10" d="M198.9,97.391
		c0,0-0.251,3.441,0.14,4.691"/>
	<path fill="none" stroke="#4C4545" stroke-width="0.9717" stroke-linecap="round" stroke-miterlimit="10" d="M199.542,85.647
		c0,0-1.506,4.831-0.529,6.83"/>
	<path fill="none" stroke="#4C4545" stroke-width="0.9717" stroke-linecap="round" stroke-miterlimit="10" d="M226.027,86.147
		c0,0,1.729,4.109,1.589,8.745c-0.111,4.636-1.589,6.024-1.589,6.024"/>
	
		<line fill="none" stroke="#4C4545" stroke-width="0.9717" stroke-linecap="round" stroke-miterlimit="10" x1="198.929" y1="64.743" x2="203.696" y2="64.131"/>
	
		<line fill="none" stroke="#4C4545" stroke-width="0.9717" stroke-linecap="round" stroke-miterlimit="10" x1="229.512" y1="102.527" x2="242.755" y2="101.583"/>
	<polygon fill="#FFFFFF" points="236.119,81.956 237.903,113.659 249.307,115.353 245.235,80.151 	"/>
	<polygon fill="#A6ADD7" points="243.591,76.819 246.714,119.35 298.792,117.185 313.428,71.489 	"/>
</g>
</svg>
