<?xml version="1.0" encoding="utf-8"?>
<!-- Generator: Adobe Illustrator 16.0.0, SVG Export Plug-In . SVG Version: 6.00 Build 0)  -->
<!DOCTYPE svg PUBLIC "-//W3C//DTD SVG 1.1//EN" "http://www.w3.org/Graphics/SVG/1.1/DTD/svg11.dtd">
<svg version="1.1" id="Layer_1" xmlns="http://www.w3.org/2000/svg" xmlns:xlink="http://www.w3.org/1999/xlink" x="0px" y="0px"
	 width="60.61px" height="68.268px" viewBox="0 0 60.61 68.268" enable-background="new 0 0 60.61 68.268" xml:space="preserve">
<g>
	<path fill-rule="evenodd" clip-rule="evenodd" fill="#BBD532" d="M0.558,0h21.161l-2.37,2.97H3.457
		c-0.25,0-0.474,0.222-0.474,0.472v52.86c0,0.277,0.223,0.472,0.474,0.472h53.696c0.278,0,0.501-0.194,0.501-0.472V3.443
		c0-0.25-0.223-0.472-0.501-0.472H26.708L24.339,0H60.08c0.307,0,0.53,0.25,0.53,0.555v58.662c0,0.277-0.224,0.527-0.53,0.527H0.558
		C0.251,59.745,0,59.495,0,59.218V0.556C0,0.25,0.251,0,0.558,0L0.558,0z"/>
	<path fill="#BBD532" d="M55.145,8.329c0,0.111-0.027,0.222-0.111,0.277c-0.084,0.083-0.167,0.111-0.279,0.111h-7.108
		c-0.112,0-0.168,0.056-0.168,0.167v6.191c0,0.111,0.056,0.167,0.168,0.167h4.209c0.112,0,0.195,0.028,0.279,0.111
		c0.083,0.083,0.111,0.167,0.111,0.277v2.526c0,0.111-0.028,0.194-0.111,0.278c-0.084,0.083-0.167,0.111-0.279,0.111h-4.209
		c-0.112,0-0.168,0.056-0.168,0.167v6.219c0,0.111,0.056,0.167,0.168,0.167h7.108c0.112,0,0.195,0.028,0.279,0.111
		c0.084,0.083,0.111,0.167,0.111,0.278v2.499c0,0.111-0.027,0.194-0.111,0.277c-0.084,0.056-0.167,0.111-0.279,0.111H44.077
		c-0.111,0-0.223-0.056-0.278-0.111c-0.084-0.083-0.111-0.167-0.111-0.277V5.858c0-0.111,0.027-0.222,0.111-0.278
		c0.056-0.083,0.167-0.111,0.278-0.111h10.678c0.112,0,0.195,0.027,0.279,0.111c0.084,0.056,0.111,0.167,0.111,0.278V8.329z"/>
	<path fill="#BBD532" d="M32.507,8.718c-0.111,0-0.167,0.056-0.167,0.167v6.524c0,0.111,0.056,0.167,0.167,0.167h2.007
		c0.781,0,1.422-0.306,1.924-0.917c0.475-0.611,0.725-1.443,0.725-2.499c0-1.027-0.25-1.888-0.725-2.499
		c-0.502-0.611-1.143-0.944-1.924-0.944H32.507z M37.637,28.374c-0.224,0-0.362-0.111-0.446-0.333l-2.788-9.384
		c-0.056-0.083-0.083-0.139-0.167-0.139h-1.729c-0.111,0-0.167,0.056-0.167,0.167v9.3c0,0.111-0.056,0.194-0.112,0.277
		c-0.083,0.056-0.167,0.111-0.278,0.111h-3.039c-0.111,0-0.195-0.056-0.279-0.111c-0.083-0.083-0.111-0.167-0.111-0.277V5.858
		c0-0.111,0.028-0.222,0.111-0.278c0.084-0.083,0.167-0.111,0.279-0.111H35.1c1.143,0,2.175,0.277,3.066,0.833
		c0.893,0.555,1.589,1.333,2.063,2.36c0.502,1,0.753,2.166,0.753,3.47c0,1.36-0.279,2.526-0.781,3.498
		c-0.529,1-1.282,1.721-2.202,2.221c-0.111,0.028-0.14,0.111-0.111,0.194l3.233,9.855c0,0.056,0.028,0.111,0.028,0.167
		c0,0.194-0.14,0.306-0.362,0.306H37.637z"/>
	<path fill="#BBD532" d="M13.8,5.858c0-0.111,0.028-0.222,0.111-0.278c0.084-0.083,0.167-0.111,0.279-0.111h3.011
		c0.111,0,0.223,0.027,0.279,0.111c0.083,0.056,0.139,0.167,0.139,0.278v22.126c0,0.111-0.056,0.194-0.139,0.277
		c-0.056,0.056-0.167,0.111-0.279,0.111h-3.011c-0.112,0-0.195-0.056-0.279-0.111c-0.083-0.083-0.111-0.167-0.111-0.277v-9.273
		c0-0.111-0.056-0.167-0.167-0.167H9.451c-0.111,0-0.167,0.056-0.167,0.167v9.273c0,0.111-0.028,0.194-0.111,0.277
		c-0.083,0.056-0.167,0.111-0.279,0.111H5.883c-0.112,0-0.223-0.056-0.279-0.111c-0.084-0.083-0.112-0.167-0.112-0.277V5.858
		c0-0.111,0.028-0.222,0.112-0.278C5.66,5.497,5.771,5.47,5.883,5.47h3.011c0.112,0,0.195,0.027,0.279,0.111
		c0.083,0.056,0.111,0.167,0.111,0.278v9.217c0,0.111,0.056,0.167,0.167,0.167h4.182c0.111,0,0.167-0.055,0.167-0.167V5.858z"/>
	<path fill="#BBD532" d="M55.201,34.009c0,0.111-0.056,0.194-0.111,0.277c-0.084,0.083-0.167,0.111-0.279,0.111h-7.108
		c-0.111,0-0.168,0.056-0.168,0.167v6.191c0,0.11,0.057,0.166,0.168,0.166h4.209c0.112,0,0.195,0.028,0.279,0.111
		c0.084,0.056,0.111,0.166,0.111,0.277v2.499c0,0.11-0.027,0.222-0.111,0.277c-0.084,0.083-0.167,0.139-0.279,0.139h-4.209
		c-0.111,0-0.168,0.056-0.168,0.167v6.219c0,0.083,0.057,0.139,0.168,0.139h7.108c0.112,0,0.195,0.056,0.279,0.139
		c0.056,0.056,0.111,0.167,0.111,0.277v2.471c0,0.111-0.056,0.194-0.111,0.278c-0.084,0.083-0.167,0.11-0.279,0.11H44.133
		c-0.112,0-0.224-0.027-0.279-0.11c-0.084-0.084-0.14-0.167-0.14-0.278V31.511c0-0.111,0.056-0.194,0.14-0.278
		c0.056-0.083,0.167-0.111,0.279-0.111H54.81c0.112,0,0.195,0.028,0.279,0.111c0.056,0.083,0.111,0.167,0.111,0.278V34.009z"/>
	<path fill="#BBD532" d="M34.403,54.304c-1.84,0-3.289-0.556-4.405-1.639c-1.115-1.11-1.673-2.526-1.673-4.303v-0.833
		c0-0.111,0.028-0.222,0.112-0.277c0.083-0.083,0.167-0.111,0.279-0.111h2.983c0.111,0,0.195,0.028,0.278,0.111
		c0.084,0.056,0.112,0.166,0.112,0.277v0.639c0,0.86,0.223,1.555,0.641,2.082c0.446,0.5,0.976,0.777,1.673,0.777
		c0.669,0,1.227-0.25,1.673-0.749c0.446-0.473,0.642-1.139,0.642-1.943c0-0.556-0.111-1.056-0.362-1.472
		c-0.224-0.417-0.558-0.806-1.004-1.166c-0.446-0.389-1.144-0.916-2.119-1.61c-1.087-0.777-1.951-1.499-2.621-2.11
		c-0.669-0.61-1.227-1.332-1.701-2.192c-0.446-0.861-0.669-1.86-0.669-2.999c0-1.805,0.558-3.248,1.645-4.331
		c1.115-1.055,2.537-1.583,4.349-1.583s3.29,0.555,4.405,1.666c1.114,1.139,1.672,2.61,1.672,4.47v0.805
		c0,0.083-0.027,0.194-0.111,0.277c-0.083,0.056-0.167,0.111-0.278,0.111h-2.955c-0.112,0-0.224-0.056-0.279-0.111
		c-0.083-0.083-0.111-0.194-0.111-0.277v-0.86c0-0.86-0.223-1.527-0.642-2.055c-0.445-0.5-1.003-0.777-1.7-0.777
		c-0.669,0-1.199,0.25-1.617,0.722s-0.613,1.11-0.613,1.943c0,0.777,0.223,1.444,0.669,1.999c0.446,0.556,1.338,1.305,2.648,2.249
		c1.339,0.999,2.342,1.805,3.012,2.415c0.696,0.611,1.198,1.305,1.589,2.055c0.362,0.722,0.558,1.61,0.558,2.638
		c0,1.859-0.558,3.358-1.673,4.47C37.693,53.721,36.215,54.304,34.403,54.304L34.403,54.304z"/>
	<path fill="#BBD532" d="M21.523,54.025c-0.112,0-0.223-0.027-0.279-0.11c-0.083-0.084-0.112-0.167-0.112-0.278V5.22
		c0-0.111,0.028-0.222,0.112-0.278c0.056-0.083,0.167-0.139,0.279-0.139h3.011c0.112,0,0.195,0.056,0.279,0.139
		c0.083,0.056,0.112,0.167,0.112,0.278v48.417c0,0.111-0.028,0.194-0.112,0.278c-0.083,0.083-0.167,0.11-0.279,0.11H21.523z"/>
	<path fill="#BBD532" d="M9.451,34.398c-0.111,0-0.167,0.056-0.167,0.167v6.496c0,0.111,0.056,0.167,0.167,0.167h2.007
		c0.781,0,1.422-0.306,1.924-0.916c0.501-0.611,0.752-1.444,0.752-2.471c0-1.056-0.251-1.889-0.752-2.499
		c-0.502-0.639-1.143-0.944-1.924-0.944H9.451z M14.581,54.025c-0.223,0-0.362-0.11-0.418-0.305l-2.788-9.412
		c-0.056-0.083-0.112-0.139-0.167-0.139H9.451c-0.111,0-0.167,0.056-0.167,0.167v9.3c0,0.111-0.028,0.194-0.111,0.278
		c-0.083,0.083-0.167,0.11-0.279,0.11H5.883c-0.112,0-0.223-0.027-0.279-0.11c-0.084-0.084-0.112-0.167-0.112-0.278V31.511
		c0-0.111,0.028-0.194,0.112-0.278c0.056-0.083,0.167-0.111,0.279-0.111h6.161c1.171,0,2.203,0.277,3.095,0.833
		c0.864,0.556,1.561,1.333,2.063,2.36c0.502,1.027,0.725,2.166,0.725,3.498c0,1.333-0.251,2.499-0.78,3.498
		c-0.53,0.972-1.255,1.722-2.203,2.221c-0.083,0.028-0.111,0.084-0.083,0.194l3.206,9.856c0.028,0.027,0.028,0.083,0.028,0.166
		c0,0.194-0.111,0.277-0.362,0.277H14.581z"/>
	<path fill-rule="evenodd" clip-rule="evenodd" fill="#BBD532" d="M23.224,0.083l4.126,5.192c0.083,0.139,0.167,0.361-0.083,0.361
		h-8.476c-0.251,0-0.167-0.25-0.083-0.361l4.126-5.192C22.945-0.027,23.112-0.027,23.224,0.083L23.224,0.083z"/>
	<path fill="#FFFFFF" d="M1.227,64.437h0.558v3.775H1.227V64.437z M0.279,64.104h2.454v0.527H0.279V64.104z M4.042,64.104h0.502
		l1.227,4.108H5.186l-0.892-3.304l-0.892,3.304H2.816L4.042,64.104z M3.457,66.797h1.701v0.527H3.457V66.797z M6.273,64.104h0.558
		v4.108H6.273V64.104z M6.58,67.685h1.896v0.527H6.58V67.685z M9.005,64.104h0.585v4.108H9.005V64.104z M9.312,67.685h1.923v0.527
		H9.312V67.685z M9.312,65.908h1.7v0.527h-1.7V65.908z M9.312,64.104h1.923v0.527H9.312V64.104z M11.849,64.104h0.502l1.589,3.165
		l-0.084,0.083v-3.248h0.53v4.108h-0.502l-1.561-3.081l0.083-0.083v3.164h-0.558V64.104z M15.724,64.437h0.558v3.775h-0.558V64.437z
		 M14.776,64.104h2.454v0.527h-2.454V64.104z M20.073,68.268c-0.223,0-0.418-0.056-0.585-0.11c-0.167-0.056-0.307-0.167-0.418-0.306
		c-0.111-0.111-0.195-0.277-0.25-0.472l0,0l0.529-0.223l0,0c0.056,0.194,0.14,0.333,0.279,0.417c0.112,0.11,0.279,0.166,0.446,0.166
		c0.223,0,0.39-0.056,0.53-0.166c0.111-0.084,0.167-0.223,0.167-0.389v-0.194c0-0.111-0.028-0.223-0.083-0.306
		c-0.083-0.056-0.14-0.139-0.251-0.167c-0.083-0.056-0.223-0.083-0.39-0.139l0,0c0,0,0,0-0.028,0H19.99
		c-0.223-0.083-0.418-0.139-0.558-0.222c-0.14-0.056-0.251-0.167-0.363-0.306c-0.083-0.139-0.139-0.333-0.139-0.583v-0.139
		c0-0.223,0.028-0.417,0.139-0.583c0.084-0.167,0.223-0.277,0.418-0.361c0.195-0.083,0.418-0.139,0.669-0.139
		c0.195,0,0.362,0.056,0.502,0.111c0.167,0.056,0.279,0.166,0.39,0.277c0.112,0.139,0.167,0.277,0.223,0.444l0,0l-0.53,0.25l0,0
		c-0.028-0.167-0.111-0.306-0.223-0.389c-0.111-0.111-0.223-0.139-0.362-0.139c-0.223,0-0.39,0.027-0.502,0.139
		c-0.111,0.083-0.167,0.222-0.167,0.389v0.139c0,0.111,0.028,0.222,0.083,0.306c0.083,0.056,0.167,0.139,0.251,0.166
		c0.111,0.056,0.251,0.084,0.418,0.139c0,0,0,0,0.028,0l0,0c0.028,0.028,0.028,0.028,0.028,0.028c0.028,0,0.028,0,0.028,0
		c0.223,0.056,0.39,0.139,0.53,0.194c0.139,0.056,0.25,0.166,0.334,0.306c0.083,0.139,0.139,0.333,0.139,0.583v0.194
		c0,0.222-0.056,0.416-0.139,0.583c-0.112,0.166-0.251,0.277-0.446,0.36C20.575,68.212,20.352,68.268,20.073,68.268L20.073,68.268z
		 M22.025,64.104h0.558v4.108h-0.558V64.104z M22.304,67.685h1.923v0.527h-1.923V67.685z M22.304,65.908h1.7v0.527h-1.7V65.908z
		 M22.304,64.104h1.923v0.527h-1.923V64.104z M25.789,64.104h0.501l1.227,4.108h-0.585l-0.893-3.304l-0.892,3.304h-0.585
		L25.789,64.104z M25.203,66.797h1.7v0.527h-1.7V66.797z M28.27,65.936h1.087c0.111,0,0.195,0,0.279-0.056
		c0.083-0.055,0.139-0.11,0.167-0.194c0.056-0.083,0.084-0.166,0.084-0.277v-0.222c0-0.111-0.028-0.223-0.084-0.306
		c-0.028-0.083-0.083-0.139-0.167-0.194c-0.083-0.027-0.167-0.056-0.279-0.056H28.27v-0.527h1.06c0.223,0,0.418,0.027,0.585,0.111
		c0.167,0.083,0.307,0.222,0.39,0.389c0.112,0.139,0.14,0.333,0.14,0.555v0.25c0,0.223-0.028,0.389-0.14,0.556
		c-0.083,0.166-0.223,0.305-0.39,0.389c-0.167,0.083-0.362,0.11-0.585,0.11h-1.06V65.936z M28.019,64.104h0.558v4.108h-0.558V64.104
		z M29.189,66.353l0.558-0.139l0.836,1.998h-0.641L29.189,66.353z M32.396,68.268c-0.251,0-0.475-0.056-0.642-0.166
		c-0.167-0.111-0.307-0.25-0.418-0.444c-0.084-0.194-0.14-0.417-0.14-0.694v-1.61c0-0.25,0.056-0.499,0.14-0.693
		c0.111-0.194,0.251-0.334,0.418-0.444c0.167-0.111,0.391-0.167,0.642-0.167c0.223,0,0.446,0.056,0.613,0.167
		c0.167,0.083,0.307,0.222,0.39,0.389c0.112,0.194,0.168,0.416,0.195,0.693l0,0h-0.585l0,0c0-0.166-0.056-0.277-0.084-0.389
		c-0.056-0.083-0.14-0.166-0.223-0.222c-0.084-0.056-0.195-0.083-0.307-0.083c-0.14,0-0.251,0.027-0.335,0.083
		s-0.167,0.167-0.223,0.277c-0.056,0.111-0.084,0.25-0.084,0.389v1.61c0,0.167,0.028,0.277,0.084,0.389
		c0.056,0.139,0.139,0.223,0.223,0.277c0.084,0.056,0.195,0.084,0.335,0.084c0.111,0,0.223-0.028,0.307-0.084
		c0.083-0.055,0.167-0.11,0.223-0.222c0.028-0.111,0.084-0.222,0.084-0.361l0,0h0.585l0,0c-0.027,0.25-0.083,0.473-0.195,0.667
		c-0.083,0.166-0.223,0.305-0.39,0.416C32.842,68.212,32.619,68.268,32.396,68.268L32.396,68.268z M36.104,64.104h0.558v4.108
		h-0.558V64.104z M34.263,64.104h0.558v4.108h-0.558V64.104z M34.626,65.936h1.756v0.527h-1.756V65.936z M39.951,68.268
		c-0.223,0-0.418-0.056-0.585-0.11c-0.168-0.056-0.335-0.167-0.446-0.306c-0.111-0.111-0.195-0.277-0.223-0.472l0,0l0.529-0.223l0,0
		c0.056,0.194,0.14,0.333,0.251,0.417c0.14,0.11,0.278,0.166,0.474,0.166c0.224,0,0.391-0.056,0.502-0.166
		c0.111-0.084,0.195-0.223,0.195-0.389v-0.194c0-0.111-0.028-0.223-0.111-0.306c-0.056-0.056-0.14-0.139-0.224-0.167
		c-0.111-0.056-0.223-0.083-0.39-0.139c0,0,0,0-0.028,0l0,0h-0.027c-0.224-0.083-0.419-0.139-0.558-0.222
		c-0.14-0.056-0.279-0.167-0.362-0.306c-0.112-0.139-0.168-0.333-0.168-0.583v-0.139c0-0.223,0.056-0.417,0.14-0.583
		c0.111-0.167,0.251-0.277,0.446-0.361c0.167-0.083,0.39-0.139,0.669-0.139c0.167,0,0.362,0.056,0.502,0.111s0.278,0.166,0.39,0.277
		c0.084,0.139,0.168,0.277,0.224,0.444l0,0l-0.53,0.25l0,0c-0.056-0.167-0.111-0.306-0.223-0.389
		c-0.111-0.111-0.223-0.139-0.362-0.139c-0.223,0-0.391,0.027-0.502,0.139c-0.14,0.083-0.195,0.222-0.195,0.389v0.139
		c0,0.111,0.028,0.222,0.111,0.306c0.056,0.056,0.14,0.139,0.251,0.166c0.084,0.056,0.224,0.084,0.391,0.139
		c0.028,0,0.028,0,0.028,0h0.027c0,0.028,0.028,0.028,0.028,0.028h0.027c0.195,0.056,0.391,0.139,0.502,0.194
		c0.14,0.056,0.251,0.166,0.362,0.306c0.084,0.139,0.14,0.333,0.14,0.583v0.194c0,0.222-0.056,0.416-0.167,0.583
		c-0.084,0.166-0.224,0.277-0.419,0.36C40.425,68.212,40.202,68.268,39.951,68.268L39.951,68.268z M41.875,64.104h0.558v4.108
		h-0.558V64.104z M42.154,67.685h1.951v0.527h-1.951V67.685z M42.154,65.908h1.7v0.527h-1.7V65.908z M42.154,64.104h1.951v0.527
		h-1.951V64.104z M44.969,65.936h1.087c0.112,0,0.195,0,0.279-0.056c0.056-0.055,0.14-0.11,0.167-0.194
		c0.056-0.083,0.056-0.166,0.056-0.277v-0.222c0-0.111,0-0.223-0.056-0.306c-0.027-0.083-0.111-0.139-0.167-0.194
		c-0.084-0.027-0.167-0.056-0.279-0.056h-1.087v-0.527h1.06c0.223,0,0.418,0.027,0.585,0.111c0.168,0.083,0.307,0.222,0.391,0.389
		c0.084,0.139,0.14,0.333,0.14,0.555v0.25c0,0.223-0.056,0.389-0.14,0.556c-0.084,0.166-0.223,0.305-0.391,0.389
		c-0.167,0.083-0.362,0.11-0.585,0.11h-1.06V65.936z M44.718,64.104h0.558v4.108h-0.558V64.104z M45.889,66.353l0.529-0.139
		l0.864,1.998h-0.641L45.889,66.353z M47.59,64.104h0.585l0.78,3.192l0.781-3.192h0.585l-1.087,4.108h-0.558L47.59,64.104z
		 M51.326,68.212h-0.558v-4.108h0.558V68.212z M53.277,68.268c-0.251,0-0.445-0.056-0.641-0.166
		c-0.168-0.111-0.307-0.25-0.419-0.444c-0.083-0.194-0.139-0.417-0.139-0.694v-1.61c0-0.25,0.056-0.499,0.139-0.693
		c0.112-0.194,0.251-0.334,0.419-0.444c0.195-0.111,0.39-0.167,0.641-0.167s0.446,0.056,0.613,0.167
		c0.168,0.083,0.307,0.222,0.419,0.389c0.083,0.194,0.139,0.416,0.167,0.693l0,0h-0.558l0,0c-0.028-0.166-0.056-0.277-0.111-0.389
		c-0.056-0.083-0.14-0.166-0.224-0.222c-0.083-0.056-0.194-0.083-0.307-0.083c-0.111,0-0.223,0.027-0.334,0.083
		c-0.084,0.056-0.168,0.167-0.224,0.277c-0.027,0.111-0.056,0.25-0.056,0.389v1.61c0,0.167,0.028,0.277,0.056,0.389
		c0.056,0.139,0.14,0.223,0.224,0.277c0.111,0.056,0.223,0.084,0.334,0.084c0.112,0,0.224-0.028,0.307-0.084
		c0.084-0.055,0.168-0.11,0.224-0.222s0.083-0.222,0.111-0.361l0,0h0.558l0,0c-0.028,0.25-0.084,0.473-0.167,0.667
		c-0.112,0.166-0.251,0.305-0.419,0.416C53.723,68.212,53.528,68.268,53.277,68.268L53.277,68.268z M55.145,64.104h0.558v4.108
		h-0.558V64.104z M55.424,67.685h1.923v0.527h-1.923V67.685z M55.424,65.908h1.7v0.527h-1.7V65.908z M55.424,64.104h1.923v0.527
		h-1.923V64.104z M59.104,68.268c-0.223,0-0.418-0.056-0.586-0.11c-0.167-0.056-0.334-0.167-0.445-0.306
		c-0.112-0.111-0.168-0.277-0.224-0.472l0,0l0.53-0.223l0,0c0.056,0.194,0.139,0.333,0.251,0.417
		c0.139,0.11,0.278,0.166,0.474,0.166c0.223,0,0.391-0.056,0.502-0.166c0.139-0.084,0.195-0.223,0.195-0.389v-0.194
		c0-0.111-0.028-0.223-0.112-0.306c-0.056-0.056-0.139-0.139-0.223-0.167c-0.111-0.056-0.223-0.083-0.391-0.139c0,0,0,0-0.027,0l0,0
		H59.02c-0.223-0.083-0.418-0.139-0.558-0.222c-0.139-0.056-0.278-0.167-0.362-0.306c-0.111-0.139-0.167-0.333-0.167-0.583v-0.139
		c0-0.223,0.056-0.417,0.14-0.583c0.111-0.167,0.251-0.277,0.445-0.361c0.168-0.083,0.391-0.139,0.67-0.139
		c0.167,0,0.362,0.056,0.501,0.111c0.14,0.056,0.279,0.166,0.391,0.277c0.084,0.139,0.167,0.277,0.223,0.444l0,0l-0.529,0.25l0,0
		c-0.056-0.167-0.111-0.306-0.223-0.389c-0.112-0.111-0.224-0.139-0.362-0.139c-0.224,0-0.391,0.027-0.502,0.139
		c-0.14,0.083-0.195,0.222-0.195,0.389v0.139c0,0.111,0.027,0.222,0.111,0.306c0.056,0.056,0.14,0.139,0.251,0.166
		c0.084,0.056,0.223,0.084,0.391,0.139c0.027,0,0.027,0,0.027,0c0.028,0,0.028,0,0.028,0c0,0.028,0.027,0.028,0.027,0.028h0.028
		c0.195,0.056,0.39,0.139,0.502,0.194c0.139,0.056,0.251,0.166,0.362,0.306c0.083,0.139,0.14,0.333,0.14,0.583v0.194
		c0,0.222-0.057,0.416-0.168,0.583c-0.083,0.166-0.223,0.277-0.418,0.36S59.355,68.268,59.104,68.268L59.104,68.268z"/>
</g>
</svg>
