<?xml version="1.0" encoding="utf-8"?>
<!-- Generator: Adobe Illustrator 16.0.0, SVG Export Plug-In . SVG Version: 6.00 Build 0)  -->
<!DOCTYPE svg PUBLIC "-//W3C//DTD SVG 1.1//EN" "http://www.w3.org/Graphics/SVG/1.1/DTD/svg11.dtd">
<svg version="1.1" id="Layer_1" xmlns="http://www.w3.org/2000/svg" xmlns:xlink="http://www.w3.org/1999/xlink" x="0px" y="0px"
	 width="324.709px" height="307.107px" viewBox="0 0 324.709 307.107" enable-background="new 0 0 324.709 307.107"
	 xml:space="preserve">
<g>
	<path fill="#EFCDA6" d="M140.093,173.876c-2.648,1.749-4.21,7.662-5.102,10.55c-0.948,3.025-2.37,6.523-2.565,9.744
		c-0.111,2.193,0.446,5.83,2.51,6.94c3.205,1.749,10.092,1.027,13.02-0.999c5.52-3.887,8.113-10.772,12.35-15.741
		c1.896-2.222,3.123-5.58,5.326-7.469c1.227-1.055,3.373-1.305,4.99-1.443c1.867-0.111,3.15,0.556,4.906,1.36
		c1.701,0.777,10.398,7.135,11.598,8.606c0.641,0.777,2.51,9.245,2.732,10.188c0.502,2.166-5.771-7.523-4.99-5.413
		c1.199,3.109,2.621,5.996,4.07,8.995c0.92,1.832,1.84,3.72,2.676,5.552c2.119,4.581,6.273,8.079,9.563,11.827
		c4.936,5.691,10.344,10.966,16.729,14.936c5.574,3.471,14.748,9.079,21.215,5.137c4.07-2.471,8.783-7.663,9.926-12.521
		c0.111-0.527,0.111-1.609-0.111-2.138c-0.363-0.943-1.701-1.804-2.398-2.526c-1.143-1.193,7.834,3.887,6.803,2.61
		c-6.412-7.912-15.641-21.321-25.342-32.898c-7.389-8.801-8.281-9.551-15.055-18.823c-1.338-1.859-5.354-6.552-10.037-8.967
		c-1.59-0.833-3.484-2.305-5.27-2.332c-5.854-0.139-11.234-1.916-16.867-3.192c-3.764-0.861-7.275-1.361-10.9-2.859
		c-1.867-0.777-3.764-1.611-5.854-2.305c-2.063-0.723-4.74-1.305-6.719-0.473c-2.648,1.139-4.434,4.525-6.022,6.719
		c-2.565,3.526-5.521,6.719-7.917,10.384C142.463,168.684,139.703,171.433,140.093,173.876L140.093,173.876z"/>
	<path fill="#EFCDA6" d="M152.081,153.554c1.478-0.694,4.042-1.389,5.771-1.11c2.314,0.389,2.983,2.721,4.238,4.914
		c2.007,3.498,3.93,10.133,7.973,11.993c2.678,1.222,5.939,1.11,8.754,1.915c3.039,0.889,7.361,3.221,9.73,5.331
		c2.787,2.442,4.098,7.052,5.967,10.327c2.508,4.387,5.854,8.356,8.336,12.715c2.285,4.054,3.791,10.189,2.229,14.715
		c-1.113-0.473-2.035-1.527-2.898-2.332c-3.4-3.138-7.025-6.053-10.482-9.134c-6.998-6.247-13.771-12.743-20.742-19.045
		c-4.266-3.832-9.061-8.412-11.486-13.743c-1.227-2.721-2.063-5.58-3.652-8.106c-0.947-1.555-1.422-3.415-2.369-4.83
		L152.081,153.554z"/>
	<path fill="#D7B793" d="M172.35,174.32c-0.168-2.388-0.67-4.581,0.277-6.886c0.838-2.109,2.594-3.804,4.322-5.247
		c0.445,2.249-1.59,5.247-2.063,7.523c-0.336,1.527-0.391,3.055-0.418,4.554C173.799,174.265,173.074,174.236,172.35,174.32
		L172.35,174.32z"/>
	<path fill="#D7B793" d="M189.049,184.897c1.422-2.166,4.35-4.248,5.826-5.053c2.314-1.277,4.768-1.61,7.305-1.888
		c-0.445,1.222-2.955,1.305-4.07,1.915c-1.951,1.11-4.516,3.637-5.826,5.47c-0.67,0.943-0.92,2.221-1.758,2.915l-0.055,0.027
		c-0.195-1.193-0.418-2.109-0.559-2.359C189.746,185.675,189.439,185.342,189.049,184.897L189.049,184.897z"/>
	<path fill="#D3AA8A" d="M179.264,255.553c0.613,2.665,0.863,5.386,2.814,7.468c2.26,2.443,5.967,2.942,9.061,3.72
		c6.943,1.722,13.773,2.36,20.742,0.084c1.785-0.583,5.131-1.61,5.465-3.859c0.418-3.054-4.822-6.885-6.914-8.301
		C200.842,248.168,190.443,250.333,179.264,255.553L179.264,255.553z"/>
	<path fill="#DEB391" d="M174.969,258.718c1.256,1.693,4.768,0.999,6.525,1.082c4.293,0.194,8.92,0.417,13.131,1.25
		c3.764,0.722,7.471,1.749,11.318,1.804c1.924,0.028,4.32-0.249,4.906-2.332c0.697-2.442-2.201-5.996-3.512-7.773
		c-4.74-6.552-21.691-17.601-29.357-13.825C173.186,241.255,172.963,252.693,174.969,258.718L174.969,258.718z"/>
	<path fill="#E3BE97" d="M158.995,194.78c0.529,2.526-0.446,13.076-0.558,15.658c-0.195,4.304-0.168,8.523-0.084,12.799
		c0.084,3.554,0.418,7.162,0.613,10.688c0.111,2.165-0.056,4.386,0.335,6.523c0.501,2.721,2.286,3.388,4.655,4.581
		c6.217,3.109,13.383,5.441,20.102,7.135c2.676,0.694,6.244,1.333,8.893-0.056c4.182-2.192,4.572-6.662,3.764-10.743
		c-1.813-9.412-7.387-18.49-13.994-25.348c-5.492-5.719-11.402-11.826-18.512-15.436L158.995,194.78z"/>
	
		<image overflow="visible" width="74" height="60" xlink:href="F008313A.jpg"  transform="matrix(0.2426 0 0 -0.2448 177.8418 251.8047)">
	</image>
	<path fill="#304043" d="M84.836,0C37.972,0,0,37.813,0,84.481c0,46.641,37.972,84.453,84.836,84.453
		c46.838,0,84.809-37.812,84.809-84.453C169.645,37.813,131.674,0,84.836,0L84.836,0z M84.836,158.329L84.836,158.329
		c-40.982,0-74.186-33.065-74.186-73.848c0-40.811,33.203-73.875,74.186-73.875c40.955,0,74.159,33.065,74.159,73.875
		C158.995,125.264,125.791,158.329,84.836,158.329L84.836,158.329z"/>
	<g>
		<defs>
			<path id="SVGID_1_" d="M43.436,35.786c-2.286,1.833-7.025,6.108-11.598,12.826l6.887,3.942
				c5.715-7.801,11.347-12.021,11.347-12.021L43.436,35.786z"/>
		</defs>
		<clipPath id="SVGID_2_">
			<use xlink:href="#SVGID_1_"  overflow="visible"/>
		</clipPath>
		<polygon clip-path="url(#SVGID_2_)" fill="#FFFFFF" points="35.741,31.066 51.409,34.509 50.35,39.256 34.71,35.786 		"/>
		<polygon clip-path="url(#SVGID_2_)" fill="#FFFFFF" points="34.71,35.758 50.35,39.201 50.35,39.284 34.682,35.841 		"/>
		<polygon clip-path="url(#SVGID_2_)" fill="#FFFFFF" points="34.71,35.786 50.35,39.256 50.322,39.339 34.682,35.897 		"/>
		<polygon clip-path="url(#SVGID_2_)" fill="#FFFFFF" points="34.682,35.841 50.35,39.284 50.322,39.395 34.654,35.925 		"/>
		<polygon clip-path="url(#SVGID_2_)" fill="#FFFFFF" points="34.682,35.897 50.322,39.339 50.322,39.423 34.654,35.98 		"/>
		<polygon clip-path="url(#SVGID_2_)" fill="#FFFFFF" points="34.654,35.925 50.322,39.395 50.294,39.478 34.654,36.036 		"/>
		<polygon clip-path="url(#SVGID_2_)" fill="#FFFFFF" points="34.654,35.98 50.322,39.423 50.294,39.534 34.626,36.063 		"/>
		<polygon clip-path="url(#SVGID_2_)" fill="#FFFFFF" points="34.654,36.036 50.294,39.478 50.267,39.562 34.626,36.119 		"/>
		<polygon clip-path="url(#SVGID_2_)" fill="#FFFFFF" points="34.626,36.063 50.294,39.534 50.267,39.617 34.626,36.174 		"/>
		<polygon clip-path="url(#SVGID_2_)" fill="#FFFFFF" points="34.626,36.119 50.267,39.562 50.267,39.672 34.598,36.202 		"/>
		<polygon clip-path="url(#SVGID_2_)" fill="#FFFFFF" points="34.626,36.174 50.267,39.617 50.238,39.7 34.598,36.258 		"/>
		<polygon clip-path="url(#SVGID_2_)" fill="#FFFFFF" points="34.598,36.202 50.267,39.672 50.238,39.756 34.598,36.313 		"/>
		<polygon clip-path="url(#SVGID_2_)" fill="#FFFFFF" points="34.598,36.258 50.238,39.7 50.238,39.812 34.57,36.341 		"/>
		<polygon clip-path="url(#SVGID_2_)" fill="#FFFFFF" points="34.598,36.313 50.238,39.756 50.21,39.839 34.57,36.396 		"/>
		<polygon clip-path="url(#SVGID_2_)" fill="#FFFFFF" points="34.57,36.341 50.238,39.812 50.21,39.895 34.542,36.452 		"/>
		<polygon clip-path="url(#SVGID_2_)" fill="#FFFFFF" points="34.57,36.396 50.21,39.839 50.183,39.95 34.542,36.48 		"/>
		<polygon clip-path="url(#SVGID_2_)" fill="#FFFFFF" points="34.542,36.452 50.21,39.895 50.183,40.006 34.542,36.535 		"/>
		<polygon clip-path="url(#SVGID_2_)" fill="#FFFFFF" points="34.542,36.48 50.183,39.95 50.183,40.034 34.515,36.591 		"/>
		<polygon clip-path="url(#SVGID_2_)" fill="#FFFFFF" points="34.542,36.535 50.183,40.006 50.154,40.089 34.515,36.646 		"/>
		<polygon clip-path="url(#SVGID_2_)" fill="#FFFFFF" points="34.515,36.591 50.183,40.034 50.154,40.145 34.515,36.674 		"/>
		<polygon clip-path="url(#SVGID_2_)" fill="#FFFFFF" points="34.515,36.646 50.154,40.089 50.154,40.172 34.486,36.729 		"/>
		<polygon clip-path="url(#SVGID_2_)" fill="#FFFFFF" points="34.515,36.674 50.154,40.145 50.127,40.228 34.486,36.785 		"/>
		<polygon clip-path="url(#SVGID_2_)" fill="#FFFFFF" points="34.486,36.729 50.154,40.172 50.127,40.283 34.459,36.813 		"/>
		<polygon clip-path="url(#SVGID_2_)" fill="#FFFFFF" points="34.486,36.785 50.127,40.228 50.099,40.311 34.459,36.869 		"/>
		<polygon clip-path="url(#SVGID_2_)" fill="#FFFFFF" points="34.459,36.813 50.127,40.283 50.099,40.367 34.459,36.924 		"/>
		<polygon clip-path="url(#SVGID_2_)" fill="#FFFFFF" points="34.459,36.869 50.099,40.311 50.099,40.422 34.431,36.952 		"/>
		<polygon clip-path="url(#SVGID_2_)" fill="#FFFFFF" points="34.459,36.924 50.099,40.367 50.071,40.45 34.431,37.007 		"/>
		<polygon clip-path="url(#SVGID_2_)" fill="#FFFFFF" points="34.431,36.952 50.099,40.422 50.071,40.505 34.431,37.063 		"/>
		<polygon clip-path="url(#SVGID_2_)" fill="#FFFFFF" points="34.431,37.007 50.071,40.45 50.071,40.561 34.403,37.091 		"/>
		<polygon clip-path="url(#SVGID_2_)" fill="#FFFFFF" points="34.431,37.063 50.071,40.505 50.043,40.589 34.403,37.146 		"/>
		<polygon clip-path="url(#SVGID_2_)" fill="#FFFFFF" points="34.403,37.091 50.071,40.561 50.043,40.644 34.375,37.202 		"/>
		<polygon clip-path="url(#SVGID_2_)" fill="#FFFFFF" points="34.403,37.146 50.043,40.589 50.016,40.7 34.375,37.229 		"/>
		<polygon clip-path="url(#SVGID_2_)" fill="#FFFFFF" points="34.375,37.202 50.043,40.644 50.016,40.728 34.375,37.285 		"/>
		<polygon clip-path="url(#SVGID_2_)" fill="#FFFFFF" points="34.375,37.229 50.016,40.7 50.016,40.783 34.348,37.34 		"/>
		<polygon clip-path="url(#SVGID_2_)" fill="#FFFFFF" points="34.375,37.285 50.016,40.728 49.987,40.838 34.348,37.368 		"/>
		<polygon clip-path="url(#SVGID_2_)" fill="#FFFFFF" points="34.348,37.34 50.016,40.783 49.987,40.866 34.348,37.424 		"/>
		<polygon clip-path="url(#SVGID_2_)" fill="#FFFFFF" points="34.348,37.368 49.987,40.838 49.987,40.922 34.319,37.479 		"/>
		<polygon clip-path="url(#SVGID_2_)" fill="#FFFFFF" points="34.348,37.424 49.987,40.866 49.96,40.978 34.319,37.507 		"/>
		<polygon clip-path="url(#SVGID_2_)" fill="#FFFFFF" points="34.319,37.479 49.987,40.922 49.96,41.005 34.291,37.563 		"/>
		<polygon clip-path="url(#SVGID_2_)" fill="#FFFFFF" points="34.319,37.507 49.96,40.978 49.96,41.061 34.291,37.618 		"/>
		<polygon clip-path="url(#SVGID_2_)" fill="#FFFFFF" points="34.291,37.563 49.96,41.005 49.932,41.116 34.291,37.674 		"/>
		<polygon clip-path="url(#SVGID_2_)" fill="#FFFFFF" points="34.291,37.618 49.96,41.061 49.932,41.172 34.264,37.701 		"/>
		<polygon clip-path="url(#SVGID_2_)" fill="#FFFFFF" points="34.291,37.674 49.932,41.116 49.903,41.2 34.264,37.757 		"/>
		<polygon clip-path="url(#SVGID_2_)" fill="#FFFFFF" points="34.264,37.701 49.932,41.172 49.903,41.255 34.264,37.813 		"/>
		<polygon clip-path="url(#SVGID_2_)" fill="#FFFFFF" points="34.264,37.757 49.903,41.2 49.903,41.311 34.235,37.84 		"/>
		<polygon clip-path="url(#SVGID_2_)" fill="#FFFFFF" points="34.264,37.813 49.903,41.255 49.876,41.338 34.235,37.896 		"/>
		<polygon clip-path="url(#SVGID_2_)" fill="#FFFFFF" points="34.235,37.84 49.903,41.311 49.876,41.394 34.208,37.951 		"/>
		<polygon clip-path="url(#SVGID_2_)" fill="#FFFFFF" points="34.235,37.896 49.876,41.338 49.876,41.449 34.208,37.979 		"/>
		<polygon clip-path="url(#SVGID_2_)" fill="#FFFFFF" points="34.208,37.951 49.876,41.394 49.848,41.477 34.208,38.035 		"/>
		<polygon clip-path="url(#SVGID_2_)" fill="#FFFFFF" points="34.208,37.979 49.876,41.449 49.848,41.533 34.18,38.09 		"/>
		<polygon clip-path="url(#SVGID_2_)" fill="#FFFFFF" points="34.208,38.035 49.848,41.477 49.82,41.588 34.18,38.118 		"/>
		<polygon clip-path="url(#SVGID_2_)" fill="#FFFFFF" points="34.18,38.09 49.848,41.533 49.82,41.616 34.18,38.173 		"/>
		<polygon clip-path="url(#SVGID_2_)" fill="#FFFFFF" points="34.18,38.118 49.82,41.588 49.82,41.671 34.152,38.229 		"/>
		<polygon clip-path="url(#SVGID_2_)" fill="#FFFFFF" points="34.18,38.173 49.82,41.616 49.792,41.727 34.152,38.257 		"/>
		<polygon clip-path="url(#SVGID_2_)" fill="#FFFFFF" points="34.152,38.229 49.82,41.671 49.792,41.755 34.124,38.312 		"/>
		<polygon clip-path="url(#SVGID_2_)" fill="#FFFFFF" points="34.152,38.257 49.792,41.727 49.792,41.81 34.124,38.368 		"/>
		<polygon clip-path="url(#SVGID_2_)" fill="#FFFFFF" points="34.124,38.312 49.792,41.755 49.765,41.866 34.124,38.396 		"/>
		<polygon clip-path="url(#SVGID_2_)" fill="#FFFFFF" points="34.124,38.368 49.792,41.81 49.765,41.894 34.097,38.451 		"/>
		<polygon clip-path="url(#SVGID_2_)" fill="#FFFFFF" points="34.124,38.396 49.765,41.866 49.736,41.949 34.097,38.506 		"/>
		<polygon clip-path="url(#SVGID_2_)" fill="#FFFFFF" points="34.097,38.451 49.765,41.894 49.736,42.004 34.097,38.534 		"/>
		<polygon clip-path="url(#SVGID_2_)" fill="#FFFFFF" points="34.097,38.506 49.736,41.949 49.736,42.032 34.068,38.59 		"/>
		<polygon clip-path="url(#SVGID_2_)" fill="#FFFFFF" points="34.097,38.534 49.736,42.004 49.709,42.088 34.068,38.646 		"/>
		<polygon clip-path="url(#SVGID_2_)" fill="#FFFFFF" points="34.068,38.59 49.736,42.032 49.709,42.144 34.068,38.673 		"/>
		<polygon clip-path="url(#SVGID_2_)" fill="#FFFFFF" points="34.068,38.646 49.709,42.088 49.709,42.171 34.041,38.729 		"/>
		<polygon clip-path="url(#SVGID_2_)" fill="#FFFFFF" points="34.068,38.673 49.709,42.144 49.681,42.227 34.041,38.784 		"/>
		<polygon clip-path="url(#SVGID_2_)" fill="#FFFFFF" points="34.041,38.729 49.709,42.171 49.681,42.282 34.013,38.84 		"/>
		<polygon clip-path="url(#SVGID_2_)" fill="#FFFFFF" points="34.041,38.784 49.681,42.227 49.652,42.338 34.013,38.867 		"/>
		<polygon clip-path="url(#SVGID_2_)" fill="#FFFFFF" points="34.013,38.84 49.681,42.282 49.652,42.366 34.013,38.923 		"/>
		<polygon clip-path="url(#SVGID_2_)" fill="#FFFFFF" points="34.013,38.867 49.652,42.338 49.652,42.421 33.984,38.979 		"/>
		<polygon clip-path="url(#SVGID_2_)" fill="#FFFFFF" points="34.013,38.923 49.652,42.366 49.625,42.477 33.984,39.006 		"/>
		<polygon clip-path="url(#SVGID_2_)" fill="#FFFFFF" points="33.984,38.979 49.652,42.421 49.625,42.504 33.984,39.062 		"/>
		<polygon clip-path="url(#SVGID_2_)" fill="#FFFFFF" points="33.984,39.006 49.625,42.477 49.625,42.56 33.957,39.117 		"/>
		<polygon clip-path="url(#SVGID_2_)" fill="#FFFFFF" points="33.984,39.062 49.625,42.504 49.597,42.615 33.957,39.145 		"/>
		<polygon clip-path="url(#SVGID_2_)" fill="#FFFFFF" points="33.957,39.117 49.625,42.56 49.597,42.643 33.929,39.201 		"/>
		<polygon clip-path="url(#SVGID_2_)" fill="#FFFFFF" points="33.957,39.145 49.597,42.615 49.569,42.699 33.929,39.256 		"/>
		<polygon clip-path="url(#SVGID_2_)" fill="#FFFFFF" points="33.929,39.201 49.597,42.643 49.569,42.754 33.929,39.284 		"/>
		<polygon clip-path="url(#SVGID_2_)" fill="#FFFFFF" points="33.929,39.256 49.569,42.699 49.569,42.782 33.901,39.339 		"/>
		<polygon clip-path="url(#SVGID_2_)" fill="#FFFFFF" points="33.929,39.284 49.569,42.754 49.541,42.837 33.901,39.395 		"/>
		<polygon clip-path="url(#SVGID_2_)" fill="#FFFFFF" points="33.901,39.339 49.569,42.782 49.541,42.893 33.901,39.423 		"/>
		<polygon clip-path="url(#SVGID_2_)" fill="#FFFFFF" points="33.901,39.395 49.541,42.837 49.541,42.921 33.873,39.478 		"/>
		<polygon clip-path="url(#SVGID_2_)" fill="#FFFFFF" points="33.901,39.423 49.541,42.893 49.514,42.976 33.873,39.534 		"/>
		<polygon clip-path="url(#SVGID_2_)" fill="#FFFFFF" points="33.873,39.478 49.541,42.921 49.514,43.032 33.846,39.562 		"/>
		<polygon clip-path="url(#SVGID_2_)" fill="#FFFFFF" points="33.873,39.534 49.514,42.976 49.485,43.06 33.846,39.617 		"/>
		<polygon clip-path="url(#SVGID_2_)" fill="#FFFFFF" points="33.846,39.562 49.514,43.032 49.485,43.115 33.846,39.672 		"/>
		<polygon clip-path="url(#SVGID_2_)" fill="#FFFFFF" points="33.846,39.617 49.485,43.06 49.485,43.17 33.817,39.7 		"/>
		<polygon clip-path="url(#SVGID_2_)" fill="#FFFFFF" points="33.846,39.672 49.485,43.115 49.458,43.198 33.817,39.756 		"/>
		<polygon clip-path="url(#SVGID_2_)" fill="#FFFFFF" points="33.817,39.7 49.485,43.17 49.458,43.254 33.817,39.812 		"/>
		<polygon clip-path="url(#SVGID_2_)" fill="#FFFFFF" points="33.817,39.756 49.458,43.198 49.458,43.31 33.79,39.839 		"/>
		<polygon clip-path="url(#SVGID_2_)" fill="#FFFFFF" points="33.817,39.812 49.458,43.254 49.43,43.365 33.79,39.895 		"/>
		<polygon clip-path="url(#SVGID_2_)" fill="#FFFFFF" points="33.79,39.839 49.458,43.31 49.43,43.393 33.762,39.95 		"/>
		<polygon clip-path="url(#SVGID_2_)" fill="#FFFFFF" points="33.79,39.895 49.43,43.365 49.43,43.448 33.762,40.006 		"/>
		<polygon clip-path="url(#SVGID_2_)" fill="#FFFFFF" points="33.762,39.95 49.43,43.393 49.402,43.504 33.762,40.034 		"/>
		<polygon clip-path="url(#SVGID_2_)" fill="#FFFFFF" points="33.762,40.006 49.43,43.448 49.402,43.532 33.733,40.089 		"/>
		<polygon clip-path="url(#SVGID_2_)" fill="#FFFFFF" points="33.762,40.034 49.402,43.504 49.374,43.587 33.733,40.145 		"/>
		<polygon clip-path="url(#SVGID_2_)" fill="#FFFFFF" points="33.733,40.089 49.402,43.532 49.374,43.643 33.733,40.172 		"/>
		<polygon clip-path="url(#SVGID_2_)" fill="#FFFFFF" points="33.733,40.145 49.374,43.587 49.374,43.67 33.706,40.228 		"/>
		<polygon clip-path="url(#SVGID_2_)" fill="#FFFFFF" points="33.733,40.172 49.374,43.643 49.346,43.726 33.706,40.283 		"/>
		<polygon clip-path="url(#SVGID_2_)" fill="#FFFFFF" points="33.706,40.228 49.374,43.67 49.346,43.781 33.678,40.311 		"/>
		<polygon clip-path="url(#SVGID_2_)" fill="#FFFFFF" points="33.706,40.283 49.346,43.726 49.346,43.809 33.678,40.367 		"/>
		<polygon clip-path="url(#SVGID_2_)" fill="#FFFFFF" points="33.678,40.311 49.346,43.781 49.318,43.865 33.678,40.422 		"/>
		<polygon clip-path="url(#SVGID_2_)" fill="#FFFFFF" points="33.678,40.367 49.346,43.809 49.318,43.92 33.65,40.45 		"/>
		<polygon clip-path="url(#SVGID_2_)" fill="#FFFFFF" points="33.678,40.422 49.318,43.865 49.29,43.948 33.65,40.505 		"/>
		<polygon clip-path="url(#SVGID_2_)" fill="#FFFFFF" points="33.65,40.45 49.318,43.92 49.29,44.003 33.65,40.561 		"/>
		<polygon clip-path="url(#SVGID_2_)" fill="#FFFFFF" points="33.65,40.505 49.29,43.948 49.29,44.059 33.622,40.589 		"/>
		<polygon clip-path="url(#SVGID_2_)" fill="#FFFFFF" points="33.65,40.561 49.29,44.003 49.263,44.087 33.622,40.644 		"/>
		<polygon clip-path="url(#SVGID_2_)" fill="#FFFFFF" points="33.622,40.589 49.29,44.059 49.263,44.142 33.622,40.7 		"/>
		<polygon clip-path="url(#SVGID_2_)" fill="#FFFFFF" points="33.622,40.644 49.263,44.087 49.263,44.198 33.595,40.728 		"/>
		<polygon clip-path="url(#SVGID_2_)" fill="#FFFFFF" points="33.622,40.7 49.263,44.142 49.234,44.226 33.595,40.783 		"/>
		<polygon clip-path="url(#SVGID_2_)" fill="#FFFFFF" points="33.595,40.728 49.263,44.198 49.234,44.281 33.566,40.838 		"/>
		<polygon clip-path="url(#SVGID_2_)" fill="#FFFFFF" points="33.595,40.783 49.234,44.226 49.207,44.336 33.566,40.866 		"/>
		<polygon clip-path="url(#SVGID_2_)" fill="#FFFFFF" points="33.566,40.838 49.234,44.281 49.207,44.364 33.566,40.922 		"/>
		<polygon clip-path="url(#SVGID_2_)" fill="#FFFFFF" points="33.566,40.866 49.207,44.336 49.207,44.42 33.539,40.978 		"/>
		<polygon clip-path="url(#SVGID_2_)" fill="#FFFFFF" points="33.566,40.922 49.207,44.364 49.179,44.476 33.539,41.005 		"/>
		<polygon clip-path="url(#SVGID_2_)" fill="#FFFFFF" points="33.539,40.978 49.207,44.42 49.179,44.531 33.539,41.061 		"/>
		<polygon clip-path="url(#SVGID_2_)" fill="#FFFFFF" points="33.539,41.005 49.179,44.476 49.179,44.559 33.511,41.116 		"/>
		<polygon clip-path="url(#SVGID_2_)" fill="#FFFFFF" points="33.539,41.061 49.179,44.531 49.151,44.614 33.511,41.172 		"/>
		<polygon clip-path="url(#SVGID_2_)" fill="#FFFFFF" points="33.511,41.116 49.179,44.559 49.151,44.67 33.483,41.2 		"/>
		<polygon clip-path="url(#SVGID_2_)" fill="#FFFFFF" points="33.511,41.172 49.151,44.614 49.123,44.698 33.483,41.255 		"/>
		<polygon clip-path="url(#SVGID_2_)" fill="#FFFFFF" points="33.483,41.2 49.151,44.67 49.123,44.753 33.483,41.311 		"/>
		<polygon clip-path="url(#SVGID_2_)" fill="#FFFFFF" points="33.483,41.255 49.123,44.698 49.123,44.809 33.455,41.338 		"/>
		<polygon clip-path="url(#SVGID_2_)" fill="#FFFFFF" points="33.483,41.311 49.123,44.753 49.096,44.836 33.455,41.394 		"/>
		<polygon clip-path="url(#SVGID_2_)" fill="#FFFFFF" points="33.455,41.338 49.123,44.809 49.096,44.892 33.455,41.449 		"/>
		<polygon clip-path="url(#SVGID_2_)" fill="#FFFFFF" points="33.455,41.394 49.096,44.836 49.096,44.947 33.427,41.477 		"/>
		<polygon clip-path="url(#SVGID_2_)" fill="#FFFFFF" points="33.455,41.449 49.096,44.892 49.067,44.975 33.427,41.533 		"/>
		<polygon clip-path="url(#SVGID_2_)" fill="#FFFFFF" points="33.427,41.477 49.096,44.947 49.067,45.031 33.399,41.588 		"/>
		<polygon clip-path="url(#SVGID_2_)" fill="#FFFFFF" points="33.427,41.533 49.067,44.975 49.039,45.086 33.399,41.616 		"/>
		<polygon clip-path="url(#SVGID_2_)" fill="#FFFFFF" points="33.399,41.588 49.067,45.031 49.039,45.114 33.399,41.671 		"/>
		<polygon clip-path="url(#SVGID_2_)" fill="#FFFFFF" points="33.399,41.616 49.039,45.086 49.039,45.169 33.371,41.727 		"/>
		<polygon clip-path="url(#SVGID_2_)" fill="#FFFFFF" points="33.399,41.671 49.039,45.114 49.012,45.225 33.371,41.755 		"/>
		<polygon clip-path="url(#SVGID_2_)" fill="#FFFFFF" points="33.371,41.727 49.039,45.169 49.012,45.253 33.371,41.81 		"/>
		<polygon clip-path="url(#SVGID_2_)" fill="#FFFFFF" points="33.371,41.755 49.012,45.225 49.012,45.308 33.344,41.866 		"/>
		<polygon clip-path="url(#SVGID_2_)" fill="#FFFFFF" points="33.371,41.81 49.012,45.253 48.983,45.364 33.344,41.894 		"/>
		<polygon clip-path="url(#SVGID_2_)" fill="#FFFFFF" points="33.344,41.866 49.012,45.308 48.983,45.392 33.315,41.949 		"/>
		<polygon clip-path="url(#SVGID_2_)" fill="#FFFFFF" points="33.344,41.894 48.983,45.364 48.983,45.447 33.315,42.004 		"/>
		<polygon clip-path="url(#SVGID_2_)" fill="#FFFFFF" points="33.315,41.949 48.983,45.392 48.956,45.502 33.315,42.032 		"/>
		<polygon clip-path="url(#SVGID_2_)" fill="#FFFFFF" points="33.315,42.004 48.983,45.447 48.956,45.53 33.288,42.088 		"/>
		<polygon clip-path="url(#SVGID_2_)" fill="#FFFFFF" points="33.315,42.032 48.956,45.502 48.928,45.586 33.288,42.144 		"/>
		<polygon clip-path="url(#SVGID_2_)" fill="#FFFFFF" points="33.288,42.088 48.956,45.53 48.928,45.642 33.288,42.199 		"/>
		<polygon clip-path="url(#SVGID_2_)" fill="#FFFFFF" points="33.288,42.144 48.928,45.586 48.928,45.697 33.26,42.227 		"/>
		<polygon clip-path="url(#SVGID_2_)" fill="#FFFFFF" points="33.288,42.199 48.928,45.642 48.9,45.725 33.26,42.282 		"/>
		<polygon clip-path="url(#SVGID_2_)" fill="#FFFFFF" points="33.26,42.227 48.928,45.697 48.9,45.78 33.232,42.338 		"/>
		<polygon clip-path="url(#SVGID_2_)" fill="#FFFFFF" points="33.26,42.282 48.9,45.725 48.9,45.836 33.232,42.366 		"/>
		<polygon clip-path="url(#SVGID_2_)" fill="#FFFFFF" points="33.232,42.338 48.9,45.78 48.872,45.864 33.232,42.421 		"/>
		<polygon clip-path="url(#SVGID_2_)" fill="#FFFFFF" points="33.232,42.366 48.9,45.836 48.872,45.919 33.204,42.477 		"/>
		<polygon clip-path="url(#SVGID_2_)" fill="#FFFFFF" points="33.232,42.421 48.872,45.864 48.845,45.975 33.204,42.504 		"/>
		<polygon clip-path="url(#SVGID_2_)" fill="#FFFFFF" points="33.204,42.477 48.872,45.919 48.845,46.002 33.204,42.56 		"/>
		<polygon clip-path="url(#SVGID_2_)" fill="#FFFFFF" points="33.204,42.504 48.845,45.975 48.845,46.058 33.177,42.615 		"/>
		<polygon clip-path="url(#SVGID_2_)" fill="#FFFFFF" points="33.204,42.56 48.845,46.002 48.816,46.113 33.177,42.643 		"/>
		<polygon clip-path="url(#SVGID_2_)" fill="#FFFFFF" points="33.177,42.615 48.845,46.058 48.816,46.141 33.177,42.699 		"/>
		<polygon clip-path="url(#SVGID_2_)" fill="#FFFFFF" points="33.177,42.643 48.816,46.113 48.816,46.197 33.148,42.754 		"/>
		<polygon clip-path="url(#SVGID_2_)" fill="#FFFFFF" points="33.177,42.699 48.816,46.141 48.789,46.252 33.148,42.782 		"/>
		<polygon clip-path="url(#SVGID_2_)" fill="#FFFFFF" points="33.148,42.754 48.816,46.197 48.789,46.28 33.12,42.837 		"/>
		<polygon clip-path="url(#SVGID_2_)" fill="#FFFFFF" points="33.148,42.782 48.789,46.252 48.761,46.335 33.12,42.893 		"/>
		<polygon clip-path="url(#SVGID_2_)" fill="#FFFFFF" points="33.12,42.837 48.789,46.28 48.761,46.391 33.12,42.921 		"/>
		<polygon clip-path="url(#SVGID_2_)" fill="#FFFFFF" points="33.12,42.893 48.761,46.335 48.761,46.419 33.093,42.976 		"/>
		<polygon clip-path="url(#SVGID_2_)" fill="#FFFFFF" points="33.12,42.921 48.761,46.391 48.732,46.474 33.093,43.032 		"/>
		<polygon clip-path="url(#SVGID_2_)" fill="#FFFFFF" points="33.093,42.976 48.761,46.419 48.732,46.53 33.093,43.06 		"/>
		<polygon clip-path="url(#SVGID_2_)" fill="#FFFFFF" points="33.093,43.032 48.732,46.474 48.732,46.558 33.064,43.115 		"/>
		<polygon clip-path="url(#SVGID_2_)" fill="#FFFFFF" points="33.093,43.06 48.732,46.53 48.705,46.613 33.064,43.17 		"/>
		<polygon clip-path="url(#SVGID_2_)" fill="#FFFFFF" points="33.064,43.115 48.732,46.558 48.705,46.668 33.037,43.198 		"/>
		<polygon clip-path="url(#SVGID_2_)" fill="#FFFFFF" points="33.064,43.17 48.705,46.613 48.677,46.724 33.037,43.254 		"/>
		<polygon clip-path="url(#SVGID_2_)" fill="#FFFFFF" points="33.037,43.198 48.705,46.668 48.677,46.752 33.037,43.31 		"/>
		<polygon clip-path="url(#SVGID_2_)" fill="#FFFFFF" points="33.037,43.254 48.677,46.724 48.677,46.808 33.009,43.365 		"/>
		<polygon clip-path="url(#SVGID_2_)" fill="#FFFFFF" points="33.037,43.31 48.677,46.752 48.649,46.863 33.009,43.393 		"/>
		<polygon clip-path="url(#SVGID_2_)" fill="#FFFFFF" points="33.009,43.365 48.677,46.808 48.649,46.891 33.009,43.448 		"/>
		<polygon clip-path="url(#SVGID_2_)" fill="#FFFFFF" points="33.009,43.393 48.649,46.863 48.649,46.946 32.981,43.504 		"/>
		<polygon clip-path="url(#SVGID_2_)" fill="#FFFFFF" points="33.009,43.448 48.649,46.891 48.621,47.002 32.981,43.532 		"/>
		<polygon clip-path="url(#SVGID_2_)" fill="#FFFFFF" points="32.981,43.504 48.649,46.946 48.621,47.03 32.953,43.587 		"/>
		<polygon clip-path="url(#SVGID_2_)" fill="#FFFFFF" points="32.981,43.532 48.621,47.002 48.594,47.085 32.953,43.643 		"/>
		<polygon clip-path="url(#SVGID_2_)" fill="#FFFFFF" points="32.953,43.587 48.621,47.03 48.594,47.141 32.953,43.67 		"/>
		<polygon clip-path="url(#SVGID_2_)" fill="#FFFFFF" points="32.953,43.643 48.594,47.085 48.594,47.168 32.926,43.726 		"/>
		<polygon clip-path="url(#SVGID_2_)" fill="#FFFFFF" points="32.953,43.67 48.594,47.141 48.565,47.224 32.926,43.781 		"/>
		<polygon clip-path="url(#SVGID_2_)" fill="#FFFFFF" points="32.926,43.726 48.594,47.168 48.565,47.279 32.926,43.809 		"/>
		<polygon clip-path="url(#SVGID_2_)" fill="#FFFFFF" points="32.926,43.781 48.565,47.224 48.565,47.307 32.897,43.865 		"/>
		<polygon clip-path="url(#SVGID_2_)" fill="#FFFFFF" points="32.926,43.809 48.565,47.279 48.538,47.363 32.897,43.92 		"/>
		<polygon clip-path="url(#SVGID_2_)" fill="#FFFFFF" points="32.897,43.865 48.565,47.307 48.538,47.418 32.869,43.948 		"/>
		<polygon clip-path="url(#SVGID_2_)" fill="#FFFFFF" points="32.897,43.92 48.538,47.363 48.538,47.446 32.869,44.003 		"/>
		<polygon clip-path="url(#SVGID_2_)" fill="#FFFFFF" points="32.869,43.948 48.538,47.418 48.51,47.501 32.869,44.059 		"/>
		<polygon clip-path="url(#SVGID_2_)" fill="#FFFFFF" points="32.869,44.003 48.538,47.446 48.51,47.557 32.842,44.087 		"/>
		<polygon clip-path="url(#SVGID_2_)" fill="#FFFFFF" points="32.869,44.059 48.51,47.501 48.481,47.585 32.842,44.142 		"/>
		<polygon clip-path="url(#SVGID_2_)" fill="#FFFFFF" points="32.842,44.087 48.51,47.557 48.481,47.64 32.842,44.198 		"/>
		<polygon clip-path="url(#SVGID_2_)" fill="#FFFFFF" points="32.842,44.142 48.481,47.585 48.481,47.696 32.813,44.226 		"/>
		<polygon clip-path="url(#SVGID_2_)" fill="#FFFFFF" points="32.842,44.198 48.481,47.64 48.454,47.724 32.813,44.281 		"/>
		<polygon clip-path="url(#SVGID_2_)" fill="#FFFFFF" points="32.813,44.226 48.481,47.696 48.454,47.779 32.786,44.336 		"/>
		<polygon clip-path="url(#SVGID_2_)" fill="#FFFFFF" points="32.813,44.281 48.454,47.724 48.454,47.834 32.786,44.364 		"/>
		<polygon clip-path="url(#SVGID_2_)" fill="#FFFFFF" points="32.786,44.336 48.454,47.779 48.426,47.89 32.786,44.42 		"/>
		<polygon clip-path="url(#SVGID_2_)" fill="#FFFFFF" points="32.786,44.364 48.454,47.834 48.426,47.918 32.758,44.476 		"/>
		<polygon clip-path="url(#SVGID_2_)" fill="#FFFFFF" points="32.786,44.42 48.426,47.89 48.398,47.974 32.758,44.531 		"/>
		<polygon clip-path="url(#SVGID_2_)" fill="#FFFFFF" points="32.758,44.476 48.426,47.918 48.398,48.029 32.758,44.559 		"/>
		<polygon clip-path="url(#SVGID_2_)" fill="#FFFFFF" points="32.758,44.531 48.398,47.974 48.398,48.057 32.73,44.614 		"/>
		<polygon clip-path="url(#SVGID_2_)" fill="#FFFFFF" points="32.758,44.559 48.398,48.029 48.37,48.112 32.73,44.67 		"/>
		<polygon clip-path="url(#SVGID_2_)" fill="#FFFFFF" points="32.73,44.614 48.398,48.057 48.37,48.168 32.73,44.698 		"/>
		<polygon clip-path="url(#SVGID_2_)" fill="#FFFFFF" points="32.73,44.67 48.37,48.112 48.37,48.196 32.702,44.753 		"/>
		<polygon clip-path="url(#SVGID_2_)" fill="#FFFFFF" points="32.73,44.698 48.37,48.168 48.343,48.251 32.702,44.809 		"/>
		<polygon clip-path="url(#SVGID_2_)" fill="#FFFFFF" points="32.702,44.753 48.37,48.196 48.343,48.307 32.675,44.836 		"/>
		<polygon clip-path="url(#SVGID_2_)" fill="#FFFFFF" points="32.702,44.809 48.343,48.251 48.314,48.334 32.675,44.892 		"/>
		<polygon clip-path="url(#SVGID_2_)" fill="#FFFFFF" points="32.675,44.836 48.343,48.307 48.314,48.39 32.675,44.947 		"/>
		<polygon clip-path="url(#SVGID_2_)" fill="#FFFFFF" points="32.675,44.892 48.314,48.334 48.314,48.445 32.646,44.975 		"/>
		<polygon clip-path="url(#SVGID_2_)" fill="#FFFFFF" points="32.675,44.947 48.314,48.39 48.287,48.473 32.646,45.031 		"/>
		<polygon clip-path="url(#SVGID_2_)" fill="#FFFFFF" points="32.646,44.975 48.314,48.445 48.287,48.529 32.646,45.086 		"/>
		<polygon clip-path="url(#SVGID_2_)" fill="#FFFFFF" points="32.646,45.031 48.287,48.473 48.287,48.584 32.619,45.114 		"/>
		<polygon clip-path="url(#SVGID_2_)" fill="#FFFFFF" points="32.646,45.086 48.287,48.529 48.259,48.612 32.619,45.169 		"/>
		<polygon clip-path="url(#SVGID_2_)" fill="#FFFFFF" points="32.619,45.114 48.287,48.584 48.259,48.667 32.591,45.225 		"/>
		<polygon clip-path="url(#SVGID_2_)" fill="#FFFFFF" points="32.619,45.169 48.259,48.612 48.231,48.723 32.591,45.253 		"/>
		<polygon clip-path="url(#SVGID_2_)" fill="#FFFFFF" points="32.591,45.225 48.259,48.667 48.231,48.751 32.591,45.308 		"/>
		<polygon clip-path="url(#SVGID_2_)" fill="#FFFFFF" points="32.591,45.253 48.231,48.723 48.231,48.806 32.563,45.364 		"/>
		<polygon clip-path="url(#SVGID_2_)" fill="#FFFFFF" points="32.591,45.308 48.231,48.751 48.203,48.862 32.563,45.392 		"/>
		<polygon clip-path="url(#SVGID_2_)" fill="#FFFFFF" points="32.563,45.364 48.231,48.806 48.203,48.89 32.563,45.447 		"/>
		<polygon clip-path="url(#SVGID_2_)" fill="#FFFFFF" points="32.563,45.392 48.203,48.862 48.203,48.945 32.535,45.502 		"/>
		<polygon clip-path="url(#SVGID_2_)" fill="#FFFFFF" points="32.563,45.447 48.203,48.89 48.175,49 32.535,45.558 		"/>
		<polygon clip-path="url(#SVGID_2_)" fill="#FFFFFF" points="32.535,45.502 48.203,48.945 48.175,49.056 32.507,45.586 		"/>
		<polygon clip-path="url(#SVGID_2_)" fill="#FFFFFF" points="32.535,45.558 48.175,49 48.147,49.084 32.507,45.642 		"/>
		<polygon clip-path="url(#SVGID_2_)" fill="#FFFFFF" points="32.507,45.586 48.175,49.056 48.147,49.14 32.507,45.697 		"/>
		<polygon clip-path="url(#SVGID_2_)" fill="#FFFFFF" points="32.507,45.642 48.147,49.084 48.147,49.195 32.479,45.725 		"/>
		<polygon clip-path="url(#SVGID_2_)" fill="#FFFFFF" points="32.507,45.697 48.147,49.14 48.119,49.223 32.479,45.78 		"/>
		<polygon clip-path="url(#SVGID_2_)" fill="#FFFFFF" points="32.479,45.725 48.147,49.195 48.119,49.278 32.479,45.836 		"/>
		<polygon clip-path="url(#SVGID_2_)" fill="#FFFFFF" points="32.479,45.78 48.119,49.223 48.119,49.334 32.451,45.864 		"/>
		<polygon clip-path="url(#SVGID_2_)" fill="#FFFFFF" points="32.479,45.836 48.119,49.278 48.092,49.362 32.451,45.919 		"/>
		<polygon clip-path="url(#SVGID_2_)" fill="#FFFFFF" points="32.451,45.864 48.119,49.334 48.092,49.417 32.424,45.975 		"/>
		<polygon clip-path="url(#SVGID_2_)" fill="#FFFFFF" points="32.451,45.919 48.092,49.362 48.092,49.473 32.424,46.002 		"/>
		<polygon clip-path="url(#SVGID_2_)" fill="#FFFFFF" points="32.424,45.975 48.092,49.417 48.063,49.5 32.424,46.058 		"/>
		<polygon clip-path="url(#SVGID_2_)" fill="#FFFFFF" points="32.424,46.002 48.092,49.473 48.063,49.556 32.396,46.113 		"/>
		<polygon clip-path="url(#SVGID_2_)" fill="#FFFFFF" points="32.424,46.058 48.063,49.5 48.036,49.611 32.396,46.141 		"/>
		<polygon clip-path="url(#SVGID_2_)" fill="#FFFFFF" points="32.396,46.113 48.063,49.556 48.036,49.639 32.396,46.197 		"/>
		<polygon clip-path="url(#SVGID_2_)" fill="#FFFFFF" points="32.396,46.141 48.036,49.611 48.036,49.695 32.368,46.252 		"/>
		<polygon clip-path="url(#SVGID_2_)" fill="#FFFFFF" points="32.396,46.197 48.036,49.639 48.008,49.75 32.368,46.28 		"/>
		<polygon clip-path="url(#SVGID_2_)" fill="#FFFFFF" points="32.368,46.252 48.036,49.695 48.008,49.778 32.34,46.335 		"/>
		<polygon clip-path="url(#SVGID_2_)" fill="#FFFFFF" points="32.368,46.28 48.008,49.75 48.008,49.833 32.34,46.391 		"/>
		<polygon clip-path="url(#SVGID_2_)" fill="#FFFFFF" points="32.34,46.335 48.008,49.778 47.98,49.889 32.34,46.419 		"/>
		<polygon clip-path="url(#SVGID_2_)" fill="#FFFFFF" points="32.34,46.391 48.008,49.833 47.98,49.917 32.313,46.474 		"/>
		<polygon clip-path="url(#SVGID_2_)" fill="#FFFFFF" points="32.34,46.419 47.98,49.889 47.952,49.972 32.313,46.53 		"/>
		<polygon clip-path="url(#SVGID_2_)" fill="#FFFFFF" points="32.313,46.474 47.98,49.917 47.952,50.028 32.313,46.558 		"/>
		<polygon clip-path="url(#SVGID_2_)" fill="#FFFFFF" points="32.313,46.53 47.952,49.972 47.952,50.056 32.284,46.613 		"/>
		<polygon clip-path="url(#SVGID_2_)" fill="#FFFFFF" points="32.313,46.558 47.952,50.028 47.925,50.111 32.284,46.668 		"/>
		<polygon clip-path="url(#SVGID_2_)" fill="#FFFFFF" points="32.284,46.613 47.952,50.056 47.925,50.167 32.284,46.724 		"/>
		<polygon clip-path="url(#SVGID_2_)" fill="#FFFFFF" points="32.284,46.668 47.925,50.111 47.925,50.222 32.256,46.752 		"/>
		<polygon clip-path="url(#SVGID_2_)" fill="#FFFFFF" points="32.284,46.724 47.925,50.167 47.896,50.25 32.256,46.808 		"/>
		<polygon clip-path="url(#SVGID_2_)" fill="#FFFFFF" points="32.256,46.752 47.925,50.222 47.896,50.306 32.229,46.863 		"/>
		<polygon clip-path="url(#SVGID_2_)" fill="#FFFFFF" points="32.256,46.808 47.896,50.25 47.868,50.361 32.229,46.891 		"/>
		<polygon clip-path="url(#SVGID_2_)" fill="#FFFFFF" points="32.229,46.863 47.896,50.306 47.868,50.389 32.229,46.946 		"/>
		<polygon clip-path="url(#SVGID_2_)" fill="#FFFFFF" points="32.229,46.891 47.868,50.361 47.868,50.444 32.2,47.002 		"/>
		<polygon clip-path="url(#SVGID_2_)" fill="#FFFFFF" points="32.229,46.946 47.868,50.389 47.841,50.5 32.2,47.03 		"/>
		<polygon clip-path="url(#SVGID_2_)" fill="#FFFFFF" points="32.2,47.002 47.868,50.444 47.841,50.528 32.2,47.085 		"/>
		<polygon clip-path="url(#SVGID_2_)" fill="#FFFFFF" points="32.2,47.03 47.841,50.5 47.841,50.583 32.173,47.141 		"/>
		<polygon clip-path="url(#SVGID_2_)" fill="#FFFFFF" points="32.2,47.085 47.841,50.528 47.813,50.639 32.173,47.168 		"/>
		<polygon clip-path="url(#SVGID_2_)" fill="#FFFFFF" points="32.173,47.141 47.841,50.583 47.813,50.667 32.145,47.224 		"/>
		<polygon clip-path="url(#SVGID_2_)" fill="#FFFFFF" points="32.173,47.168 47.813,50.639 47.785,50.722 32.145,47.279 		"/>
		<polygon clip-path="url(#SVGID_2_)" fill="#FFFFFF" points="32.145,47.224 47.813,50.667 47.785,50.777 32.145,47.307 		"/>
		<polygon clip-path="url(#SVGID_2_)" fill="#FFFFFF" points="32.145,47.279 47.785,50.722 47.785,50.805 32.117,47.363 		"/>
		<polygon clip-path="url(#SVGID_2_)" fill="#FFFFFF" points="32.145,47.307 47.785,50.777 47.757,50.861 32.117,47.418 		"/>
		<polygon clip-path="url(#SVGID_2_)" fill="#FFFFFF" points="32.117,47.363 47.785,50.805 47.757,50.917 32.117,47.446 		"/>
		<polygon clip-path="url(#SVGID_2_)" fill="#FFFFFF" points="32.117,47.418 47.757,50.861 47.757,50.944 32.089,47.501 		"/>
		<polygon clip-path="url(#SVGID_2_)" fill="#FFFFFF" points="32.117,47.446 47.757,50.917 47.729,51 32.089,47.557 		"/>
		<polygon clip-path="url(#SVGID_2_)" fill="#FFFFFF" points="32.089,47.501 47.757,50.944 47.729,51.055 32.062,47.585 		"/>
		<polygon clip-path="url(#SVGID_2_)" fill="#FFFFFF" points="32.089,47.557 47.729,51 47.701,51.083 32.062,47.64 		"/>
		<polygon clip-path="url(#SVGID_2_)" fill="#FFFFFF" points="32.062,47.585 47.729,51.055 47.701,51.138 32.062,47.696 		"/>
		<polygon clip-path="url(#SVGID_2_)" fill="#FFFFFF" points="32.062,47.64 47.701,51.083 47.701,51.194 32.033,47.724 		"/>
		<polygon clip-path="url(#SVGID_2_)" fill="#FFFFFF" points="32.062,47.696 47.701,51.138 46.67,55.83 31.002,52.388 		"/>
	</g>
	<g>
		<defs>
			<path id="SVGID_3_" d="M30.36,50.917c-0.446,0.694-0.892,1.443-1.311,2.193c-6.133,10.8-11.987,28.679-5.993,53.276l6.857-0.444
				c-6.97-22.404-0.251-39.895,7.249-51.111L30.36,50.917z"/>
		</defs>
		<clipPath id="SVGID_4_">
			<use xlink:href="#SVGID_3_"  overflow="visible"/>
		</clipPath>
		<polygon clip-path="url(#SVGID_4_)" fill="#FFFFFF" points="25.648,43.226 43.018,47.057 40.509,58.356 23.14,54.525 		"/>
		<polygon clip-path="url(#SVGID_4_)" fill="#FFFFFF" points="23.168,54.387 40.536,58.218 40.453,58.523 23.112,54.692 		"/>
		<polygon clip-path="url(#SVGID_4_)" fill="#FFFFFF" points="23.14,54.525 40.509,58.356 40.425,58.69 23.057,54.858 		"/>
		<polygon clip-path="url(#SVGID_4_)" fill="#FFFFFF" points="23.112,54.692 40.453,58.523 40.396,58.829 23.028,54.998 		"/>
		<polygon clip-path="url(#SVGID_4_)" fill="#FFFFFF" points="23.057,54.858 40.425,58.69 40.369,58.995 23,55.164 		"/>
		<polygon clip-path="url(#SVGID_4_)" fill="#FFFFFF" points="23.028,54.998 40.396,58.829 40.341,59.134 22.973,55.303 		"/>
		<polygon clip-path="url(#SVGID_4_)" fill="#FFFFFF" points="23,55.164 40.369,58.995 40.285,59.3 22.917,55.469 		"/>
		<polygon clip-path="url(#SVGID_4_)" fill="#FFFFFF" points="22.973,55.303 40.341,59.134 40.258,59.439 22.889,55.608 		"/>
		<polygon clip-path="url(#SVGID_4_)" fill="#FFFFFF" points="22.917,55.469 40.285,59.3 40.229,59.606 22.861,55.775 		"/>
		<polygon clip-path="url(#SVGID_4_)" fill="#FFFFFF" points="22.889,55.608 40.258,59.439 40.202,59.772 22.833,55.941 		"/>
		<polygon clip-path="url(#SVGID_4_)" fill="#FFFFFF" points="22.861,55.775 40.229,59.606 40.146,59.911 22.777,56.08 		"/>
		<polygon clip-path="url(#SVGID_4_)" fill="#FFFFFF" points="22.833,55.941 40.202,59.772 40.118,60.078 22.749,56.247 		"/>
		<polygon clip-path="url(#SVGID_4_)" fill="#FFFFFF" points="22.777,56.08 40.146,59.911 40.09,60.217 22.722,56.385 		"/>
		<polygon clip-path="url(#SVGID_4_)" fill="#FFFFFF" points="22.749,56.247 40.118,60.078 40.063,60.383 22.693,56.552 		"/>
		<polygon clip-path="url(#SVGID_4_)" fill="#FFFFFF" points="22.722,56.385 40.09,60.217 40.007,60.55 22.638,56.719 		"/>
		<polygon clip-path="url(#SVGID_4_)" fill="#FFFFFF" points="22.693,56.552 40.063,60.383 39.979,60.688 22.61,56.857 		"/>
		<polygon clip-path="url(#SVGID_4_)" fill="#FFFFFF" points="22.638,56.719 40.007,60.55 39.951,60.855 22.582,57.024 		"/>
		<polygon clip-path="url(#SVGID_4_)" fill="#FFFFFF" points="22.61,56.857 39.979,60.688 39.923,60.994 22.555,57.163 		"/>
		<polygon clip-path="url(#SVGID_4_)" fill="#FFFFFF" points="22.582,57.024 39.951,60.855 39.867,61.161 22.499,57.33 		"/>
		<polygon clip-path="url(#SVGID_4_)" fill="#FFFFFF" points="22.555,57.163 39.923,60.994 39.84,61.299 22.471,57.468 		"/>
		<polygon clip-path="url(#SVGID_4_)" fill="#FFFFFF" points="22.499,57.33 39.867,61.161 39.812,61.466 22.442,57.635 		"/>
		<polygon clip-path="url(#SVGID_4_)" fill="#FFFFFF" points="22.471,57.468 39.84,61.299 39.783,61.632 22.415,57.801 		"/>
		<polygon clip-path="url(#SVGID_4_)" fill="#FFFFFF" points="22.442,57.635 39.812,61.466 39.756,61.771 22.387,57.94 		"/>
		<polygon clip-path="url(#SVGID_4_)" fill="#FFFFFF" points="22.415,57.801 39.783,61.632 39.7,61.938 22.331,58.107 		"/>
		<polygon clip-path="url(#SVGID_4_)" fill="#FFFFFF" points="22.387,57.94 39.756,61.771 39.672,62.077 22.304,58.246 		"/>
		<polygon clip-path="url(#SVGID_4_)" fill="#FFFFFF" points="22.331,58.107 39.7,61.938 39.645,62.243 22.275,58.412 		"/>
		<polygon clip-path="url(#SVGID_4_)" fill="#FFFFFF" points="22.304,58.246 39.672,62.077 39.616,62.41 22.248,58.579 		"/>
		<polygon clip-path="url(#SVGID_4_)" fill="#FFFFFF" points="22.275,58.412 39.645,62.243 39.561,62.549 22.192,58.717 		"/>
		<polygon clip-path="url(#SVGID_4_)" fill="#FFFFFF" points="22.248,58.579 39.616,62.41 39.532,62.715 22.164,58.884 		"/>
		<polygon clip-path="url(#SVGID_4_)" fill="#FFFFFF" points="22.192,58.717 39.561,62.549 39.505,62.854 22.136,59.023 		"/>
		<polygon clip-path="url(#SVGID_4_)" fill="#FFFFFF" points="22.164,58.884 39.532,62.715 39.477,63.021 22.108,59.189 		"/>
		<polygon clip-path="url(#SVGID_4_)" fill="#FFFFFF" points="22.136,59.023 39.505,62.854 39.421,63.16 22.053,59.328 		"/>
		<polygon clip-path="url(#SVGID_4_)" fill="#FFFFFF" points="22.108,59.189 39.477,63.021 39.394,63.326 22.024,59.495 		"/>
		<polygon clip-path="url(#SVGID_4_)" fill="#FFFFFF" points="22.053,59.328 39.421,63.16 39.365,63.493 21.997,59.662 		"/>
		<polygon clip-path="url(#SVGID_4_)" fill="#FFFFFF" points="22.024,59.495 39.394,63.326 39.338,63.631 21.969,59.8 		"/>
		<polygon clip-path="url(#SVGID_4_)" fill="#FFFFFF" points="21.997,59.662 39.365,63.493 39.282,63.798 21.913,59.967 		"/>
		<polygon clip-path="url(#SVGID_4_)" fill="#FFFFFF" points="21.969,59.8 39.338,63.631 39.254,63.937 21.885,60.105 		"/>
		<polygon clip-path="url(#SVGID_4_)" fill="#FFFFFF" points="21.913,59.967 39.282,63.798 39.226,64.104 21.857,60.272 		"/>
		<polygon clip-path="url(#SVGID_4_)" fill="#FFFFFF" points="21.885,60.105 39.254,63.937 39.198,64.27 21.829,60.439 		"/>
		<polygon clip-path="url(#SVGID_4_)" fill="#FFFFFF" points="21.857,60.272 39.226,64.104 39.17,64.409 21.802,60.578 		"/>
		<polygon clip-path="url(#SVGID_4_)" fill="#FFFFFF" points="21.829,60.439 39.198,64.27 39.114,64.575 21.746,60.744 		"/>
		<polygon clip-path="url(#SVGID_4_)" fill="#FFFFFF" points="21.802,60.578 39.17,64.409 39.087,64.714 21.718,60.883 		"/>
		<polygon clip-path="url(#SVGID_4_)" fill="#FFFFFF" points="21.746,60.744 39.114,64.575 39.059,64.881 21.69,61.049 		"/>
		<polygon clip-path="url(#SVGID_4_)" fill="#FFFFFF" points="21.718,60.883 39.087,64.714 39.031,65.02 21.662,61.188 		"/>
		<polygon clip-path="url(#SVGID_4_)" fill="#FFFFFF" points="21.69,61.049 39.059,64.881 38.976,65.186 21.606,61.355 		"/>
		<polygon clip-path="url(#SVGID_4_)" fill="#FFFFFF" points="21.662,61.188 39.031,65.02 38.947,65.353 21.578,61.521 		"/>
		<polygon clip-path="url(#SVGID_4_)" fill="#FFFFFF" points="21.606,61.355 38.976,65.186 38.919,65.492 21.551,61.66 		"/>
		<polygon clip-path="url(#SVGID_4_)" fill="#FFFFFF" points="21.578,61.521 38.947,65.353 38.892,65.658 21.522,61.827 		"/>
		<polygon clip-path="url(#SVGID_4_)" fill="#FFFFFF" points="21.551,61.66 38.919,65.492 38.836,65.797 21.467,61.966 		"/>
		<polygon clip-path="url(#SVGID_4_)" fill="#FFFFFF" points="21.522,61.827 38.892,65.658 38.808,65.963 21.439,62.132 		"/>
		<polygon clip-path="url(#SVGID_4_)" fill="#FFFFFF" points="21.467,61.966 38.836,65.797 38.78,66.13 21.411,62.299 		"/>
		<polygon clip-path="url(#SVGID_4_)" fill="#FFFFFF" points="21.439,62.132 38.808,65.963 38.752,66.269 21.384,62.438 		"/>
		<polygon clip-path="url(#SVGID_4_)" fill="#FFFFFF" points="21.411,62.299 38.78,66.13 38.696,66.436 21.328,62.604 		"/>
		<polygon clip-path="url(#SVGID_4_)" fill="#FFFFFF" points="21.384,62.438 38.752,66.269 38.669,66.574 21.3,62.743 		"/>
		<polygon clip-path="url(#SVGID_4_)" fill="#FFFFFF" points="21.328,62.604 38.696,66.436 38.641,66.741 21.271,62.91 		"/>
		<polygon clip-path="url(#SVGID_4_)" fill="#FFFFFF" points="21.3,62.743 38.669,66.574 38.612,66.88 21.244,63.048 		"/>
		<polygon clip-path="url(#SVGID_4_)" fill="#FFFFFF" points="21.271,62.91 38.641,66.741 38.557,67.046 21.188,63.215 		"/>
		<polygon clip-path="url(#SVGID_4_)" fill="#FFFFFF" points="21.244,63.048 38.612,66.88 38.529,67.213 21.16,63.381 		"/>
		<polygon clip-path="url(#SVGID_4_)" fill="#FFFFFF" points="21.188,63.215 38.557,67.046 38.501,67.352 21.133,63.521 		"/>
		<polygon clip-path="url(#SVGID_4_)" fill="#FFFFFF" points="21.16,63.381 38.529,67.213 38.474,67.518 21.104,63.687 		"/>
		<polygon clip-path="url(#SVGID_4_)" fill="#FFFFFF" points="21.133,63.521 38.501,67.352 38.445,67.657 21.077,63.826 		"/>
		<polygon clip-path="url(#SVGID_4_)" fill="#FFFFFF" points="21.104,63.687 38.474,67.518 38.39,67.824 21.021,63.992 		"/>
		<polygon clip-path="url(#SVGID_4_)" fill="#FFFFFF" points="21.077,63.826 38.445,67.657 38.361,67.99 20.993,64.159 		"/>
		<polygon clip-path="url(#SVGID_4_)" fill="#FFFFFF" points="21.021,63.992 38.39,67.824 38.334,68.129 20.965,64.298 		"/>
		<polygon clip-path="url(#SVGID_4_)" fill="#FFFFFF" points="20.993,64.159 38.361,67.99 38.306,68.295 20.938,64.464 		"/>
		<polygon clip-path="url(#SVGID_4_)" fill="#FFFFFF" points="20.965,64.298 38.334,68.129 38.25,68.435 20.882,64.603 		"/>
		<polygon clip-path="url(#SVGID_4_)" fill="#FFFFFF" points="20.938,64.464 38.306,68.295 38.223,68.601 20.854,64.77 		"/>
		<polygon clip-path="url(#SVGID_4_)" fill="#FFFFFF" points="20.882,64.603 38.25,68.435 38.194,68.74 20.826,64.937 		"/>
		<polygon clip-path="url(#SVGID_4_)" fill="#FFFFFF" points="20.854,64.77 38.223,68.601 38.167,68.906 20.798,65.075 		"/>
		<polygon clip-path="url(#SVGID_4_)" fill="#FFFFFF" points="20.826,64.937 38.194,68.74 38.111,69.073 20.742,65.242 		"/>
		<polygon clip-path="url(#SVGID_4_)" fill="#FFFFFF" points="20.798,65.075 38.167,68.906 38.083,69.212 20.714,65.38 		"/>
		<polygon clip-path="url(#SVGID_4_)" fill="#FFFFFF" points="20.742,65.242 38.111,69.073 38.055,69.378 20.687,65.547 		"/>
		<polygon clip-path="url(#SVGID_4_)" fill="#FFFFFF" points="20.714,65.38 38.083,69.212 38.027,69.517 20.658,65.686 		"/>
		<polygon clip-path="url(#SVGID_4_)" fill="#FFFFFF" points="20.687,65.547 38.055,69.378 37.972,69.684 20.603,65.853 		"/>
		<polygon clip-path="url(#SVGID_4_)" fill="#FFFFFF" points="20.658,65.686 38.027,69.517 37.943,69.85 20.575,66.019 		"/>
		<polygon clip-path="url(#SVGID_4_)" fill="#FFFFFF" points="20.603,65.853 37.972,69.684 37.916,69.989 20.547,66.158 		"/>
		<polygon clip-path="url(#SVGID_4_)" fill="#FFFFFF" points="20.575,66.019 37.943,69.85 37.888,70.156 20.52,66.324 		"/>
		<polygon clip-path="url(#SVGID_4_)" fill="#FFFFFF" points="20.547,66.158 37.916,69.989 37.86,70.294 20.491,66.463 		"/>
		<polygon clip-path="url(#SVGID_4_)" fill="#FFFFFF" points="20.52,66.324 37.888,70.156 37.805,70.461 20.436,66.63 		"/>
		<polygon clip-path="url(#SVGID_4_)" fill="#FFFFFF" points="20.491,66.463 37.86,70.294 37.776,70.6 20.407,66.796 		"/>
		<polygon clip-path="url(#SVGID_4_)" fill="#FFFFFF" points="20.436,66.63 37.805,70.461 37.748,70.767 20.38,66.935 		"/>
		<polygon clip-path="url(#SVGID_4_)" fill="#FFFFFF" points="20.407,66.796 37.776,70.6 37.721,70.933 20.352,67.102 		"/>
		<polygon clip-path="url(#SVGID_4_)" fill="#FFFFFF" points="20.38,66.935 37.748,70.767 37.665,71.072 20.296,67.241 		"/>
		<polygon clip-path="url(#SVGID_4_)" fill="#FFFFFF" points="20.352,67.102 37.721,70.933 37.637,71.238 20.269,67.407 		"/>
		<polygon clip-path="url(#SVGID_4_)" fill="#FFFFFF" points="20.296,67.241 37.665,71.072 37.609,71.377 20.24,67.546 		"/>
		<polygon clip-path="url(#SVGID_4_)" fill="#FFFFFF" points="20.269,67.407 37.637,71.238 37.581,71.544 20.213,67.712 		"/>
		<polygon clip-path="url(#SVGID_4_)" fill="#FFFFFF" points="20.24,67.546 37.609,71.377 37.525,71.71 20.156,67.879 		"/>
		<polygon clip-path="url(#SVGID_4_)" fill="#FFFFFF" points="20.213,67.712 37.581,71.544 37.497,71.849 20.129,68.018 		"/>
		<polygon clip-path="url(#SVGID_4_)" fill="#FFFFFF" points="20.156,67.879 37.525,71.71 37.47,72.016 20.101,68.185 		"/>
		<polygon clip-path="url(#SVGID_4_)" fill="#FFFFFF" points="20.129,68.018 37.497,71.849 37.441,72.154 20.073,68.323 		"/>
		<polygon clip-path="url(#SVGID_4_)" fill="#FFFFFF" points="20.101,68.185 37.47,72.016 37.386,72.321 20.018,68.49 		"/>
		<polygon clip-path="url(#SVGID_4_)" fill="#FFFFFF" points="20.073,68.323 37.441,72.154 37.358,72.46 19.989,68.656 		"/>
		<polygon clip-path="url(#SVGID_4_)" fill="#FFFFFF" points="20.018,68.49 37.386,72.321 37.33,72.626 19.962,68.795 		"/>
		<polygon clip-path="url(#SVGID_4_)" fill="#FFFFFF" points="19.989,68.656 37.358,72.46 37.303,72.793 19.934,68.962 		"/>
		<polygon clip-path="url(#SVGID_4_)" fill="#FFFFFF" points="19.962,68.795 37.33,72.626 37.247,72.932 19.878,69.101 		"/>
		<polygon clip-path="url(#SVGID_4_)" fill="#FFFFFF" points="19.934,68.962 37.303,72.793 37.219,73.099 19.85,69.267 		"/>
		<polygon clip-path="url(#SVGID_4_)" fill="#FFFFFF" points="19.878,69.101 37.247,72.932 37.19,73.237 19.822,69.406 		"/>
		<polygon clip-path="url(#SVGID_4_)" fill="#FFFFFF" points="19.85,69.267 37.219,73.099 37.163,73.404 19.794,69.573 		"/>
		<polygon clip-path="url(#SVGID_4_)" fill="#FFFFFF" points="19.822,69.406 37.19,73.237 37.135,73.57 19.767,69.739 		"/>
		<polygon clip-path="url(#SVGID_4_)" fill="#FFFFFF" points="19.794,69.573 37.163,73.404 37.079,73.709 19.711,69.878 		"/>
		<polygon clip-path="url(#SVGID_4_)" fill="#FFFFFF" points="19.767,69.739 37.135,73.57 37.052,73.876 19.683,70.044 		"/>
		<polygon clip-path="url(#SVGID_4_)" fill="#FFFFFF" points="19.711,69.878 37.079,73.709 37.023,74.015 19.655,70.184 		"/>
		<polygon clip-path="url(#SVGID_4_)" fill="#FFFFFF" points="19.683,70.044 37.052,73.876 36.996,74.181 19.627,70.35 		"/>
		<polygon clip-path="url(#SVGID_4_)" fill="#FFFFFF" points="19.655,70.184 37.023,74.015 36.94,74.348 19.571,70.517 		"/>
		<polygon clip-path="url(#SVGID_4_)" fill="#FFFFFF" points="19.627,70.35 36.996,74.181 36.912,74.486 19.543,70.655 		"/>
		<polygon clip-path="url(#SVGID_4_)" fill="#FFFFFF" points="19.571,70.517 36.94,74.348 36.884,74.653 19.516,70.822 		"/>
		<polygon clip-path="url(#SVGID_4_)" fill="#FFFFFF" points="19.543,70.655 36.912,74.486 36.856,74.792 19.487,70.961 		"/>
		<polygon clip-path="url(#SVGID_4_)" fill="#FFFFFF" points="19.516,70.822 36.884,74.653 36.801,74.958 19.432,71.127 		"/>
		<polygon clip-path="url(#SVGID_4_)" fill="#FFFFFF" points="19.487,70.961 36.856,74.792 36.772,75.097 19.404,71.266 		"/>
		<polygon clip-path="url(#SVGID_4_)" fill="#FFFFFF" points="19.432,71.127 36.801,74.958 36.745,75.264 19.376,71.433 		"/>
		<polygon clip-path="url(#SVGID_4_)" fill="#FFFFFF" points="19.404,71.266 36.772,75.097 36.717,75.431 19.349,71.599 		"/>
		<polygon clip-path="url(#SVGID_4_)" fill="#FFFFFF" points="19.376,71.433 36.745,75.264 36.661,75.569 19.293,71.738 		"/>
		<polygon clip-path="url(#SVGID_4_)" fill="#FFFFFF" points="19.349,71.599 36.717,75.431 36.633,75.736 19.265,71.905 		"/>
		<polygon clip-path="url(#SVGID_4_)" fill="#FFFFFF" points="19.293,71.738 36.661,75.569 36.605,75.875 19.236,72.043 		"/>
		<polygon clip-path="url(#SVGID_4_)" fill="#FFFFFF" points="19.265,71.905 36.633,75.736 36.577,76.041 19.209,72.21 		"/>
		<polygon clip-path="url(#SVGID_4_)" fill="#FFFFFF" points="19.236,72.043 36.605,75.875 36.55,76.208 19.181,72.376 		"/>
		<polygon clip-path="url(#SVGID_4_)" fill="#FFFFFF" points="19.209,72.21 36.577,76.041 36.494,76.347 19.125,72.516 		"/>
		<polygon clip-path="url(#SVGID_4_)" fill="#FFFFFF" points="19.181,72.376 36.55,76.208 36.466,76.513 19.098,72.682 		"/>
		<polygon clip-path="url(#SVGID_4_)" fill="#FFFFFF" points="19.125,72.516 36.494,76.347 36.438,76.652 19.069,72.821 		"/>
		<polygon clip-path="url(#SVGID_4_)" fill="#FFFFFF" points="19.098,72.682 36.466,76.513 36.41,76.818 19.042,72.987 		"/>
		<polygon clip-path="url(#SVGID_4_)" fill="#FFFFFF" points="19.069,72.821 36.438,76.652 36.354,76.958 18.985,73.126 		"/>
		<polygon clip-path="url(#SVGID_4_)" fill="#FFFFFF" points="19.042,72.987 36.41,76.818 36.326,77.124 18.958,73.293 		"/>
		<polygon clip-path="url(#SVGID_4_)" fill="#FFFFFF" points="18.985,73.126 36.354,76.958 36.299,77.291 18.93,73.459 		"/>
		<polygon clip-path="url(#SVGID_4_)" fill="#FFFFFF" points="18.958,73.293 36.326,77.124 36.271,77.429 18.902,73.598 		"/>
		<polygon clip-path="url(#SVGID_4_)" fill="#FFFFFF" points="18.93,73.459 36.299,77.291 36.215,77.596 18.847,73.765 		"/>
		<polygon clip-path="url(#SVGID_4_)" fill="#FFFFFF" points="18.902,73.598 36.271,77.429 36.188,77.735 18.818,73.903 		"/>
		<polygon clip-path="url(#SVGID_4_)" fill="#FFFFFF" points="18.847,73.765 36.215,77.596 36.159,77.901 18.791,74.07 		"/>
		<polygon clip-path="url(#SVGID_4_)" fill="#FFFFFF" points="18.818,73.903 36.188,77.735 36.132,78.068 18.763,74.237 		"/>
		<polygon clip-path="url(#SVGID_4_)" fill="#FFFFFF" points="18.791,74.07 36.159,77.901 36.076,78.207 18.707,74.375 		"/>
		<polygon clip-path="url(#SVGID_4_)" fill="#FFFFFF" points="18.763,74.237 36.132,78.068 36.048,78.373 18.679,74.542 		"/>
		<polygon clip-path="url(#SVGID_4_)" fill="#FFFFFF" points="18.707,74.375 36.076,78.207 36.02,78.512 18.651,74.681 		"/>
		<polygon clip-path="url(#SVGID_4_)" fill="#FFFFFF" points="18.679,74.542 36.048,78.373 35.992,78.679 18.623,74.848 		"/>
		<polygon clip-path="url(#SVGID_4_)" fill="#FFFFFF" points="18.651,74.681 36.02,78.512 35.937,78.817 18.567,74.986 		"/>
		<polygon clip-path="url(#SVGID_4_)" fill="#FFFFFF" points="18.623,74.848 35.992,78.679 35.908,78.984 18.54,75.153 		"/>
		<polygon clip-path="url(#SVGID_4_)" fill="#FFFFFF" points="18.567,74.986 35.937,78.817 35.881,79.15 18.512,75.319 		"/>
		<polygon clip-path="url(#SVGID_4_)" fill="#FFFFFF" points="18.54,75.153 35.908,78.984 35.853,79.29 18.484,75.458 		"/>
		<polygon clip-path="url(#SVGID_4_)" fill="#FFFFFF" points="18.512,75.319 35.881,79.15 35.825,79.456 18.456,75.625 		"/>
		<polygon clip-path="url(#SVGID_4_)" fill="#FFFFFF" points="18.484,75.458 35.853,79.29 35.769,79.595 18.4,75.764 		"/>
		<polygon clip-path="url(#SVGID_4_)" fill="#FFFFFF" points="18.456,75.625 35.825,79.456 35.741,79.761 18.372,75.93 		"/>
		<polygon clip-path="url(#SVGID_4_)" fill="#FFFFFF" points="18.4,75.764 35.769,79.595 35.713,79.928 18.345,76.097 		"/>
		<polygon clip-path="url(#SVGID_4_)" fill="#FFFFFF" points="18.372,75.93 35.741,79.761 35.686,80.067 18.316,76.235 		"/>
		<polygon clip-path="url(#SVGID_4_)" fill="#FFFFFF" points="18.345,76.097 35.713,79.928 35.63,80.233 18.261,76.402 		"/>
		<polygon clip-path="url(#SVGID_4_)" fill="#FFFFFF" points="18.316,76.235 35.686,80.067 35.602,80.372 18.233,76.541 		"/>
		<polygon clip-path="url(#SVGID_4_)" fill="#FFFFFF" points="18.261,76.402 35.63,80.233 35.574,80.539 18.205,76.708 		"/>
		<polygon clip-path="url(#SVGID_4_)" fill="#FFFFFF" points="18.233,76.541 35.602,80.372 35.546,80.678 18.178,76.846 		"/>
		<polygon clip-path="url(#SVGID_4_)" fill="#FFFFFF" points="18.205,76.708 35.574,80.539 35.49,80.844 18.121,77.013 		"/>
		<polygon clip-path="url(#SVGID_4_)" fill="#FFFFFF" points="18.178,76.846 35.546,80.678 35.462,81.011 18.094,77.18 		"/>
		<polygon clip-path="url(#SVGID_4_)" fill="#FFFFFF" points="18.121,77.013 35.49,80.844 35.435,81.149 18.065,77.318 		"/>
		<polygon clip-path="url(#SVGID_4_)" fill="#FFFFFF" points="18.094,77.18 35.462,81.011 35.406,81.316 18.038,77.485 		"/>
		<polygon clip-path="url(#SVGID_4_)" fill="#FFFFFF" points="18.065,77.318 35.435,81.149 35.351,81.455 17.982,77.624 		"/>
		<polygon clip-path="url(#SVGID_4_)" fill="#FFFFFF" points="18.038,77.485 35.406,81.316 35.323,81.622 17.954,77.79 		"/>
		<polygon clip-path="url(#SVGID_4_)" fill="#FFFFFF" points="17.982,77.624 35.351,81.455 35.295,81.788 17.927,77.957 		"/>
		<polygon clip-path="url(#SVGID_4_)" fill="#FFFFFF" points="17.954,77.79 35.323,81.622 35.268,81.927 17.898,78.096 		"/>
		<polygon clip-path="url(#SVGID_4_)" fill="#FFFFFF" points="17.927,77.957 35.295,81.788 35.239,82.093 17.871,78.262 		"/>
		<polygon clip-path="url(#SVGID_4_)" fill="#FFFFFF" points="17.898,78.096 35.268,81.927 35.184,82.232 17.814,78.401 		"/>
		<polygon clip-path="url(#SVGID_4_)" fill="#FFFFFF" points="17.871,78.262 35.239,82.093 35.155,82.399 17.787,78.567 		"/>
		<polygon clip-path="url(#SVGID_4_)" fill="#FFFFFF" points="17.814,78.401 35.184,82.232 35.128,82.538 17.759,78.707 		"/>
		<polygon clip-path="url(#SVGID_4_)" fill="#FFFFFF" points="17.787,78.567 35.155,82.399 35.1,82.704 17.731,78.873 		"/>
		<polygon clip-path="url(#SVGID_4_)" fill="#FFFFFF" points="17.759,78.707 35.128,82.538 35.044,82.871 17.676,79.04 		"/>
		<polygon clip-path="url(#SVGID_4_)" fill="#FFFFFF" points="17.731,78.873 35.1,82.704 35.017,83.01 17.647,79.178 		"/>
		<polygon clip-path="url(#SVGID_4_)" fill="#FFFFFF" points="17.676,79.04 35.044,82.871 34.988,83.176 17.62,79.345 		"/>
		<polygon clip-path="url(#SVGID_4_)" fill="#FFFFFF" points="17.647,79.178 35.017,83.01 34.961,83.315 17.592,79.484 		"/>
		<polygon clip-path="url(#SVGID_4_)" fill="#FFFFFF" points="17.62,79.345 34.988,83.176 34.904,83.481 17.536,79.65 		"/>
		<polygon clip-path="url(#SVGID_4_)" fill="#FFFFFF" points="17.592,79.484 34.961,83.315 34.877,83.648 17.508,79.817 		"/>
		<polygon clip-path="url(#SVGID_4_)" fill="#FFFFFF" points="17.536,79.65 34.904,83.481 34.849,83.787 17.48,79.956 		"/>
		<polygon clip-path="url(#SVGID_4_)" fill="#FFFFFF" points="17.508,79.817 34.877,83.648 34.821,83.954 17.452,80.122 		"/>
		<polygon clip-path="url(#SVGID_4_)" fill="#FFFFFF" points="17.48,79.956 34.849,83.787 34.766,84.092 17.396,80.261 		"/>
		<polygon clip-path="url(#SVGID_4_)" fill="#FFFFFF" points="17.452,80.122 34.821,83.954 34.737,84.259 17.369,80.428 		"/>
		<polygon clip-path="url(#SVGID_4_)" fill="#FFFFFF" points="17.396,80.261 34.766,84.092 34.71,84.397 17.341,80.566 		"/>
		<polygon clip-path="url(#SVGID_4_)" fill="#FFFFFF" points="17.369,80.428 34.737,84.259 34.682,84.564 17.313,80.733 		"/>
		<polygon clip-path="url(#SVGID_4_)" fill="#FFFFFF" points="17.341,80.566 34.71,84.397 34.626,84.731 17.285,80.899 		"/>
		<polygon clip-path="url(#SVGID_4_)" fill="#FFFFFF" points="17.313,80.733 34.682,84.564 34.598,84.87 17.229,81.039 		"/>
		<polygon clip-path="url(#SVGID_4_)" fill="#FFFFFF" points="17.285,80.899 34.626,84.731 34.57,85.036 17.201,81.205 		"/>
		<polygon clip-path="url(#SVGID_4_)" fill="#FFFFFF" points="17.229,81.039 34.598,84.87 34.542,85.175 17.174,81.344 		"/>
		<polygon clip-path="url(#SVGID_4_)" fill="#FFFFFF" points="17.201,81.205 34.57,85.036 34.515,85.342 17.146,81.51 		"/>
		<polygon clip-path="url(#SVGID_4_)" fill="#FFFFFF" points="17.174,81.344 34.542,85.175 34.459,85.508 17.09,81.677 		"/>
		<polygon clip-path="url(#SVGID_4_)" fill="#FFFFFF" points="17.146,81.51 34.515,85.342 34.431,85.647 17.063,81.816 		"/>
		<polygon clip-path="url(#SVGID_4_)" fill="#FFFFFF" points="17.09,81.677 34.459,85.508 34.403,85.813 17.034,81.982 		"/>
		<polygon clip-path="url(#SVGID_4_)" fill="#FFFFFF" points="17.063,81.816 34.431,85.647 34.375,85.952 17.007,82.121 		"/>
		<polygon clip-path="url(#SVGID_4_)" fill="#FFFFFF" points="17.034,81.982 34.403,85.813 34.319,86.119 16.95,82.288 		"/>
		<polygon clip-path="url(#SVGID_4_)" fill="#FFFFFF" points="17.007,82.121 34.375,85.952 34.291,86.258 16.923,82.427 		"/>
		<polygon clip-path="url(#SVGID_4_)" fill="#FFFFFF" points="16.95,82.288 34.319,86.119 34.264,86.424 16.895,82.593 		"/>
		<polygon clip-path="url(#SVGID_4_)" fill="#FFFFFF" points="16.923,82.427 34.291,86.258 34.235,86.591 16.867,82.76 		"/>
		<polygon clip-path="url(#SVGID_4_)" fill="#FFFFFF" points="16.895,82.593 34.264,86.424 34.18,86.729 16.812,82.898 		"/>
		<polygon clip-path="url(#SVGID_4_)" fill="#FFFFFF" points="16.867,82.76 34.235,86.591 34.152,86.896 16.783,83.065 		"/>
		<polygon clip-path="url(#SVGID_4_)" fill="#FFFFFF" points="16.812,82.898 34.18,86.729 34.124,87.035 16.756,83.204 		"/>
		<polygon clip-path="url(#SVGID_4_)" fill="#FFFFFF" points="16.783,83.065 34.152,86.896 34.097,87.202 16.728,83.371 		"/>
		<polygon clip-path="url(#SVGID_4_)" fill="#FFFFFF" points="16.756,83.204 34.124,87.035 34.041,87.368 16.672,83.537 		"/>
		<polygon clip-path="url(#SVGID_4_)" fill="#FFFFFF" points="16.728,83.371 34.097,87.202 34.013,87.507 16.644,83.676 		"/>
		<polygon clip-path="url(#SVGID_4_)" fill="#FFFFFF" points="16.672,83.537 34.041,87.368 33.984,87.674 16.616,83.842 		"/>
		<polygon clip-path="url(#SVGID_4_)" fill="#FFFFFF" points="16.644,83.676 34.013,87.507 33.957,87.813 16.588,83.981 		"/>
		<polygon clip-path="url(#SVGID_4_)" fill="#FFFFFF" points="16.616,83.842 33.984,87.674 33.929,87.979 16.561,84.148 		"/>
		<polygon clip-path="url(#SVGID_4_)" fill="#FFFFFF" points="16.588,83.981 33.957,87.813 33.873,88.118 16.505,84.287 		"/>
		<polygon clip-path="url(#SVGID_4_)" fill="#FFFFFF" points="16.561,84.148 33.929,87.979 33.846,88.284 16.477,84.453 		"/>
		<polygon clip-path="url(#SVGID_4_)" fill="#FFFFFF" points="16.505,84.287 33.873,88.118 33.817,88.451 16.449,84.62 		"/>
		<polygon clip-path="url(#SVGID_4_)" fill="#FFFFFF" points="16.477,84.453 33.846,88.284 33.79,88.59 16.421,84.759 		"/>
		<polygon clip-path="url(#SVGID_4_)" fill="#FFFFFF" points="16.449,84.62 33.817,88.451 33.733,88.756 16.365,84.925 		"/>
		<polygon clip-path="url(#SVGID_4_)" fill="#FFFFFF" points="16.421,84.759 33.79,88.59 33.706,88.895 16.337,85.064 		"/>
		<polygon clip-path="url(#SVGID_4_)" fill="#FFFFFF" points="16.365,84.925 33.733,88.756 33.678,89.062 16.31,85.23 		"/>
		<polygon clip-path="url(#SVGID_4_)" fill="#FFFFFF" points="16.337,85.064 33.706,88.895 33.65,89.229 16.281,85.397 		"/>
		<polygon clip-path="url(#SVGID_4_)" fill="#FFFFFF" points="16.31,85.23 33.678,89.062 33.595,89.367 16.226,85.536 		"/>
		<polygon clip-path="url(#SVGID_4_)" fill="#FFFFFF" points="16.281,85.397 33.65,89.229 33.566,89.534 16.198,85.703 		"/>
		<polygon clip-path="url(#SVGID_4_)" fill="#FFFFFF" points="16.226,85.536 33.595,89.367 33.539,89.672 16.17,85.841 		"/>
		<polygon clip-path="url(#SVGID_4_)" fill="#FFFFFF" points="16.198,85.703 33.566,89.534 33.511,89.839 16.143,86.008 		"/>
		<polygon clip-path="url(#SVGID_4_)" fill="#FFFFFF" points="16.17,85.841 33.539,89.672 33.455,89.978 16.086,86.174 		"/>
		<polygon clip-path="url(#SVGID_4_)" fill="#FFFFFF" points="16.143,86.008 33.511,89.839 33.427,90.145 16.059,86.313 		"/>
		<polygon clip-path="url(#SVGID_4_)" fill="#FFFFFF" points="16.086,86.174 33.455,89.978 33.399,90.311 16.03,86.48 		"/>
		<polygon clip-path="url(#SVGID_4_)" fill="#FFFFFF" points="16.059,86.313 33.427,90.145 33.371,90.45 16.003,86.619 		"/>
		<polygon clip-path="url(#SVGID_4_)" fill="#FFFFFF" points="16.03,86.48 33.399,90.311 33.315,90.616 15.975,86.785 		"/>
		<polygon clip-path="url(#SVGID_4_)" fill="#FFFFFF" points="16.003,86.619 33.371,90.45 33.288,90.755 15.919,86.924 		"/>
		<polygon clip-path="url(#SVGID_4_)" fill="#FFFFFF" points="15.975,86.785 33.315,90.616 33.26,90.922 15.892,87.091 		"/>
		<polygon clip-path="url(#SVGID_4_)" fill="#FFFFFF" points="15.919,86.924 33.288,90.755 33.232,91.088 15.863,87.257 		"/>
		<polygon clip-path="url(#SVGID_4_)" fill="#FFFFFF" points="15.892,87.091 33.26,90.922 33.204,91.227 15.836,87.396 		"/>
		<polygon clip-path="url(#SVGID_4_)" fill="#FFFFFF" points="15.863,87.257 33.232,91.088 33.148,91.394 15.779,87.563 		"/>
		<polygon clip-path="url(#SVGID_4_)" fill="#FFFFFF" points="15.836,87.396 33.204,91.227 33.12,91.533 15.752,87.701 		"/>
		<polygon clip-path="url(#SVGID_4_)" fill="#FFFFFF" points="15.779,87.563 33.148,91.394 33.093,91.699 15.724,87.868 		"/>
		<polygon clip-path="url(#SVGID_4_)" fill="#FFFFFF" points="15.752,87.701 33.12,91.533 33.064,91.838 15.696,88.035 		"/>
		<polygon clip-path="url(#SVGID_4_)" fill="#FFFFFF" points="15.724,87.868 33.093,91.699 33.009,92.004 15.641,88.173 		"/>
		<polygon clip-path="url(#SVGID_4_)" fill="#FFFFFF" points="15.696,88.035 33.064,91.838 32.981,92.171 15.612,88.34 		"/>
		<polygon clip-path="url(#SVGID_4_)" fill="#FFFFFF" points="15.641,88.173 33.009,92.004 32.953,92.31 15.585,88.479 		"/>
		<polygon clip-path="url(#SVGID_4_)" fill="#FFFFFF" points="15.612,88.34 32.981,92.171 32.926,92.477 15.557,88.646 		"/>
		<polygon clip-path="url(#SVGID_4_)" fill="#FFFFFF" points="15.585,88.479 32.953,92.31 32.869,92.615 15.501,88.784 		"/>
		<polygon clip-path="url(#SVGID_4_)" fill="#FFFFFF" points="15.557,88.646 32.926,92.477 32.842,92.782 15.473,88.951 		"/>
		<polygon clip-path="url(#SVGID_4_)" fill="#FFFFFF" points="15.501,88.784 32.869,92.615 32.813,92.948 15.445,89.117 		"/>
		<polygon clip-path="url(#SVGID_4_)" fill="#FFFFFF" points="15.473,88.951 32.842,92.782 32.786,93.087 15.417,89.256 		"/>
		<polygon clip-path="url(#SVGID_4_)" fill="#FFFFFF" points="15.445,89.117 32.813,92.948 32.73,93.254 15.361,89.423 		"/>
		<polygon clip-path="url(#SVGID_4_)" fill="#FFFFFF" points="15.417,89.256 32.786,93.087 32.702,93.393 15.334,89.562 		"/>
		<polygon clip-path="url(#SVGID_4_)" fill="#FFFFFF" points="15.361,89.423 32.73,93.254 32.675,93.559 15.306,89.728 		"/>
		<polygon clip-path="url(#SVGID_4_)" fill="#FFFFFF" points="15.334,89.562 32.702,93.393 32.646,93.698 15.278,89.895 		"/>
		<polygon clip-path="url(#SVGID_4_)" fill="#FFFFFF" points="15.306,89.728 32.675,93.559 32.619,93.865 15.25,90.033 		"/>
		<polygon clip-path="url(#SVGID_4_)" fill="#FFFFFF" points="15.278,89.895 32.646,93.698 32.563,94.031 15.194,90.2 		"/>
		<polygon clip-path="url(#SVGID_4_)" fill="#FFFFFF" points="15.25,90.033 32.619,93.865 32.535,94.17 15.166,90.339 		"/>
		<polygon clip-path="url(#SVGID_4_)" fill="#FFFFFF" points="15.194,90.2 32.563,94.031 32.507,94.336 15.139,90.505 		"/>
		<polygon clip-path="url(#SVGID_4_)" fill="#FFFFFF" points="15.166,90.339 32.535,94.17 32.479,94.476 15.11,90.644 		"/>
		<polygon clip-path="url(#SVGID_4_)" fill="#FFFFFF" points="15.139,90.505 32.507,94.336 32.424,94.642 15.055,90.811 		"/>
		<polygon clip-path="url(#SVGID_4_)" fill="#FFFFFF" points="15.11,90.644 32.479,94.476 32.396,94.809 15.027,90.978 		"/>
		<polygon clip-path="url(#SVGID_4_)" fill="#FFFFFF" points="15.055,90.811 32.424,94.642 32.368,94.947 14.999,91.116 		"/>
		<polygon clip-path="url(#SVGID_4_)" fill="#FFFFFF" points="15.027,90.978 32.396,94.809 32.34,95.114 14.972,91.283 		"/>
		<polygon clip-path="url(#SVGID_4_)" fill="#FFFFFF" points="14.999,91.116 32.368,94.947 32.284,95.253 14.915,91.421 		"/>
		<polygon clip-path="url(#SVGID_4_)" fill="#FFFFFF" points="14.972,91.283 32.34,95.114 32.256,95.419 14.888,91.588 		"/>
		<polygon clip-path="url(#SVGID_4_)" fill="#FFFFFF" points="14.915,91.421 32.284,95.253 32.229,95.586 14.859,91.755 		"/>
		<polygon clip-path="url(#SVGID_4_)" fill="#FFFFFF" points="14.888,91.588 32.256,95.419 32.2,95.725 14.832,91.894 		"/>
		<polygon clip-path="url(#SVGID_4_)" fill="#FFFFFF" points="14.859,91.755 32.229,95.586 32.145,95.891 14.776,92.06 		"/>
		<polygon clip-path="url(#SVGID_4_)" fill="#FFFFFF" points="14.832,91.894 32.2,95.725 32.117,96.03 14.748,92.199 		"/>
		<polygon clip-path="url(#SVGID_4_)" fill="#FFFFFF" points="14.776,92.06 32.145,95.891 32.089,96.197 14.721,92.365 		"/>
		<polygon clip-path="url(#SVGID_4_)" fill="#FFFFFF" points="14.748,92.199 32.117,96.03 32.062,96.335 14.692,92.504 		"/>
		<polygon clip-path="url(#SVGID_4_)" fill="#FFFFFF" points="14.721,92.365 32.089,96.197 32.033,96.502 14.665,92.671 		"/>
		<polygon clip-path="url(#SVGID_4_)" fill="#FFFFFF" points="14.692,92.504 32.062,96.335 31.978,96.668 14.608,92.837 		"/>
		<polygon clip-path="url(#SVGID_4_)" fill="#FFFFFF" points="14.665,92.671 32.033,96.502 31.949,96.808 14.581,92.976 		"/>
		<polygon clip-path="url(#SVGID_4_)" fill="#FFFFFF" points="14.608,92.837 31.978,96.668 31.922,96.974 14.553,93.143 		"/>
		<polygon clip-path="url(#SVGID_4_)" fill="#FFFFFF" points="14.581,92.976 31.949,96.808 31.894,97.113 14.525,93.282 		"/>
		<polygon clip-path="url(#SVGID_4_)" fill="#FFFFFF" points="14.553,93.143 31.922,96.974 31.838,97.279 14.47,93.448 		"/>
		<polygon clip-path="url(#SVGID_4_)" fill="#FFFFFF" points="14.525,93.282 31.894,97.113 31.811,97.446 14.441,93.615 		"/>
		<polygon clip-path="url(#SVGID_4_)" fill="#FFFFFF" points="14.47,93.448 31.838,97.279 31.782,97.585 14.414,93.753 		"/>
		<polygon clip-path="url(#SVGID_4_)" fill="#FFFFFF" points="14.441,93.615 31.811,97.446 31.755,97.751 14.386,93.92 		"/>
		<polygon clip-path="url(#SVGID_4_)" fill="#FFFFFF" points="14.414,93.753 31.782,97.585 31.698,97.89 14.33,94.059 		"/>
		<polygon clip-path="url(#SVGID_4_)" fill="#FFFFFF" points="14.386,93.92 31.755,97.751 31.671,98.057 14.302,94.226 		"/>
		<polygon clip-path="url(#SVGID_4_)" fill="#FFFFFF" points="14.33,94.059 31.698,97.89 29.218,109.051 11.849,105.219 		"/>
	</g>
	<polygon fill="#304043" points="201.398,209.855 184.477,223.237 129.415,154.165 146.338,140.782 	"/>
	<polygon fill="#EF3B39" points="256.377,271.266 234.045,288.923 152.471,186.591 174.803,168.934 	"/>
	<polygon fill="#F15C5D" points="244.139,275.181 235.635,281.927 159.691,186.674 168.195,179.928 	"/>
	
		<image overflow="visible" width="113" height="167" xlink:href="F008313E.jpg"  transform="matrix(0.244 0 0 -0.2409 161.8105 246.6963)">
	</image>
	<path fill="#EFCDA6" d="M163.566,217.768c-4.404-9.411-6.244-13.381,3.486-18.739c8.475-4.691,14.078,2.388,20.463,8.495
		c10.064,9.605,11.877,18.656,25.816,23.293c11.486,3.775,21.885-14.659,33.203-17.574c5.967,8.939,24.031,26.485,25.844,37.008
		c1.031,5.857-2.119,5.83-6.914,10.05c-8.559,7.496-20.574,19.905-31.643,23.293c-4.545,1.415-4.684,0.416-9.256-0.917
		c-16.838-4.941-20.156-20.516-28.381-28.9c-7.555-7.662-14.775-12.992-21.188-21.543
		C171.848,228.012,167.414,224.015,163.566,217.768L163.566,217.768z"/>
	<path fill="#EFD9C4" d="M169.672,220.461c-1.115,0-2.09-0.75-2.508-1.777c-0.92-2.359-3.096-4.803-3.764-7.079
		c-0.502-1.693-1.227-4.414-0.948-6.219c0.529-3.498,5.269-5.024,8.028-5.58c4.602-0.889,8.002,2.832,11.152,5.636
		c3.066,2.721,3.568,5.58,1.422,8.745C180.656,217.712,175.137,220.488,169.672,220.461L169.672,220.461z"/>
	<path fill="#F6E9DE" d="M172.516,214.242c-2.23,1.888-2.258,3.887-2.703,6.219c5.408-0.028,10.873-2.776,13.242-6.274
		c0.863-1.249,1.283-2.471,1.311-3.637c-0.252-0.028-0.475-0.056-0.67-0.056C180.1,210.383,175.248,211.882,172.516,214.242
		L172.516,214.242z"/>
	<path fill="#F6ECE6" d="M275.363,248.39c-8.949,7.024-18.484,13.298-27.686,20.017c-5.91,4.275-11.096,9.439-16.838,13.771
		c-1.422,1.11-5.27,3.22-5.27,4.83c-0.027,0.667,2.398,3.471,2.76,3.942c1.172,1.527,2.453,2.971,3.652,4.498
		c1.59-0.389,3.178-1.943,4.572-2.805c3.875-2.388,7.891-4.636,11.82-6.968c6.078-3.609,11.375-7.885,16.783-12.382
		c5.297-4.387,10.984-8.579,16.588-12.383c1.172-0.805,2.146-1.36,2.705-2.109v-3.582
		C283.197,252.109,279.822,249.584,275.363,248.39L275.363,248.39z"/>
	<path fill="#2B353B" d="M227.355,296.835c2.676-2.971,7.219-5.303,10.398-7.885c4.879-3.942,9.563-8.106,14.162-12.382
		c3.318-3.081,6.551-6.385,10.203-9.078c2.342-1.749,4.879-3.192,7.109-5.053c3.123-2.609,6.607-4.803,9.73-7.44
		c1.729-1.472,3.43-3.331,5.352-4.47l0.141,0.25l40.258,56.33H237.92c-1.84-2.443-3.93-5.053-5.938-7.302
		C231.285,299,230.254,298.528,227.355,296.835L227.355,296.835z"/>
</g>
</svg>
