<?xml version="1.0" encoding="utf-8"?>
<!-- Generator: Adobe Illustrator 16.0.0, SVG Export Plug-In . SVG Version: 6.00 Build 0)  -->
<!DOCTYPE svg PUBLIC "-//W3C//DTD SVG 1.1//EN" "http://www.w3.org/Graphics/SVG/1.1/DTD/svg11.dtd">
<svg version="1.1" id="Layer_1" xmlns="http://www.w3.org/2000/svg" xmlns:xlink="http://www.w3.org/1999/xlink" x="0px" y="0px"
	 width="435.258px" height="251.111px" viewBox="0 0 435.258 251.111" enable-background="new 0 0 435.258 251.111"
	 xml:space="preserve">
<g>
	<path fill="#9EAAD6" d="M294.737,172.1c0.168,0.693-0.251,1.387-0.976,1.555c-0.696,0.139-1.394-0.279-1.533-0.973
		c-0.167-0.693,0.251-1.416,0.948-1.555C293.901,170.961,294.599,171.404,294.737,172.1L294.737,172.1z"/>
	<path fill="#9EAAD6" d="M252.306,41.977c0.111,0.472-0.167,0.944-0.642,1.055c-0.474,0.111-0.947-0.194-1.059-0.666
		c-0.112-0.472,0.194-0.944,0.641-1.055C251.72,41.2,252.194,41.505,252.306,41.977L252.306,41.977z"/>
	<path fill="#9EAAD6" d="M371.601,232.482c0.167,0.693-0.251,1.387-0.976,1.555c-0.697,0.166-1.395-0.277-1.562-0.973
		c-0.14-0.693,0.278-1.387,0.976-1.555C370.764,231.344,371.461,231.787,371.601,232.482L371.601,232.482z"/>
	<path fill="#9EAAD6" d="M336.306,10.8c0.167,0.694-0.279,1.388-0.976,1.555c-0.697,0.167-1.395-0.278-1.562-0.972
		c-0.167-0.694,0.278-1.388,0.976-1.555S336.138,10.105,336.306,10.8L336.306,10.8z"/>
	<path fill="#9EAAD6" d="M256.32,7.885c0.167,0.694-0.278,1.388-0.976,1.555s-1.395-0.278-1.562-0.972
		c-0.167-0.694,0.279-1.388,0.976-1.555C255.456,6.747,256.153,7.19,256.32,7.885L256.32,7.885z"/>
	<path fill="#9EAAD6" d="M416.625,210.244c0.279,1.305-0.529,2.582-1.812,2.887c-1.283,0.277-2.594-0.527-2.872-1.805
		c-0.307-1.275,0.502-2.582,1.784-2.859C415.036,208.162,416.318,208.967,416.625,210.244L416.625,210.244z"/>
	<path fill="#9EAAD6" d="M428.083,131.76c0.307,1.277-0.501,2.555-1.812,2.859c-1.282,0.307-2.565-0.5-2.872-1.805
		c-0.307-1.277,0.502-2.553,1.813-2.859C426.494,129.65,427.776,130.455,428.083,131.76L428.083,131.76z"/>
	<path fill="#9085BF" d="M343.191,170.711c0.167,0.639-0.251,1.277-0.892,1.416c-0.642,0.166-1.283-0.25-1.45-0.889
		c-0.14-0.639,0.279-1.277,0.92-1.443C342.411,169.656,343.052,170.045,343.191,170.711L343.191,170.711z"/>
	<path fill="#FFFFFF" d="M359.696,201.25c0.139,0.639-0.251,1.275-0.893,1.443c-0.669,0.139-1.311-0.25-1.449-0.916
		c-0.168-0.639,0.251-1.277,0.892-1.416C358.888,200.193,359.557,200.611,359.696,201.25L359.696,201.25z"/>
	<path fill="#FFFFFF" d="M281.439,71.349c0.14,0.639-0.251,1.277-0.893,1.416c-0.669,0.167-1.31-0.25-1.449-0.888
		c-0.167-0.639,0.251-1.277,0.892-1.444C280.631,70.294,281.3,70.683,281.439,71.349L281.439,71.349z"/>
	<path fill="#FFFFFF" d="M435.221,183.064c0.167,0.639-0.251,1.305-0.893,1.443c-0.641,0.139-1.282-0.25-1.449-0.887
		c-0.14-0.668,0.251-1.307,0.92-1.445C434.439,182.037,435.081,182.426,435.221,183.064L435.221,183.064z"/>
	<polygon fill="#9085BF" points="395.242,120.877 391.952,128.234 389.917,120.295 383.198,116.797 390.559,114.02 393.959,106.413 
		396.162,114.547 402.797,118.74 	"/>
	<polygon fill="#9085BF" points="217.541,7.413 215.868,11.188 214.836,7.107 211.379,5.331 215.143,3.887 216.899,0 218.015,4.165 
		221.443,6.33 	"/>
	<polygon fill="#FFFFFF" points="329.643,246.779 327.719,251.111 326.52,246.418 322.562,244.393 326.882,242.727 328.89,238.256 
		330.172,243.059 334.103,245.529 	"/>
	<polygon fill="#FFFFFF" points="410.324,83.593 408.4,87.951 407.202,83.259 403.243,81.205 407.564,79.567 409.571,75.097 
		410.854,79.9 414.785,82.343 	"/>
	<path fill="#9EAAD6" d="M196.547,36.063c0.14,0.639-0.251,1.277-0.892,1.444c-0.641,0.139-1.31-0.25-1.45-0.917
		c-0.139-0.638,0.251-1.277,0.892-1.416C195.767,35.008,196.408,35.425,196.547,36.063L196.547,36.063z"/>
	<path fill="#9EAAD6" d="M355.515,46.974c0.278,1.277-0.53,2.582-1.813,2.859c-1.311,0.306-2.593-0.5-2.899-1.777
		c-0.279-1.305,0.529-2.582,1.812-2.887C353.925,44.892,355.207,45.697,355.515,46.974L355.515,46.974z"/>
	<path fill="#9EAAD6" d="M48.063,165.686c0.307,1.277-0.502,2.555-1.812,2.859c-1.283,0.307-2.565-0.5-2.872-1.805
		c-0.307-1.277,0.501-2.553,1.812-2.859C46.474,163.576,47.757,164.381,48.063,165.686L48.063,165.686z"/>
	<path fill="#9EAAD6" d="M201.816,106.053c0.307,1.277-0.501,2.554-1.812,2.859c-1.282,0.305-2.565-0.5-2.872-1.805
		c-0.307-1.277,0.502-2.555,1.813-2.859C200.228,103.942,201.51,104.748,201.816,106.053L201.816,106.053z"/>
	<path fill="#9085BF" d="M104.602,155.637c0.14,0.637-0.251,1.275-0.892,1.443c-0.669,0.139-1.31-0.25-1.45-0.916
		c-0.139-0.639,0.251-1.277,0.892-1.416C103.822,154.58,104.463,154.998,104.602,155.637L104.602,155.637z"/>
	<path fill="#9085BF" d="M72.123,26.902c0.14,0.639-0.251,1.277-0.92,1.444c-0.641,0.139-1.283-0.25-1.422-0.917
		c-0.167-0.638,0.251-1.277,0.892-1.416C71.314,25.847,71.956,26.263,72.123,26.902L72.123,26.902z"/>
	<path fill="#9085BF" d="M199.475,12.66c0.167,0.667-0.251,1.305-0.892,1.444c-0.641,0.167-1.31-0.25-1.45-0.889
		c-0.139-0.638,0.251-1.305,0.892-1.443C198.694,11.633,199.335,12.021,199.475,12.66L199.475,12.66z"/>
	<path fill="#FFFFFF" d="M207.337,15.741c0.167,0.639-0.251,1.277-0.893,1.444c-0.641,0.139-1.282-0.278-1.449-0.916
		c-0.14-0.639,0.25-1.277,0.92-1.416C206.556,14.687,207.197,15.103,207.337,15.741L207.337,15.741z"/>
	<path fill="#FFFFFF" d="M31.392,143.254c0.14,0.639-0.251,1.277-0.92,1.443c-0.641,0.139-1.282-0.277-1.422-0.916
		c-0.167-0.639,0.251-1.277,0.892-1.443C30.583,142.199,31.225,142.615,31.392,143.254L31.392,143.254z"/>
	<path fill="#FFFFFF" d="M199.559,27.846c0.139,0.639-0.251,1.305-0.92,1.444c-0.642,0.139-1.283-0.25-1.422-0.889
		c-0.167-0.666,0.25-1.305,0.892-1.443C198.75,26.819,199.391,27.208,199.559,27.846L199.559,27.846z"/>
	<polygon fill="#9085BF" points="101.48,16.213 99.277,21.21 97.883,15.825 93.311,13.437 98.302,11.549 100.616,6.386 
		102.121,11.91 106.637,14.77 	"/>
	<polygon fill="#9085BF" points="9.116,106.357 6.635,111.938 5.102,105.914 0,103.275 5.576,101.166 8.141,95.42 9.813,101.582 
		14.859,104.748 	"/>
	<polygon fill="#FFFFFF" points="78.954,230.482 77.03,234.842 75.831,230.15 71.872,228.096 76.193,226.457 78.201,221.988 
		79.511,226.791 83.414,229.234 	"/>
	<polygon fill="#FFFFFF" points="132.676,87.035 130.753,91.366 129.554,86.674 125.595,84.647 129.917,82.982 131.924,78.512 
		133.234,83.315 137.137,85.786 	"/>
	<path fill="#9EAAD6" d="M30.054,62.66c0.167,0.639-0.251,1.277-0.893,1.444c-0.641,0.139-1.282-0.278-1.45-0.917
		c-0.139-0.638,0.279-1.277,0.92-1.416C29.273,61.605,29.914,62.021,30.054,62.66L30.054,62.66z"/>
	<path fill="#9EAAD6" d="M46.753,203.164c0.056,0.361-0.139,0.695-0.474,0.777c-0.363,0.057-0.697-0.139-0.781-0.471
		c-0.083-0.361,0.139-0.695,0.474-0.777C46.335,202.609,46.669,202.832,46.753,203.164L46.753,203.164z"/>
	<path fill="#9EAAD6" d="M115.586,55.636c0.307,1.277-0.501,2.582-1.812,2.86c-1.282,0.305-2.565-0.5-2.872-1.777
		c-0.307-1.305,0.502-2.582,1.812-2.887C113.998,53.554,115.28,54.359,115.586,55.636L115.586,55.636z"/>
</g>
</svg>
